{"glyphs":{"0":{"ha":888,"x_min":68,"x_max":825,"o":"m 444 953 q 160 807 251 953 q 68 464 68 660 q 158 122 68 265 q 439 -19 249 -19 q 728 124 631 -19 q 825 468 825 264 q 732 815 825 676 q 444 953 639 953 m 444 851 q 643 746 583 851 q 701 485 701 640 q 640 199 701 321 q 439 78 581 78 q 249 186 311 78 q 186 453 186 293 q 244 735 186 617 q 444 851 301 851 z "},"1":{"ha":888,"x_min":163,"x_max":725,"o":"m 233 933 q 193 918 208 933 q 178 881 178 900 q 208 840 178 840 l 339 840 q 374 822 364 840 q 385 747 385 803 l 385 724 l 385 231 l 385 192 q 378 128 385 149 q 350 89 369 108 q 303 82 329 82 q 274 83 297 82 q 253 85 264 85 l 236 86 q 199 88 207 88 q 172 74 182 88 q 163 42 163 60 q 186 6 163 17 q 247 -4 207 -4 q 304 1 267 -4 q 364 6 344 6 q 503 0 421 6 q 678 -6 585 -6 q 717 6 706 -6 q 725 42 725 17 q 710 78 725 67 q 649 89 694 89 l 549 85 q 513 122 522 97 q 501 179 501 147 l 501 726 q 503 751 501 739 q 504 786 504 764 q 494 889 504 849 q 458 933 483 933 l 233 933 z "},"2":{"ha":888,"x_min":67,"x_max":819,"o":"m 456 956 q 210 885 321 956 q 99 701 99 811 q 126 607 99 642 q 203 574 154 574 q 267 601 242 574 q 290 672 290 629 q 264 706 290 692 q 222 726 238 721 q 294 825 222 786 q 447 864 364 864 q 600 814 533 864 q 667 678 667 763 q 517 507 667 572 q 222 379 350 433 q 67 125 67 286 q 94 32 67 76 q 164 -21 122 -12 q 217 -6 193 -21 q 239 40 239 8 q 233 63 239 53 q 211 74 226 74 l 185 74 q 221 118 196 106 q 282 131 246 131 q 453 53 335 131 q 638 -25 571 -25 q 768 36 715 -25 q 819 175 819 96 q 789 272 819 229 q 708 315 758 315 q 646 294 671 315 q 621 235 621 274 q 642 200 621 217 q 676 185 657 185 q 685 186 682 185 q 729 206 710 186 q 731 185 731 201 q 707 114 731 144 q 646 83 682 83 q 493 158 589 83 q 318 233 396 233 q 174 168 243 233 q 326 335 174 278 q 625 443 506 401 q 783 682 783 525 q 689 882 783 807 q 456 956 594 956 z "},"3":{"ha":888,"x_min":71,"x_max":817,"o":"m 694 938 l 176 936 q 138 929 154 936 q 122 903 122 921 l 122 678 q 132 638 122 651 q 163 622 140 622 q 201 633 190 622 q 210 669 210 644 q 208 704 208 685 l 208 739 q 210 767 208 757 q 214 797 210 781 q 233 818 219 811 q 254 826 238 819 q 274 833 272 833 l 626 833 l 350 549 q 326 507 326 525 q 328 499 326 501 q 365 476 336 476 q 431 482 392 476 q 500 488 469 488 q 656 439 607 488 q 701 307 701 389 q 628 144 701 214 q 436 74 553 74 q 265 124 347 74 q 185 242 185 171 l 196 253 q 215 251 204 251 q 239 256 226 251 q 272 279 264 260 q 281 326 281 299 q 257 375 281 351 q 206 397 235 397 q 110 357 149 397 q 71 239 71 317 q 178 53 71 122 q 419 -18 285 -18 q 711 72 604 -18 q 817 310 817 161 q 732 507 817 432 q 518 581 646 581 l 765 825 q 790 857 782 842 q 801 889 801 875 q 778 925 801 910 q 694 938 756 938 z "},"4":{"ha":888,"x_min":40,"x_max":828,"o":"m 407 836 l 60 379 q 40 329 40 351 q 57 296 40 308 q 108 282 71 282 l 515 282 l 515 199 q 504 117 515 143 q 472 88 492 92 l 372 89 q 335 75 349 89 q 322 46 322 63 q 324 38 322 40 q 353 4 324 11 q 407 -3 385 -3 q 508 3 451 -3 q 588 7 571 7 q 692 1 632 7 q 701 0 692 1 q 774 -6 765 -6 q 810 10 794 -6 q 822 43 822 25 q 808 76 822 64 q 774 89 794 89 q 735 88 747 89 q 717 86 726 86 q 699 85 707 86 q 668 90 689 85 q 639 135 646 94 q 632 199 632 179 l 632 282 l 782 282 q 817 297 804 282 q 828 332 828 313 q 817 365 828 350 q 783 379 807 379 l 632 379 l 632 854 q 614 925 632 901 q 564 950 596 950 q 492 924 531 950 q 407 836 450 894 m 526 828 l 515 379 l 182 379 l 526 828 z "},"5":{"ha":888,"x_min":88,"x_max":813,"o":"m 654 939 l 558 933 l 199 933 q 154 886 164 933 q 143 754 143 835 l 143 707 q 144 660 143 675 l 131 481 l 143 439 q 190 415 156 415 q 319 503 251 464 q 469 540 389 540 q 631 479 565 540 q 694 325 694 419 q 621 144 694 210 q 444 78 546 78 q 281 111 354 78 q 208 201 208 142 q 257 218 243 201 q 272 260 272 236 q 251 318 271 296 q 196 339 233 339 q 114 301 142 339 q 88 208 88 263 q 194 46 88 111 q 426 -19 301 -19 q 715 78 618 -19 q 813 325 813 175 q 722 553 813 471 q 500 635 629 635 q 367 615 433 635 q 242 558 304 597 l 261 797 q 271 822 261 813 q 296 833 279 833 l 586 833 q 604 829 592 833 q 621 825 617 825 q 653 772 644 794 q 660 722 658 749 q 674 699 660 707 q 701 690 686 690 q 735 697 718 690 q 749 729 749 703 q 738 849 740 754 q 654 939 736 939 z "},"6":{"ha":888,"x_min":74,"x_max":814,"o":"m 483 953 q 183 804 294 953 q 74 414 74 656 q 168 104 74 232 q 454 -24 263 -24 q 717 75 618 -24 q 814 315 814 172 q 713 543 814 463 q 468 625 610 625 q 306 588 379 625 q 190 475 232 550 q 261 744 190 626 q 485 861 331 861 q 578 844 536 861 q 640 786 618 826 q 600 731 600 774 l 600 725 q 621 685 600 706 q 672 660 644 660 q 738 690 711 660 q 763 757 763 719 q 672 900 763 846 q 483 953 582 953 m 690 306 q 631 138 690 206 q 454 69 571 69 q 275 136 336 69 q 215 306 215 201 q 285 471 215 414 q 456 525 354 525 q 622 467 554 525 q 690 306 690 408 z "},"7":{"ha":888,"x_min":108,"x_max":822,"o":"m 157 963 q 122 944 132 963 q 113 888 113 926 q 118 821 113 867 q 122 746 122 769 q 115 682 122 731 q 108 622 108 633 q 124 556 108 575 q 154 540 136 540 q 165 542 161 540 q 206 560 192 542 q 219 600 219 575 q 211 667 219 619 q 203 738 203 715 q 226 811 203 779 q 292 843 250 843 q 428 779 343 843 q 596 715 513 715 q 657 724 631 715 q 711 754 685 732 q 563 590 676 683 q 392 400 449 496 q 332 101 332 303 q 343 14 332 47 q 399 -18 354 -18 q 458 6 443 -18 q 471 69 471 29 q 529 389 471 293 q 706 607 588 485 q 822 826 822 731 q 794 917 822 872 q 726 960 768 960 q 679 940 699 960 q 658 893 658 919 q 661 875 658 888 l 661 871 q 681 850 664 858 q 719 840 696 840 q 701 821 719 835 q 669 806 682 806 q 492 879 590 806 q 333 953 393 953 q 254 929 286 953 q 193 857 221 903 q 201 922 196 878 q 189 951 201 942 q 157 963 175 963 z "},"8":{"ha":888,"x_min":76,"x_max":808,"o":"m 454 949 q 235 886 329 949 q 139 714 139 822 q 172 600 139 650 q 268 526 206 549 q 126 431 175 483 q 76 281 76 379 q 182 61 76 142 q 444 -22 289 -22 q 710 65 613 -22 q 808 293 808 153 q 753 428 808 368 q 608 526 700 485 q 711 596 672 549 q 749 708 749 644 q 663 888 749 826 q 454 949 576 949 m 444 854 q 574 819 517 854 q 632 719 632 785 q 576 617 632 650 q 443 583 521 583 q 308 617 363 583 q 254 708 254 649 q 314 814 254 775 q 444 854 374 854 m 447 475 q 617 419 547 475 q 686 279 686 363 q 625 132 686 185 q 460 78 563 78 q 269 132 340 78 q 199 282 199 185 q 274 422 199 368 q 447 475 350 475 z "},"9":{"ha":888,"x_min":89,"x_max":801,"o":"m 436 956 q 189 860 288 956 q 89 615 89 763 q 175 397 89 488 q 407 307 261 307 q 571 344 494 307 q 683 450 644 379 q 678 403 682 435 q 672 351 675 369 q 586 150 649 233 q 390 65 522 65 q 286 90 322 65 q 225 142 246 117 q 257 167 250 153 q 263 207 263 178 q 242 251 263 233 q 193 268 219 268 q 133 240 164 268 q 103 176 103 213 q 183 35 103 86 q 388 -19 263 -19 q 706 131 610 -19 q 801 497 801 281 q 703 833 801 710 q 436 956 606 956 m 435 857 q 594 799 531 857 q 657 633 657 739 q 603 469 657 531 q 431 408 546 408 q 264 474 321 408 q 207 635 207 539 q 272 794 207 729 q 435 857 338 857 z "},"­":{"ha":697,"x_min":-1,"x_max":693,"o":"m -1 0 l 693 0 l 693 694 l -1 694 l -1 0 m 13 14 l 13 681 l 679 681 l 679 14 l 13 14 z "}," ":{"ha":625,"x_min":0,"x_max":0,"o":""},"!":{"ha":464,"x_min":135,"x_max":310,"o":"m 171 894 l 171 294 q 188 242 171 261 q 226 222 203 222 q 265 242 249 222 q 282 293 282 261 l 282 893 q 267 947 282 928 q 226 965 250 965 q 188 947 204 965 q 171 894 171 929 m 222 165 q 160 140 185 165 q 135 78 135 115 q 160 15 135 40 q 222 -10 185 -10 q 285 15 260 -10 q 310 78 310 40 q 285 140 310 115 q 222 165 260 165 z "},"\"":{"ha":694,"x_min":175,"x_max":554,"o":"m 492 992 q 456 981 471 992 q 439 949 439 968 q 450 761 439 868 q 474 560 457 693 l 511 560 q 540 757 531 690 q 554 943 554 853 q 535 979 554 964 q 499 992 518 992 l 492 992 m 228 992 q 190 981 206 992 q 175 949 175 969 q 186 761 175 868 q 210 560 193 693 l 247 560 q 276 757 267 690 q 290 943 290 853 q 271 978 290 963 q 228 992 253 992 z "},"#":{"ha":846,"x_min":78,"x_max":758,"o":"m 385 922 l 322 657 l 157 657 l 138 549 l 294 549 l 251 364 l 101 364 l 78 256 l 224 256 l 161 -3 l 224 -3 l 286 256 l 442 256 l 376 -3 l 439 -3 l 501 256 l 672 256 l 696 364 l 525 364 l 571 549 l 735 549 l 758 657 l 596 657 l 661 922 l 599 922 l 539 657 l 385 657 l 446 922 l 385 922 m 357 546 l 508 546 l 465 361 l 311 361 l 357 546 z "},"$":{"ha":888,"x_min":68,"x_max":819,"o":"m 415 1014 l 415 897 q 200 807 286 881 q 114 619 114 732 q 200 446 114 499 q 415 372 288 393 l 415 0 q 254 42 332 0 q 176 151 176 83 q 232 172 214 151 q 249 222 249 192 q 229 278 249 258 q 174 296 210 296 q 99 260 126 296 q 68 174 72 225 q 175 -28 68 42 q 415 -97 282 -97 l 415 -222 q 428 -254 415 -244 q 456 -265 442 -265 q 496 -222 496 -265 l 496 -92 q 728 -6 633 -78 q 819 199 819 65 q 736 382 819 331 q 496 469 650 435 l 496 800 q 600 772 549 800 q 665 706 651 743 q 646 681 651 692 q 638 654 638 668 q 658 608 638 628 q 706 589 678 589 q 763 611 739 589 q 786 663 786 633 q 699 832 786 781 q 496 897 610 883 l 496 1014 q 454 1060 496 1060 q 415 1014 415 1060 m 415 800 l 415 489 q 276 543 324 513 q 228 640 228 572 q 285 756 228 711 q 415 800 342 800 m 496 353 q 644 301 582 343 q 704 189 704 260 q 643 54 704 108 q 496 0 583 0 l 496 353 z "},"%":{"ha":1235,"x_min":29,"x_max":1207,"o":"m 890 953 q 882 947 886 953 q 879 943 881 946 q 876 939 878 940 l 299 14 q 294 0 294 4 q 307 -6 294 -6 l 356 -6 q 372 6 361 -6 l 953 939 q 947 953 953 953 l 890 953 m 271 947 q 96 858 163 947 q 29 643 29 769 q 92 422 29 500 q 271 346 154 346 q 438 422 374 346 q 500 643 500 500 q 444 867 500 786 q 271 947 389 947 m 271 882 q 383 815 349 882 q 418 643 418 749 q 376 482 418 553 q 271 411 333 411 q 150 479 193 411 q 106 643 106 547 q 153 808 106 735 q 271 882 199 882 m 978 590 q 801 503 867 590 q 736 286 736 414 q 799 65 736 143 q 978 -11 861 -11 q 1146 61 1083 -11 q 1207 286 1207 135 q 1150 506 1207 419 q 978 590 1094 590 m 978 525 q 1090 453 1056 525 q 1125 286 1125 382 q 1090 124 1125 192 q 978 54 1054 54 q 857 122 900 54 q 813 286 813 190 q 860 451 813 378 q 978 525 906 525 z "},"&":{"ha":1158,"x_min":71,"x_max":1142,"o":"m 447 971 q 296 922 357 971 q 235 790 235 874 q 253 694 235 740 q 304 572 271 643 q 131 443 188 504 q 71 272 71 382 q 153 61 71 128 q 356 -6 235 -6 q 496 26 425 -6 q 618 114 564 57 q 738 22 697 44 q 863 -4 781 -4 l 893 -4 q 982 6 953 -4 q 1013 50 1013 14 q 1003 83 1013 68 q 976 100 993 100 l 935 100 q 786 118 840 100 q 683 206 732 136 l 779 439 q 854 568 811 517 q 954 619 896 619 q 1015 590 989 619 q 1042 518 1042 560 q 1024 474 1042 490 q 976 456 1006 456 q 967 457 974 456 l 957 458 q 958 492 957 481 q 947 515 958 504 q 908 525 936 525 q 871 503 885 525 q 854 450 854 481 q 890 389 854 410 q 969 367 925 367 q 1097 419 1053 367 q 1142 538 1142 472 q 1092 660 1142 608 q 963 711 1043 711 q 800 651 860 711 q 697 488 739 590 q 638 338 676 436 q 618 290 629 318 l 456 532 q 601 654 547 590 q 653 801 653 714 q 592 921 653 871 q 447 971 532 971 m 447 879 q 514 850 492 871 q 538 792 538 826 q 517 704 538 728 q 410 618 488 675 q 369 706 385 668 q 349 786 349 751 l 349 794 q 375 850 349 826 q 447 879 407 879 m 353 486 q 443 343 397 410 q 550 196 485 281 q 464 117 499 140 q 365 94 429 94 q 239 139 290 94 q 188 268 188 182 q 231 396 188 349 q 353 486 274 446 z "},"'":{"ha":438,"x_min":175,"x_max":290,"o":"m 228 992 q 190 981 206 992 q 175 949 175 969 q 186 761 175 868 q 210 560 193 693 l 247 560 q 276 757 267 690 q 290 943 290 853 q 271 978 290 963 q 228 992 253 992 z "},"(":{"ha":618,"x_min":93,"x_max":589,"o":"m 553 936 q 390 871 504 936 q 186 679 278 804 q 93 382 93 553 q 176 97 93 225 q 371 -101 258 -31 q 564 -174 482 -174 q 581 -157 572 -174 q 569 -136 581 -147 q 374 -8 446 -69 q 246 150 296 56 q 196 379 196 246 q 247 614 196 519 q 378 771 300 710 q 586 906 461 836 l 589 922 q 553 936 589 936 z "},")":{"ha":618,"x_min":25,"x_max":521,"o":"m 521 382 q 429 679 521 553 q 224 871 335 806 q 61 936 110 936 q 25 922 25 936 l 28 906 q 238 771 150 838 q 367 614 314 708 q 418 379 418 519 q 368 150 418 246 q 240 -8 318 56 q 44 -136 168 -69 q 33 -157 33 -147 q 50 -174 42 -174 q 243 -101 132 -174 q 439 97 354 -31 q 521 382 521 225 z "},"*":{"ha":657,"x_min":88,"x_max":551,"o":"m 274 874 l 301 746 l 290 738 l 178 832 q 133 853 156 853 q 100 839 113 853 q 88 804 88 825 q 128 754 88 769 l 271 706 l 268 692 l 149 651 q 106 625 118 642 q 92 589 92 610 q 135 546 92 546 q 188 569 160 546 l 290 660 l 301 651 l 276 524 l 275 513 q 274 501 274 504 q 288 460 274 474 q 321 444 300 444 q 369 503 369 444 l 367 526 l 339 654 l 350 660 l 450 575 q 507 550 479 550 q 539 563 526 550 q 551 593 551 575 q 501 649 551 631 l 369 692 l 369 706 l 493 754 q 533 781 519 764 q 546 814 546 797 q 533 843 546 831 q 500 856 519 856 q 447 831 472 856 l 350 738 l 336 746 l 364 874 q 365 883 364 879 q 367 897 367 894 q 353 939 367 925 q 318 954 338 954 q 285 940 299 954 q 271 899 271 926 q 274 874 271 888 z "},"+":{"ha":603,"x_min":28,"x_max":569,"o":"m 261 681 l 261 453 l 28 453 l 28 375 l 261 375 l 261 125 l 339 125 l 339 375 l 569 375 l 569 453 l 339 453 l 339 681 l 261 681 z "},",":{"ha":458,"x_min":144,"x_max":346,"o":"m 242 185 q 175 163 203 185 q 144 97 144 140 q 206 18 144 31 q 267 -1 267 6 q 240 -121 267 -76 q 182 -197 201 -171 q 196 -217 182 -217 q 299 -128 251 -217 q 346 53 346 -39 q 322 142 346 106 q 242 185 297 176 z "},"-":{"ha":426,"x_min":60,"x_max":383,"o":"m 114 418 q 75 404 89 418 q 60 368 60 389 q 74 333 60 347 q 114 319 88 319 l 331 319 q 369 335 354 319 q 383 368 383 349 q 371 404 383 390 q 331 418 357 418 l 114 418 z "},".":{"ha":464,"x_min":129,"x_max":307,"o":"m 219 167 q 156 142 183 167 q 129 79 129 118 q 154 15 129 43 q 217 -11 179 -11 q 281 14 254 -11 q 307 76 307 39 q 282 140 307 114 q 219 167 258 167 z "},"/":{"ha":694,"x_min":92,"x_max":611,"o":"m 549 1022 q 510 996 519 1022 l 94 -65 l 93 -75 q 92 -85 92 -82 q 106 -94 92 -94 l 163 -94 q 182 -87 178 -94 q 190 -74 188 -79 l 603 985 q 607 993 604 986 q 608 997 607 994 q 610 1006 610 1001 q 611 1010 611 1008 q 589 1022 611 1022 l 549 1022 z "},":":{"ha":464,"x_min":133,"x_max":311,"o":"m 222 619 q 161 594 186 619 q 136 533 136 569 q 161 472 136 497 q 222 447 186 447 q 283 472 258 447 q 308 533 308 497 q 283 594 308 569 q 222 619 258 619 m 222 167 q 160 140 186 167 q 133 78 133 114 q 160 15 133 42 q 222 -11 186 -11 q 285 15 258 -11 q 311 78 311 42 q 285 140 311 114 q 222 167 258 167 z "},";":{"ha":464,"x_min":119,"x_max":332,"o":"m 332 53 q 307 142 332 107 q 228 185 282 176 q 160 163 186 185 q 131 97 131 140 q 192 17 131 29 q 253 -1 253 4 q 211 -143 253 -92 q 168 -197 168 -194 q 182 -217 168 -217 q 285 -126 236 -217 q 332 53 332 -37 m 208 619 q 146 593 172 619 q 119 531 119 567 q 146 468 119 494 q 208 442 172 442 q 271 468 244 442 q 297 531 297 494 q 271 593 297 567 q 208 619 244 619 z "},"<":{"ha":310,"x_min":25,"x_max":206,"o":"m 165 606 l 28 385 l 26 382 q 25 374 25 378 q 28 364 25 369 l 168 133 q 189 118 179 118 q 206 140 206 118 q 204 147 206 142 l 203 154 l 131 372 l 201 578 q 203 583 203 582 q 204 593 204 590 q 183 618 204 618 q 165 606 174 618 z "},"=":{"ha":413,"x_min":60,"x_max":388,"o":"m 114 553 q 60 504 60 553 q 74 469 60 483 q 114 456 88 456 l 331 456 q 388 504 388 456 q 374 539 388 525 q 331 553 360 553 l 114 553 m 114 385 q 75 371 89 385 q 60 335 60 356 q 74 301 60 315 q 114 288 88 288 l 331 288 q 388 336 388 288 q 374 371 388 357 q 331 385 360 385 l 114 385 z "},">":{"ha":310,"x_min":93,"x_max":274,"o":"m 271 364 q 274 374 274 369 q 272 382 274 378 l 271 385 l 133 606 q 115 618 125 618 q 94 593 94 618 q 96 583 94 590 q 97 578 96 582 l 168 372 l 96 154 l 94 147 q 93 140 93 142 q 110 118 93 118 q 131 133 119 118 l 271 364 z "},"?":{"ha":811,"x_min":53,"x_max":746,"o":"m 413 968 q 165 899 276 968 q 53 704 53 828 q 89 599 53 643 q 188 553 125 553 q 267 581 232 553 q 300 647 300 608 q 285 689 300 669 q 244 707 268 707 q 215 700 232 707 q 196 683 200 693 q 190 651 190 674 q 163 682 167 675 q 154 711 154 693 q 239 838 160 793 q 410 879 317 879 q 563 835 494 879 q 629 714 629 792 q 540 581 629 640 q 372 476 483 546 q 282 317 282 407 q 296 254 282 276 q 342 231 311 231 q 385 251 375 231 q 394 304 394 269 q 482 424 394 372 q 547 463 493 431 q 654 526 628 511 q 746 706 746 600 q 643 896 746 822 q 413 968 542 968 m 354 167 q 292 140 318 167 q 265 78 265 114 q 292 15 265 40 q 354 -10 319 -10 q 418 17 392 -10 q 443 78 443 42 q 417 140 443 114 q 354 167 390 167 z "},"@":{"ha":846,"x_min":11,"x_max":765,"o":"m 11 417 q 107 100 11 236 q 374 -36 203 -36 q 565 14 472 -36 q 732 144 657 61 l 663 144 q 543 54 606 88 q 410 21 479 21 q 181 147 269 21 q 92 432 92 274 q 190 754 92 614 q 438 892 289 892 q 625 799 544 892 q 706 571 706 706 q 667 356 706 468 q 532 239 628 239 q 508 265 517 239 q 499 324 499 289 q 500 340 499 329 l 501 347 l 501 389 q 519 546 501 469 q 569 711 536 625 l 492 711 l 478 660 q 444 706 474 688 q 386 724 414 724 q 253 611 310 724 q 196 369 196 497 q 225 253 196 307 q 300 192 254 199 l 308 192 q 376 221 346 192 q 435 301 413 254 q 467 221 435 249 q 544 192 499 192 q 704 310 642 192 q 765 563 765 431 q 667 832 765 728 q 425 935 567 935 q 131 789 250 935 q 11 417 11 640 m 410 675 q 446 651 435 675 q 457 596 457 626 q 419 360 457 483 q 324 236 382 236 q 293 253 308 236 q 279 290 279 268 q 322 572 279 472 q 410 675 367 675 z "},"A":{"ha":1097,"x_min":19,"x_max":1074,"o":"m 535 933 q 482 917 506 933 q 451 874 460 900 l 174 133 q 154 93 164 107 q 125 79 144 79 q 110 81 122 79 q 93 82 100 81 l 57 82 q 31 68 40 82 q 19 35 19 53 q 38 3 19 15 q 76 -10 57 -10 q 122 -6 92 -10 q 188 3 154 -3 l 321 3 q 354 -1 333 3 q 389 -6 375 -6 l 418 -6 q 463 -1 449 -6 q 478 17 478 3 l 478 42 q 457 79 478 79 l 335 85 q 308 99 318 85 q 297 132 297 114 q 301 151 297 143 l 343 261 q 364 301 350 281 q 392 319 374 319 l 682 319 q 692 313 685 319 q 701 292 696 307 l 703 288 l 763 122 q 765 110 765 114 q 751 90 765 96 q 708 79 732 79 l 633 85 q 603 76 618 85 q 589 42 589 67 l 589 36 q 600 7 589 18 q 643 -7 613 -7 q 693 -6 660 -7 q 708 -4 703 -4 q 768 0 746 -3 l 939 0 l 983 -6 q 1018 -4 1006 -6 q 1050 -3 1040 -4 q 1068 7 1063 -3 q 1074 31 1074 14 q 1065 67 1074 50 q 1042 82 1054 82 l 942 82 q 903 115 919 82 q 871 188 886 147 l 622 874 q 585 922 603 913 q 535 933 565 933 m 532 814 l 654 435 q 640 415 654 415 l 424 415 q 410 421 415 415 q 406 429 406 425 q 407 435 406 433 l 532 814 z "},"B":{"ha":965,"x_min":26,"x_max":892,"o":"m 540 933 q 424 925 501 933 q 296 917 347 917 q 183 924 263 917 q 111 929 121 929 q 43 919 57 929 q 28 879 28 908 q 35 850 28 861 q 51 839 42 839 l 160 840 q 192 810 179 840 q 203 740 203 776 l 203 182 q 192 108 203 139 q 144 79 179 79 l 140 79 q 121 81 136 79 l 101 82 q 72 83 83 83 q 51 85 57 85 q 35 69 42 85 q 26 43 26 53 q 36 11 26 25 q 60 -3 44 -3 q 111 -1 90 -3 q 168 3 150 1 q 317 -1 175 3 q 518 -7 440 -7 q 783 57 674 -7 q 892 261 892 119 q 839 424 892 351 q 689 507 785 494 q 815 596 781 561 q 849 714 849 629 q 756 881 849 826 q 540 933 661 933 m 518 846 q 679 808 636 846 q 724 704 724 768 q 660 583 724 617 q 533 544 597 551 q 458 539 476 539 l 439 539 l 417 539 q 399 540 404 539 q 335 550 356 540 q 310 597 310 558 l 310 776 q 318 807 310 789 q 336 825 324 825 q 404 839 375 835 q 518 846 450 846 m 404 453 l 521 453 q 701 411 631 453 q 772 275 772 368 q 703 122 772 171 q 525 75 633 75 q 421 82 490 75 q 353 92 365 88 q 321 115 329 96 q 313 165 313 135 l 313 401 q 332 440 313 425 q 404 453 351 453 z "},"C":{"ha":888,"x_min":47,"x_max":826,"o":"m 464 957 q 158 811 269 957 q 47 461 47 664 q 154 115 47 258 q 461 -28 260 -28 q 733 64 640 -28 q 826 304 826 156 q 818 353 826 336 q 774 369 808 369 q 733 356 743 369 q 722 328 722 340 q 642 125 722 183 q 471 67 561 67 q 247 176 315 67 q 178 446 178 288 q 243 742 178 619 q 467 863 308 863 q 639 794 578 863 q 700 604 700 725 l 700 592 q 701 588 700 592 q 703 575 701 583 q 715 546 706 561 q 750 532 724 532 q 792 546 782 532 q 800 586 800 561 l 800 606 l 797 660 q 796 718 797 692 q 794 783 794 744 q 797 851 794 801 l 797 856 q 799 889 799 867 q 800 922 799 911 q 789 946 800 935 q 754 956 778 956 q 729 944 744 956 q 715 919 715 935 l 719 840 q 464 957 611 957 z "},"D":{"ha":1004,"x_min":25,"x_max":957,"o":"m 71 931 q 36 915 47 931 q 25 879 25 900 q 32 853 25 864 q 51 840 39 840 l 144 840 q 192 813 179 840 q 203 740 203 783 l 203 182 q 188 103 203 126 q 144 79 171 79 q 100 83 131 81 q 51 85 85 85 q 32 71 38 85 q 25 44 25 54 q 42 7 25 18 q 103 -6 58 -6 q 232 0 139 -3 q 292 1 265 1 q 350 3 338 3 q 369 0 351 3 q 396 -3 389 -3 q 444 -6 429 -6 q 694 28 585 -6 q 882 164 804 61 q 957 463 957 267 q 843 800 957 672 q 510 928 728 928 q 390 922 463 928 q 288 917 318 917 q 176 924 263 917 q 71 931 90 931 m 467 833 q 754 736 674 833 q 836 468 836 638 q 753 183 836 286 q 496 82 668 82 q 425 86 463 82 q 361 94 388 90 q 329 119 336 99 q 322 168 322 140 l 322 754 q 344 818 322 801 q 467 833 367 833 z "},"E":{"ha":888,"x_min":26,"x_max":844,"o":"m 361 88 q 331 108 342 88 q 319 163 319 131 l 319 382 q 376 435 319 435 l 461 435 q 503 426 489 435 q 518 407 518 415 l 525 258 q 540 238 525 246 q 567 228 554 228 q 608 247 597 228 q 618 304 618 265 q 608 400 614 338 q 603 460 603 444 q 607 546 603 486 q 618 668 610 590 q 607 707 618 688 q 571 725 594 725 q 535 701 547 725 q 521 649 521 679 l 526 567 q 499 535 526 546 q 453 524 469 524 l 364 524 q 332 533 343 524 q 319 564 319 542 l 319 754 q 344 819 319 806 q 436 833 368 833 l 649 828 q 715 796 700 828 q 729 717 729 764 l 726 575 q 742 546 726 554 q 776 538 757 538 q 818 560 808 538 q 828 617 828 581 l 822 683 q 829 779 822 714 q 836 879 836 844 q 814 918 836 904 q 771 931 792 931 q 592 926 728 931 q 496 922 554 925 q 379 917 400 918 q 226 925 329 917 q 106 933 125 933 q 46 925 65 933 q 26 878 26 914 q 33 854 26 871 q 51 840 39 840 l 144 843 q 194 817 185 843 q 206 740 206 788 l 206 185 q 193 110 206 139 q 150 82 181 82 l 144 82 q 100 86 131 83 q 54 88 85 88 q 35 75 42 88 q 26 46 26 61 q 46 7 26 18 q 103 -3 64 -3 q 240 7 150 1 q 356 11 314 11 q 631 1 449 7 q 779 -6 765 -3 l 783 -6 q 818 6 793 -6 q 844 46 844 18 q 838 140 844 74 q 831 242 831 207 q 832 269 831 249 l 833 285 q 836 310 835 301 q 836 314 836 314 q 824 364 836 342 q 785 388 808 388 q 750 378 764 388 q 735 350 735 367 l 738 258 q 739 247 739 256 q 740 236 739 243 q 742 213 742 226 q 724 132 742 167 q 657 97 706 97 l 361 88 z "},"F":{"ha":888,"x_min":26,"x_max":836,"o":"m 26 878 q 44 854 26 867 q 74 842 64 842 l 144 843 q 192 825 178 843 q 206 740 206 807 l 206 185 q 193 110 206 139 q 150 82 181 82 l 144 82 l 140 82 q 119 83 135 82 q 103 85 106 85 l 79 86 q 51 88 58 88 q 33 74 39 88 q 26 46 26 57 q 38 7 26 18 q 103 -3 47 -3 l 203 8 q 351 3 267 8 q 422 -3 389 0 q 456 -4 451 -4 q 503 7 485 -4 q 515 29 515 14 q 514 40 515 36 q 497 79 514 69 q 458 89 482 89 q 400 88 425 89 l 372 88 q 365 86 369 88 l 361 88 q 331 108 342 88 q 319 163 319 131 l 319 382 q 376 435 319 435 l 461 435 q 518 407 517 435 l 526 258 q 565 228 526 228 q 606 246 592 228 q 618 292 618 263 l 606 483 l 617 667 q 606 707 617 688 q 571 725 596 725 q 535 701 547 725 q 521 649 521 679 l 522 642 q 528 596 526 614 l 528 581 q 526 567 528 568 q 504 535 526 544 q 453 524 479 524 l 364 524 q 332 533 343 524 q 319 564 319 542 l 319 754 q 350 822 319 810 q 436 833 381 833 l 549 833 q 692 818 650 833 q 729 717 729 804 q 728 639 728 692 q 726 575 726 611 q 742 546 726 554 q 776 538 757 538 q 815 557 803 538 q 828 600 828 576 q 826 624 828 606 q 825 643 825 640 l 824 665 q 822 683 822 679 q 829 788 822 711 q 836 879 836 861 q 813 918 836 906 q 763 931 788 931 l 379 917 q 244 925 335 917 q 108 933 156 933 q 49 921 72 933 q 26 878 26 908 z "},"G":{"ha":965,"x_min":51,"x_max":965,"o":"m 461 956 q 164 811 276 956 q 51 457 51 665 q 154 119 51 264 q 453 -25 257 -25 q 610 6 547 -25 q 724 103 674 35 q 719 58 722 86 q 717 33 718 42 q 717 29 717 29 q 731 -6 717 4 q 761 -17 744 -17 q 800 -7 782 -17 q 817 25 817 4 q 815 78 817 40 l 814 89 l 813 107 q 811 146 811 138 l 811 258 q 814 317 811 286 q 819 353 817 342 q 839 383 819 372 q 868 393 854 393 l 871 393 l 917 390 q 953 407 939 390 q 965 439 965 422 q 947 472 965 458 q 904 486 929 486 q 822 478 876 486 q 740 469 768 469 q 650 478 715 469 l 642 479 q 567 485 579 485 q 513 478 536 485 q 492 443 492 469 q 510 399 492 408 q 560 389 528 389 l 578 389 l 654 390 q 678 379 667 390 q 689 347 689 368 q 690 336 690 346 l 692 325 l 692 282 q 628 131 692 190 q 464 71 564 71 q 244 196 311 71 q 176 493 176 319 q 253 746 176 636 q 457 857 328 857 q 647 782 596 857 q 697 583 697 707 q 713 557 697 568 q 746 546 728 546 q 782 560 767 546 q 797 600 797 572 q 796 661 797 617 q 794 674 794 665 q 790 722 790 718 q 796 803 790 757 q 804 882 800 856 q 757 950 804 950 q 710 894 710 950 l 714 849 q 596 929 651 904 q 461 956 538 956 z "},"H":{"ha":1079,"x_min":25,"x_max":1053,"o":"m 92 933 q 42 925 57 933 q 25 886 25 917 q 32 857 25 874 q 51 843 38 843 l 144 846 q 190 825 176 846 q 203 743 203 804 l 203 182 q 188 103 203 126 q 144 79 171 79 l 64 85 q 39 74 53 85 q 25 43 25 61 q 43 1 25 7 q 103 -6 64 -6 q 118 -4 110 -6 q 179 1 153 -1 q 244 7 228 7 q 368 1 297 7 q 389 0 379 0 q 464 -6 454 -6 q 486 7 476 -6 q 496 43 496 18 q 492 71 496 58 q 472 82 485 82 l 379 79 q 333 110 347 79 q 319 182 319 138 l 319 442 l 757 442 l 757 182 q 742 113 757 146 q 694 79 728 79 l 619 85 q 585 71 590 85 q 576 39 576 57 q 586 14 576 24 q 610 -3 597 3 q 743 3 664 -3 q 860 8 822 8 q 921 1 875 8 q 985 -6 967 -6 q 1036 0 1021 -6 q 1053 25 1053 4 q 1046 71 1053 57 q 1025 82 1039 82 q 974 81 1000 82 q 938 79 956 79 q 933 79 935 79 q 889 101 903 79 q 874 182 874 124 l 874 740 q 883 818 874 793 q 933 843 894 843 l 1025 840 q 1049 853 1044 840 q 1053 899 1053 864 q 1039 919 1053 910 q 1017 928 1025 928 q 878 924 964 928 q 740 919 793 919 l 636 931 q 596 918 610 929 q 579 890 579 908 q 585 857 579 872 q 606 840 592 840 l 694 843 q 742 822 728 843 q 757 740 757 800 l 757 538 l 319 538 l 319 743 q 338 819 319 793 q 379 846 354 846 l 472 840 q 492 850 486 840 q 497 879 497 857 q 481 921 497 911 q 433 932 461 932 q 351 928 408 932 q 271 922 300 922 q 192 926 236 922 q 108 932 167 928 l 92 933 z "},"I":{"ha":540,"x_min":25,"x_max":501,"o":"m 85 933 q 42 915 57 929 q 25 879 25 901 q 31 853 25 864 q 51 840 38 840 q 114 842 94 840 q 144 843 133 843 q 196 801 188 843 q 201 764 197 788 q 206 740 204 749 l 206 182 q 192 103 197 118 q 160 82 186 82 l 51 82 q 33 69 40 82 q 26 42 26 56 q 46 1 26 8 q 103 -6 67 -6 l 247 3 q 356 -1 283 3 q 467 -6 429 -6 q 493 6 486 -6 q 499 36 499 15 q 493 69 499 58 q 472 82 488 82 l 382 79 q 331 107 342 79 q 319 182 319 136 l 319 740 q 332 815 319 786 q 382 843 343 843 l 472 840 q 492 851 485 840 q 501 879 500 865 l 501 888 q 483 918 501 908 q 421 931 461 931 q 322 921 385 926 q 247 917 271 917 q 183 922 228 917 q 136 928 168 924 q 85 933 103 931 z "},"J":{"ha":811,"x_min":-22,"x_max":811,"o":"m 435 936 q 397 926 413 936 q 381 892 381 917 q 435 840 381 840 l 478 843 q 524 818 510 843 q 538 763 538 792 l 538 385 q 525 229 538 290 q 461 119 513 167 q 385 83 425 94 q 297 71 346 71 q 140 121 194 71 q 85 250 85 168 q 83 264 83 254 q 104 319 83 293 q 156 353 128 353 l 179 347 q 161 311 161 329 q 181 271 161 286 q 222 254 200 254 q 283 281 265 254 q 301 344 301 307 q 257 421 301 393 q 153 447 213 447 q 22 378 67 447 q -22 238 -22 308 q 72 40 -22 111 q 290 -32 165 -32 q 542 50 428 -32 q 654 261 654 132 l 654 740 q 667 811 654 781 q 706 840 678 840 l 774 840 q 803 854 793 840 q 811 878 811 865 q 810 889 811 885 q 800 922 810 911 q 751 933 789 933 q 696 926 738 933 l 689 925 q 643 919 651 919 q 521 928 599 919 q 435 936 444 936 z "},"K":{"ha":1079,"x_min":0,"x_max":1081,"o":"m 643 936 q 608 922 622 936 q 592 883 592 908 q 607 850 594 858 q 643 840 618 840 l 700 843 q 717 844 703 844 q 753 828 753 844 q 740 811 753 822 l 313 496 l 313 796 q 328 826 313 815 q 344 839 333 831 q 350 843 347 842 l 467 839 q 499 853 486 839 q 510 888 510 867 q 489 925 510 917 q 439 933 468 933 q 382 929 426 933 q 358 926 371 928 q 289 921 315 921 q 164 928 254 921 q 63 933 92 933 q 29 922 44 933 q 15 888 15 913 q 32 854 15 869 q 68 839 47 839 l 71 839 l 119 843 q 182 833 157 843 q 208 788 208 824 l 208 133 q 189 97 208 113 q 117 83 169 83 l 29 85 q 10 71 18 85 q 1 42 1 57 q 0 29 0 38 q 28 -3 0 -1 q 69 -8 56 -8 q 133 0 92 -8 q 203 8 175 8 q 347 1 247 8 q 472 -6 447 -6 q 493 6 485 -6 q 504 33 503 17 q 506 44 506 38 q 500 68 506 58 q 478 85 492 83 q 446 86 468 86 l 421 86 l 375 86 q 358 88 360 86 q 321 103 332 88 q 308 154 308 118 l 308 383 l 413 458 l 742 131 q 754 114 750 122 q 757 97 757 103 q 739 82 757 82 l 635 85 q 611 71 621 85 q 601 44 601 57 l 601 42 q 615 6 601 18 q 674 -8 628 -8 q 760 0 700 -8 q 768 1 764 0 q 835 7 826 7 q 958 1 886 7 q 1008 -3 979 0 q 1047 -6 1043 -6 q 1071 10 1060 -6 q 1081 46 1081 24 q 1068 72 1081 60 q 1039 85 1056 85 l 971 85 q 899 113 926 85 q 854 158 865 146 l 496 513 l 863 786 q 892 817 876 800 q 928 840 914 840 q 949 842 933 842 q 969 843 958 842 l 1013 843 l 1026 843 l 1028 843 q 1047 857 1042 843 q 1053 885 1053 868 l 1049 910 q 1010 933 1040 933 q 932 925 982 933 q 857 917 882 917 q 751 926 819 917 q 643 936 682 936 z "},"L":{"ha":849,"x_min":25,"x_max":846,"o":"m 85 933 q 40 924 54 933 q 25 882 25 913 q 32 854 25 871 q 51 840 38 840 l 144 843 q 190 814 178 843 q 203 740 203 783 l 203 182 q 189 110 203 139 q 144 76 175 76 q 99 81 124 79 q 51 82 82 82 q 32 68 36 82 q 26 43 26 56 q 40 3 26 13 q 82 -8 56 -8 q 119 -7 99 -7 l 421 -3 l 786 -6 q 826 6 811 -6 q 840 51 840 15 l 840 65 l 836 131 q 839 206 836 150 l 839 226 q 846 336 840 264 l 846 344 q 833 372 846 360 q 797 383 818 383 q 757 361 767 383 q 746 303 746 336 l 746 263 q 747 224 746 236 q 711 115 747 151 q 550 79 674 79 l 532 79 l 508 79 q 450 81 469 79 q 418 82 419 81 q 344 97 368 82 q 322 174 322 111 l 322 740 q 338 814 322 783 q 385 843 353 843 l 475 840 q 494 854 489 840 q 500 882 500 867 q 486 924 500 914 q 435 933 472 933 q 360 928 410 933 q 254 921 294 921 q 146 925 183 921 q 85 933 107 929 z "},"M":{"ha":1275,"x_min":25,"x_max":1246,"o":"m 85 933 q 42 921 58 933 q 25 885 25 907 q 32 856 25 872 q 51 840 39 840 l 144 843 q 189 817 175 843 q 203 740 203 790 l 203 185 l 203 169 q 194 108 203 132 q 156 85 183 85 l 51 85 q 33 74 40 85 q 26 42 26 60 q 36 7 26 18 q 75 -6 44 -6 l 103 -6 q 146 1 115 -3 q 176 6 161 3 q 222 10 217 10 q 314 6 254 10 q 435 -6 354 3 q 461 8 450 -1 q 483 38 472 18 q 475 72 483 58 q 444 88 467 88 q 421 86 439 88 l 401 85 q 385 83 392 83 q 372 82 375 82 q 369 82 371 82 q 328 103 343 82 q 313 185 313 122 l 313 828 l 313 836 l 318 836 l 319 828 l 556 38 q 586 -6 565 8 q 633 -22 607 -22 q 681 -6 658 -22 q 711 38 703 8 l 950 828 q 960 833 951 833 l 960 199 q 947 115 954 143 q 913 88 939 88 l 893 88 q 857 86 883 86 q 831 88 836 86 q 800 72 813 88 q 788 39 788 56 q 810 -1 788 3 q 854 -6 831 -6 q 944 1 878 -6 q 958 3 950 1 q 1022 8 1013 8 q 1060 7 1029 8 q 1085 6 1071 7 q 1169 -3 1114 3 q 1225 8 1200 -3 q 1246 44 1246 19 q 1242 71 1246 57 q 1221 85 1236 85 l 1126 82 q 1082 111 1094 82 q 1069 185 1069 140 l 1069 746 q 1081 811 1069 778 q 1110 840 1092 840 l 1221 840 q 1240 860 1233 840 q 1244 892 1244 879 q 1229 921 1244 910 q 1169 931 1215 931 q 1146 929 1167 931 l 1122 928 q 1049 924 1088 924 q 956 926 994 924 q 906 933 932 928 l 901 933 q 871 914 886 933 q 851 874 854 889 l 635 125 l 439 828 q 413 901 431 863 q 372 931 396 931 q 294 926 340 929 q 219 925 265 925 q 140 929 189 925 q 85 933 93 933 z "},"N":{"ha":1042,"x_min":25,"x_max":1008,"o":"m 85 933 q 43 917 60 933 q 25 879 25 899 q 32 849 25 863 q 51 836 39 836 q 114 838 103 836 q 144 840 125 838 q 203 738 203 840 l 203 179 q 192 103 203 136 q 153 74 182 74 l 144 74 q 143 74 144 74 q 107 78 135 74 q 54 82 72 82 q 35 69 43 82 q 26 40 26 57 q 47 0 26 11 q 103 -11 67 -11 q 142 -6 121 -8 q 175 0 172 0 q 225 6 207 6 q 338 -1 261 6 q 442 -8 414 -8 q 478 6 464 -8 q 492 40 492 18 q 483 69 492 56 q 451 82 474 82 q 429 81 447 82 l 407 79 q 386 78 390 78 q 374 76 375 76 l 369 76 q 325 96 340 76 q 310 146 310 115 l 310 828 l 643 71 q 696 -1 661 25 q 761 -26 728 -26 q 828 8 801 -26 q 854 106 854 43 l 854 738 q 868 808 854 782 q 896 836 881 836 q 931 835 913 836 q 968 833 949 833 q 999 843 989 833 q 1008 882 1008 853 q 994 921 1008 915 q 950 926 982 926 q 872 922 931 926 q 785 917 821 917 q 690 921 719 917 q 649 928 664 922 q 592 918 611 928 q 569 876 569 908 q 583 850 569 860 q 614 838 596 838 l 689 840 q 739 794 726 840 q 751 696 751 747 l 751 683 l 751 89 l 407 865 q 369 922 385 911 q 331 932 356 932 q 317 931 317 931 q 267 926 285 928 l 238 925 q 213 924 218 924 q 118 929 139 924 q 85 933 93 933 z "},"O":{"ha":888,"x_min":47,"x_max":854,"o":"m 458 957 q 154 813 261 957 q 47 464 47 668 q 151 114 47 256 q 446 -28 256 -28 q 756 117 656 -28 q 854 464 854 261 q 753 819 854 683 q 458 957 651 957 m 456 865 q 665 750 600 865 q 729 469 729 636 q 660 190 729 310 q 446 72 589 72 q 243 185 314 72 q 172 449 172 297 q 242 744 172 622 q 456 865 311 865 z "},"P":{"ha":888,"x_min":25,"x_max":856,"o":"m 246 921 l 89 931 q 36 917 46 926 q 25 879 25 906 q 33 854 25 867 q 51 840 39 840 q 99 842 82 840 q 144 843 131 842 q 192 815 176 843 q 206 740 206 788 l 206 185 q 197 113 206 140 q 160 85 186 85 l 103 85 l 51 85 q 35 75 43 85 q 26 47 26 65 q 46 4 26 13 q 103 -6 64 -6 l 206 8 q 324 1 236 8 q 453 -6 411 -6 q 486 11 474 -6 q 499 49 499 28 q 493 74 499 64 q 475 85 486 85 l 382 82 q 336 114 353 82 q 319 185 319 146 l 319 376 q 331 394 319 388 q 358 401 342 401 l 513 401 q 757 468 660 401 q 856 682 856 535 q 756 878 856 822 q 507 933 654 933 q 356 928 443 933 q 293 924 331 926 q 246 921 250 921 m 426 840 l 514 843 q 679 804 619 843 q 740 667 740 764 q 667 522 740 554 q 453 489 592 489 l 388 489 l 353 493 q 319 518 319 500 l 319 782 q 350 828 319 814 q 426 840 382 840 z "},"Q":{"ha":888,"x_min":49,"x_max":863,"o":"m 450 956 q 158 825 267 956 q 49 454 49 694 q 149 111 49 251 q 450 -29 247 -29 q 513 -22 474 -29 l 513 -128 q 569 -239 524 -204 q 693 -275 617 -275 q 817 -228 772 -275 q 863 -108 863 -181 q 851 -54 856 -62 q 808 -42 846 -42 q 779 -54 794 -42 q 765 -85 765 -67 q 767 -103 767 -92 q 751 -164 767 -136 q 692 -192 735 -192 q 633 -165 651 -192 q 615 -94 615 -139 l 615 17 q 776 204 725 90 q 828 454 828 317 q 731 819 828 683 q 450 956 632 956 m 447 868 q 649 754 585 868 q 713 454 713 640 q 688 276 713 363 q 608 122 661 192 l 608 196 q 564 319 608 264 q 450 374 521 374 q 317 331 368 374 q 264 217 264 286 q 272 154 264 186 q 296 97 278 126 q 199 257 228 165 q 168 454 168 344 q 235 746 168 624 q 447 868 301 868 m 436 288 q 492 254 467 288 q 515 179 515 218 l 515 74 l 501 71 q 476 67 485 68 l 469 65 q 450 64 456 64 q 367 89 403 64 q 331 154 331 114 q 357 264 331 240 q 436 288 385 288 z "},"R":{"ha":1004,"x_min":25,"x_max":993,"o":"m 538 936 q 431 931 510 936 q 343 925 403 929 q 253 919 285 922 q 176 928 231 919 q 165 929 171 929 q 104 935 114 935 q 49 925 69 935 q 25 882 25 914 q 32 856 25 872 q 51 840 39 840 q 93 844 67 842 q 115 846 104 844 l 135 846 q 140 847 138 846 l 144 846 q 190 818 178 846 q 203 740 203 789 l 203 185 q 192 111 203 140 q 144 82 179 82 q 99 86 124 85 q 53 88 82 88 q 36 75 47 88 q 26 53 26 64 q 39 10 26 21 q 78 0 50 0 l 108 0 q 178 4 136 0 q 225 8 218 8 q 354 3 282 8 q 453 -3 425 -3 q 490 13 475 -3 q 501 42 501 26 l 501 49 q 494 75 500 58 q 472 88 489 88 l 457 88 q 413 86 433 88 q 383 85 399 85 q 379 85 381 85 q 333 113 349 85 q 319 188 319 139 l 319 376 q 336 422 319 413 q 388 432 351 432 l 404 432 l 446 432 q 500 433 478 432 l 546 433 q 569 429 568 431 q 656 386 625 429 q 686 279 686 343 l 686 160 q 740 26 686 58 q 889 -7 794 -7 l 913 -7 q 972 3 953 -7 q 993 46 993 14 q 988 76 993 65 q 965 89 982 89 q 908 90 929 89 q 846 92 865 90 q 813 118 822 92 q 803 171 803 142 l 803 268 q 763 422 803 382 q 640 475 725 460 q 792 544 732 489 q 849 700 849 597 q 765 876 849 817 q 538 936 683 936 m 481 851 q 492 853 485 853 l 497 853 q 524 851 510 851 q 681 810 626 851 q 735 694 735 767 q 489 521 735 521 l 358 521 q 333 528 347 521 q 319 543 319 533 l 319 763 q 364 832 319 813 q 481 851 410 851 z "},"S":{"ha":774,"x_min":49,"x_max":743,"o":"m 390 957 q 161 882 256 957 q 68 688 68 806 q 140 522 68 582 q 304 440 214 458 l 538 393 q 600 342 578 385 q 624 206 624 297 q 556 107 624 146 q 407 65 488 65 q 224 124 281 65 q 160 240 168 181 q 150 304 150 294 l 150 313 q 151 336 150 326 q 153 356 153 346 q 140 393 153 379 q 103 408 128 408 q 68 399 86 408 q 49 375 49 388 q 53 208 49 299 q 57 111 57 117 q 53 76 57 100 q 49 40 49 54 q 63 -14 49 -1 q 103 -26 78 -26 q 132 -15 114 -26 q 149 14 149 -6 l 146 71 q 264 -4 217 17 q 408 -24 310 -24 q 646 54 547 -24 q 743 263 743 131 q 683 424 743 356 q 538 510 622 493 l 333 549 q 229 596 268 561 q 190 692 190 629 q 249 815 190 768 q 381 864 308 864 q 529 829 463 864 q 597 729 597 794 q 596 690 597 704 q 592 646 594 676 q 603 581 592 603 q 656 558 613 558 q 692 581 683 558 q 700 643 700 601 q 699 661 700 647 q 697 671 697 665 l 696 679 q 694 700 694 696 q 699 797 694 738 q 703 897 703 858 q 689 933 703 919 q 651 947 675 947 q 624 935 635 947 q 613 903 613 921 l 613 874 q 510 938 565 915 q 390 957 456 957 z "},"T":{"ha":849,"x_min":25,"x_max":833,"o":"m 754 936 q 604 932 700 936 q 422 922 483 926 l 111 931 q 49 922 72 931 q 25 888 25 911 q 29 768 25 817 l 31 738 q 32 703 32 713 q 28 632 31 681 l 26 608 q 25 581 25 588 l 25 575 q 44 543 29 556 q 74 529 58 529 q 118 547 108 529 q 128 608 128 565 l 128 643 l 125 797 q 146 832 125 819 q 193 843 168 843 l 290 843 q 350 824 328 843 q 369 746 369 801 l 369 183 q 358 108 369 142 q 307 78 346 78 l 290 79 q 257 83 267 83 q 214 85 238 85 q 196 71 201 85 q 188 46 188 57 q 208 7 188 18 q 265 -6 229 -6 q 360 3 317 -1 q 382 4 371 3 q 413 6 407 6 l 421 6 q 550 1 474 6 q 629 -3 628 -3 q 653 13 642 -3 q 663 43 663 26 q 657 76 663 67 q 638 85 651 85 q 615 83 633 83 q 593 82 606 83 q 569 81 581 81 q 546 79 551 81 l 540 79 q 500 100 515 79 q 483 185 483 124 l 483 744 q 503 824 490 803 q 572 846 517 846 l 668 846 q 718 832 704 846 q 733 794 733 817 q 732 751 733 785 q 731 710 732 733 q 729 642 729 674 q 740 551 729 567 q 781 535 751 535 q 824 550 813 535 q 833 592 833 564 q 829 653 833 614 q 824 704 824 688 q 828 814 824 747 q 832 890 832 881 q 808 928 832 917 q 754 936 786 936 z "},"U":{"ha":1004,"x_min":14,"x_max":972,"o":"m 65 936 q 28 921 43 936 q 14 889 14 907 q 28 857 14 871 q 60 843 42 843 l 122 846 q 151 826 140 846 q 163 757 163 807 l 163 288 q 233 58 163 140 q 490 -25 303 -25 q 749 60 668 -25 q 831 288 831 146 q 829 467 831 375 q 826 588 828 526 q 826 621 826 611 q 828 710 826 681 q 831 757 828 749 q 840 811 831 781 q 876 843 851 843 q 907 842 892 843 q 933 840 922 840 q 965 856 957 840 q 972 890 972 872 q 956 926 972 917 q 914 935 939 935 q 835 931 896 935 q 765 926 772 926 l 613 933 q 554 926 572 933 q 536 883 536 921 q 544 853 536 864 q 564 840 551 840 q 619 842 593 840 q 669 843 646 843 q 701 818 689 843 q 714 757 714 792 l 714 247 q 653 119 714 168 q 499 71 592 71 q 344 114 400 71 q 279 247 290 157 l 279 757 q 294 811 279 776 q 322 843 310 843 l 426 840 q 457 856 442 840 q 469 886 469 871 q 453 924 469 914 q 408 935 435 935 q 308 931 378 935 q 221 925 247 925 l 65 936 z "},"V":{"ha":1004,"x_min":-7,"x_max":1014,"o":"m 54 933 q 11 922 31 933 q -7 885 -7 913 q 7 847 -7 861 q 38 833 21 833 l 122 839 q 160 813 142 839 q 190 749 176 789 l 436 49 q 472 -1 449 17 q 525 -18 496 -18 q 581 0 557 -18 q 615 49 604 15 l 840 719 q 879 814 865 789 q 919 840 893 840 l 928 840 l 960 836 q 1003 850 993 836 q 1014 886 1014 865 q 1004 917 1014 907 q 968 928 993 928 q 890 924 940 928 q 825 918 846 918 q 724 924 785 918 q 631 928 656 928 q 586 921 604 928 q 568 883 568 913 l 568 881 q 579 854 568 869 q 604 838 590 838 q 658 839 643 838 q 700 840 688 839 q 728 826 719 840 q 736 790 736 813 q 732 747 736 767 q 717 694 729 733 l 532 117 l 319 760 q 314 797 314 772 q 321 828 314 814 q 339 839 328 839 l 432 836 q 463 851 447 836 q 478 890 478 867 q 458 921 478 910 q 414 932 439 932 q 331 925 397 932 q 253 917 271 917 q 146 924 208 917 q 96 929 131 925 q 54 933 57 933 z "},"W":{"ha":1275,"x_min":-8,"x_max":1292,"o":"m 556 849 l 415 142 l 285 782 q 283 796 283 786 q 288 821 283 808 q 310 840 294 840 l 439 836 q 461 849 451 836 q 471 890 471 860 q 461 919 467 900 q 436 931 454 931 q 360 924 418 931 q 279 917 300 917 q 171 921 236 917 q 43 932 124 924 q 1 914 11 932 q -8 882 -8 900 l -8 874 q 4 844 -4 853 q 22 835 10 835 q 85 836 72 835 q 117 839 97 836 q 147 811 136 839 q 165 751 154 793 l 331 60 q 368 6 339 26 q 428 -17 394 -17 q 471 -3 453 -17 q 493 40 488 10 l 649 797 l 789 79 q 826 13 797 38 q 888 -14 853 -14 q 936 4 917 -14 q 965 60 957 24 l 1121 722 q 1151 822 1140 801 q 1186 843 1164 843 l 1256 839 q 1282 849 1272 839 q 1292 886 1292 858 q 1279 921 1292 907 q 1243 933 1265 933 l 1229 932 q 1157 922 1179 925 q 1082 917 1122 917 q 992 926 1051 917 q 907 935 928 935 q 847 926 871 935 q 824 889 824 915 q 839 854 824 869 q 883 839 854 839 l 968 846 q 1004 829 994 846 q 1014 781 1014 811 q 1013 747 1014 771 l 1011 740 q 1001 692 1006 710 l 885 131 l 743 860 q 714 922 733 904 q 650 942 694 942 q 586 917 610 942 q 556 849 564 890 z "},"X":{"ha":1079,"x_min":0,"x_max":1079,"o":"m 643 936 q 607 924 622 936 q 592 885 592 908 q 608 851 592 863 q 649 840 626 840 q 671 842 661 840 q 700 843 690 842 q 747 826 747 843 q 742 813 747 824 l 740 811 l 549 567 l 353 822 q 349 832 349 829 q 353 839 349 838 q 396 843 361 843 q 418 842 401 843 q 439 840 428 842 q 467 839 456 839 q 497 853 485 839 q 510 888 510 868 q 494 924 510 913 q 439 933 481 933 q 353 928 403 933 l 325 925 q 288 921 292 921 q 164 928 251 921 q 63 933 92 933 q 29 919 43 933 q 15 888 15 906 q 32 858 15 874 q 71 839 47 846 q 85 838 75 838 q 99 839 94 838 q 119 843 114 842 l 131 843 q 174 833 158 843 q 222 786 196 819 l 478 483 l 190 131 l 160 100 q 133 85 142 85 l 78 85 l 29 85 q 11 69 19 85 q 1 39 1 54 q 0 28 0 35 q 7 8 0 18 q 38 -6 17 -6 q 119 1 61 -6 q 203 8 178 8 q 338 1 247 8 q 472 -6 428 -6 q 497 8 489 -6 q 504 35 504 25 q 497 69 504 51 q 472 85 490 85 l 325 85 q 314 94 314 85 q 321 117 314 106 q 331 132 324 121 q 339 142 338 140 l 543 404 l 763 131 q 779 96 779 113 q 760 82 779 82 l 635 85 q 610 72 617 85 q 601 46 601 60 q 619 3 601 13 q 672 -8 638 -8 q 751 0 696 -8 q 763 1 757 1 q 824 7 814 7 q 954 1 878 7 q 1008 -3 988 -1 q 1047 -6 1044 -6 q 1069 10 1058 -6 q 1079 43 1079 24 q 1068 71 1079 56 q 1039 85 1056 85 l 971 85 q 931 108 954 85 q 879 165 906 133 l 615 483 l 863 786 q 869 796 867 792 q 897 826 889 818 q 928 840 911 840 l 1019 838 q 1047 849 1040 838 q 1053 885 1053 858 q 1042 918 1053 903 q 1010 933 1031 933 q 922 925 979 933 q 857 917 867 917 q 750 926 818 917 q 643 936 682 936 z "},"Y":{"ha":1042,"x_min":-6,"x_max":1043,"o":"m 629 936 q 589 924 604 936 q 574 885 574 911 q 585 857 574 875 q 610 840 596 840 l 726 846 q 749 832 749 846 q 747 824 749 829 l 746 821 q 742 814 746 818 q 740 811 740 813 l 526 447 l 313 811 q 307 828 307 818 q 333 844 307 844 l 419 843 q 451 857 439 843 q 464 890 464 872 q 403 932 464 932 l 256 919 q 154 924 224 919 q 53 928 86 928 q 13 919 24 928 q -6 876 1 911 l -6 874 q 1 853 -6 867 q 22 839 7 839 l 122 840 q 149 831 139 840 q 168 803 158 818 l 461 342 l 461 182 q 446 103 461 126 q 401 79 429 79 q 356 83 381 82 q 310 85 339 85 q 290 72 297 85 q 283 44 283 56 q 361 -6 283 -6 l 381 -4 q 449 1 419 -1 q 511 7 503 7 q 615 1 556 7 q 700 -6 688 -6 q 744 4 729 -6 q 760 43 760 15 q 753 72 760 56 q 732 85 747 85 l 640 79 q 594 110 611 79 q 578 185 578 139 l 578 350 l 854 782 q 894 838 879 822 q 924 847 903 847 q 939 846 933 847 q 946 843 940 846 q 958 840 954 842 q 983 838 972 838 q 1008 842 999 838 q 1032 850 1017 843 q 1043 886 1043 858 q 1033 921 1043 911 q 993 932 1022 932 q 911 926 957 932 q 883 924 896 925 q 851 919 854 919 q 742 928 817 919 q 629 936 667 936 z "},"Z":{"ha":849,"x_min":38,"x_max":796,"o":"m 125 933 q 86 910 99 933 q 74 843 74 885 l 76 803 q 69 713 76 775 q 63 629 63 650 q 74 572 63 597 q 111 547 85 547 q 154 563 139 547 q 168 632 168 576 l 165 707 q 194 810 165 775 q 315 843 224 843 l 651 843 l 71 151 q 38 64 38 113 q 53 17 38 36 q 97 -3 68 -3 l 367 0 l 743 -6 q 778 24 772 -6 q 783 74 783 47 l 782 122 q 786 215 782 160 q 789 264 788 246 q 789 279 789 278 q 782 349 789 318 q 746 375 774 375 q 694 353 703 375 q 686 285 686 331 l 692 204 q 660 110 692 138 q 501 82 628 82 l 157 82 l 765 797 q 796 871 796 832 q 775 917 796 899 q 711 933 754 933 l 125 933 z "},"[":{"ha":464,"x_min":140,"x_max":399,"o":"m 350 933 q 228 928 301 928 q 200 929 207 928 q 182 933 186 932 l 176 933 q 150 918 157 933 q 142 869 142 900 l 142 839 l 142 -74 q 140 -111 140 -89 q 147 -157 140 -140 q 174 -171 153 -171 l 176 -171 q 207 -167 196 -168 q 238 -165 218 -165 q 281 -167 247 -165 l 299 -168 l 318 -169 q 358 -171 350 -171 q 383 -153 374 -171 q 393 -119 393 -137 q 385 -97 393 -110 q 365 -85 374 -86 q 322 -86 336 -85 q 301 -89 310 -87 q 299 -89 299 -89 l 293 -89 q 263 -64 274 -89 q 250 -7 250 -37 l 250 722 q 256 807 250 768 q 285 849 263 849 l 290 849 q 322 847 307 849 q 369 843 358 843 q 392 857 383 843 q 399 890 399 871 q 385 921 399 908 q 350 933 371 933 z "},"\\":{"ha":846,"x_min":63,"x_max":740,"o":"m 63 888 l 665 -19 l 740 -19 l 149 888 l 63 888 z "},"]":{"ha":464,"x_min":47,"x_max":306,"o":"m 304 -74 l 304 839 l 304 869 q 296 918 304 900 q 269 933 289 933 l 264 933 q 246 929 260 932 q 218 928 239 928 q 96 933 144 928 q 61 921 76 933 q 47 890 47 908 q 56 857 47 869 q 76 843 61 843 q 124 847 89 843 q 156 849 139 849 l 161 849 q 190 807 185 849 q 196 722 196 768 l 196 -7 q 185 -64 196 -35 q 153 -89 175 -89 l 147 -89 q 143 -89 146 -89 q 125 -86 133 -87 q 81 -85 110 -85 q 63 -97 71 -86 q 53 -119 53 -108 q 63 -153 53 -137 q 88 -171 72 -171 q 129 -169 96 -171 l 147 -168 l 165 -167 q 208 -165 199 -165 q 239 -167 228 -165 q 269 -171 250 -168 l 272 -171 q 299 -157 293 -171 q 306 -111 306 -140 q 304 -74 306 -89 z "},"^":{"ha":483,"x_min":4,"x_max":479,"o":"m 228 968 l 17 817 q 4 799 4 808 q 15 786 4 790 q 29 782 22 782 q 35 783 33 782 q 138 824 54 790 q 190 843 139 824 q 242 863 232 860 q 338 828 290 846 l 401 803 l 444 786 q 461 782 456 782 q 479 803 479 782 q 472 817 479 810 l 258 968 q 243 976 249 976 q 228 968 239 976 z "},"_":{"ha":846,"x_min":0,"x_max":846,"o":"m 0 -82 l 0 -144 l 843 -144 l 846 -82 l 0 -82 z "},"`":{"ha":285,"x_min":4,"x_max":286,"o":"m 38 851 l 253 774 l 257 772 q 269 771 265 771 q 286 789 286 771 q 279 803 286 796 l 108 953 q 64 972 86 972 q 22 951 39 972 q 4 901 4 929 q 13 872 4 885 q 38 851 19 858 z "},"a":{"ha":811,"x_min":49,"x_max":800,"o":"m 364 714 q 175 665 257 714 q 93 521 93 615 q 121 458 93 478 q 181 440 147 440 q 224 453 201 440 q 247 478 247 464 l 247 529 q 233 547 247 538 q 219 564 219 557 q 274 611 236 596 q 358 625 310 625 q 468 594 433 625 q 503 513 503 564 q 390 404 503 428 q 167 358 267 378 q 49 186 49 315 q 119 38 49 94 q 283 -19 189 -19 q 417 7 358 -19 q 515 85 475 31 q 561 14 535 38 q 663 -11 589 -11 q 763 24 726 -11 q 800 117 800 60 l 800 199 q 788 256 800 238 q 753 272 774 272 q 711 228 711 272 l 711 160 q 701 94 711 115 q 663 71 690 71 q 629 88 644 71 q 613 131 613 103 l 613 472 q 565 636 613 560 q 364 714 517 714 m 501 361 l 501 261 q 450 128 501 174 q 296 81 399 81 q 196 113 232 81 q 158 192 158 144 q 308 297 158 275 q 501 361 458 321 z "},"b":{"ha":774,"x_min":0,"x_max":736,"o":"m 43 942 q 13 929 25 942 q 0 896 0 915 q 10 868 0 874 q 42 854 19 860 q 71 856 61 854 q 92 860 83 858 q 115 831 107 860 q 122 765 122 796 l 125 496 q 122 382 125 461 q 119 249 121 297 l 118 183 q 117 56 117 90 l 117 29 q 135 1 121 10 q 168 -7 150 -7 q 200 7 190 -7 q 211 43 211 21 l 208 85 q 293 7 244 35 q 415 -21 342 -21 q 654 92 574 -21 q 736 365 736 203 q 660 613 736 511 q 439 715 582 715 q 231 613 317 715 l 231 893 l 231 918 q 189 940 225 940 q 174 939 182 939 l 139 936 q 97 938 128 936 q 83 939 90 939 q 51 942 69 940 q 43 942 46 942 m 626 336 q 568 146 626 224 q 418 68 507 68 q 276 126 325 68 q 228 328 228 183 q 274 542 228 461 q 418 622 317 622 q 575 538 524 622 q 626 336 626 453 z "},"c":{"ha":694,"x_min":50,"x_max":651,"o":"m 382 714 q 143 610 238 714 q 50 342 50 504 q 140 76 50 178 q 372 -25 229 -25 q 569 51 489 -25 q 651 242 651 128 q 635 268 651 258 q 600 278 619 278 q 568 267 583 278 q 553 243 553 254 q 497 124 553 179 q 368 65 442 65 q 219 144 276 65 q 163 346 163 225 q 222 544 163 468 q 372 621 282 621 q 471 596 428 621 q 526 518 514 569 q 479 501 500 518 q 458 454 458 483 q 479 404 458 428 q 528 382 500 382 q 613 415 588 382 q 638 493 638 449 q 563 656 638 597 q 382 714 486 714 z "},"d":{"ha":811,"x_min":51,"x_max":817,"o":"m 481 942 q 438 935 454 942 q 422 903 422 926 q 428 868 422 881 q 447 854 433 854 q 488 856 472 854 q 529 860 511 858 q 531 860 531 860 q 556 835 546 860 q 567 749 567 806 l 567 610 q 524 653 554 625 q 469 692 503 671 q 361 710 419 710 q 196 663 268 710 q 85 526 121 614 q 51 347 51 435 q 140 79 51 178 q 376 -21 231 -21 q 492 3 438 -21 q 578 76 542 25 l 578 22 q 603 0 578 0 l 789 3 q 808 13 799 3 q 817 35 817 21 q 811 74 817 61 q 785 88 806 88 l 771 88 q 736 86 747 88 q 706 82 725 85 q 675 108 679 82 q 669 160 669 132 q 668 203 668 169 q 667 264 667 221 l 667 346 q 668 408 667 389 q 671 646 668 490 q 678 871 672 729 l 678 890 q 674 926 678 914 q 654 939 669 939 l 481 942 m 375 621 q 501 574 446 621 q 557 479 557 526 l 557 222 q 499 118 557 164 q 374 72 440 72 q 224 143 285 72 q 163 360 163 215 q 218 544 163 468 q 375 621 274 621 z "},"e":{"ha":732,"x_min":47,"x_max":683,"o":"m 388 711 q 135 597 222 711 q 47 321 47 483 q 128 79 47 176 q 361 -19 210 -19 q 576 43 485 -19 q 667 222 667 106 q 650 249 660 243 q 603 256 636 256 q 546 161 594 256 q 379 65 499 65 q 222 136 281 65 q 163 304 163 204 l 163 328 l 635 328 q 674 335 664 328 q 681 358 681 342 l 683 413 q 600 625 683 538 q 388 711 514 711 m 382 624 q 531 557 500 624 q 572 424 563 490 l 174 424 q 232 557 193 490 q 382 624 272 624 z "},"f":{"ha":581,"x_min":13,"x_max":590,"o":"m 401 960 q 235 901 300 960 q 171 735 171 844 l 171 715 q 154 689 171 689 l 74 689 q 38 675 50 689 q 24 640 24 661 q 74 592 24 592 l 144 592 l 147 590 q 158 586 154 589 q 165 564 165 582 l 165 179 q 158 115 165 147 q 133 86 153 86 l 46 86 q 19 68 28 86 q 13 40 13 51 q 14 28 13 32 q 43 4 18 8 q 67 3 50 4 q 89 1 83 3 q 118 -1 103 -1 q 156 0 146 -1 q 169 1 163 1 q 182 3 179 3 q 246 1 194 3 q 289 0 265 0 q 347 -1 318 -1 q 376 -3 369 -3 q 411 10 399 -3 q 424 40 424 22 q 422 51 424 43 q 421 58 421 54 q 410 78 417 71 q 393 83 404 83 l 303 83 q 278 106 282 83 q 274 176 274 129 l 274 564 q 282 582 274 572 q 299 592 288 592 l 401 592 q 444 640 444 592 q 435 675 444 661 q 401 689 425 689 l 293 689 q 278 701 281 689 q 274 735 274 714 q 313 840 274 804 q 407 878 353 878 q 442 874 425 878 q 472 854 460 867 q 469 846 472 853 q 465 838 468 844 q 461 821 461 828 q 479 778 461 788 q 524 767 497 767 q 576 782 561 767 q 590 838 590 796 q 531 929 590 899 q 401 960 472 960 z "},"g":{"ha":774,"x_min":49,"x_max":781,"o":"m 638 836 q 526 799 571 836 q 475 697 482 761 q 388 708 424 708 q 214 649 290 708 q 136 488 136 588 q 174 376 136 426 q 94 326 126 358 q 63 246 63 293 q 93 160 63 194 q 174 108 124 122 q 89 49 129 94 q 49 -31 49 4 q 136 -207 49 -156 q 386 -260 225 -260 q 631 -206 529 -260 q 733 -36 733 -151 q 596 143 733 108 q 233 176 458 176 q 176 201 193 189 q 160 244 160 213 q 178 285 160 268 q 214 301 197 301 q 288 281 235 294 q 310 274 307 275 q 403 258 363 258 q 585 314 513 258 q 657 483 657 368 q 629 586 657 535 q 553 669 603 632 q 572 738 560 718 q 629 760 585 760 q 657 754 644 760 q 686 732 669 749 q 665 714 671 721 q 657 692 657 704 q 669 654 657 669 q 700 638 681 638 q 764 663 746 638 q 781 719 781 686 q 738 799 781 765 q 638 836 694 831 m 399 618 q 507 582 460 618 q 551 481 551 544 q 506 386 551 426 q 396 344 460 344 q 294 376 335 344 q 250 440 254 408 q 246 483 246 472 q 290 581 246 543 q 399 618 335 618 m 396 79 q 556 50 483 79 q 628 -42 628 19 q 560 -133 628 -103 q 407 -167 492 -167 q 226 -143 300 -167 q 154 -46 154 -121 q 232 53 154 25 q 396 79 307 79 z "},"h":{"ha":888,"x_min":29,"x_max":889,"o":"m 89 939 q 49 924 60 939 q 36 888 36 910 q 46 860 36 869 q 68 849 57 849 l 146 854 l 149 854 q 165 840 157 854 q 179 803 172 828 l 182 740 l 182 222 l 182 194 q 172 110 182 139 q 133 82 164 82 l 128 82 q 103 86 118 85 q 71 88 93 88 q 29 32 29 88 q 49 6 29 17 q 88 -6 68 -6 q 219 0 142 0 l 399 -3 q 425 11 415 -3 q 435 54 435 22 q 415 76 435 68 q 378 83 394 83 l 344 83 q 329 79 333 81 l 326 79 q 297 99 304 79 q 290 156 290 122 l 290 174 l 290 432 q 350 569 290 518 q 507 621 407 621 q 618 561 583 621 q 651 424 651 501 l 651 185 q 646 111 651 139 q 621 82 640 82 l 618 82 q 579 86 593 85 q 538 88 565 88 q 514 76 525 88 q 504 51 504 67 q 514 11 504 25 q 550 -3 524 -3 q 618 1 576 -3 q 681 6 660 6 q 731 4 690 6 q 753 3 746 3 q 776 1 760 3 q 825 0 815 0 l 846 0 q 878 8 865 0 q 889 42 889 17 q 885 76 889 67 q 857 88 881 88 q 824 86 836 88 l 786 82 q 785 82 785 82 q 763 113 768 82 q 757 188 757 140 l 757 472 q 693 642 757 578 q 513 707 628 707 q 389 688 447 707 q 288 624 333 669 l 288 890 q 283 924 288 914 q 271 933 279 933 l 165 933 q 136 935 157 933 q 128 936 132 936 l 122 936 q 89 939 97 939 z "},"i":{"ha":426,"x_min":28,"x_max":424,"o":"m 88 689 q 32 642 32 689 q 42 617 32 628 q 60 603 50 603 l 151 606 q 174 586 165 606 q 182 526 182 568 l 182 149 q 174 104 182 125 q 151 82 165 82 q 108 86 124 85 q 68 88 93 88 q 39 78 44 88 q 29 49 35 72 l 28 44 q 35 17 28 33 q 57 0 42 0 q 117 1 85 0 q 165 4 138 3 q 214 6 193 4 q 294 1 240 6 q 382 -3 349 -3 q 410 13 394 -3 q 424 51 424 26 q 413 76 424 65 q 385 88 401 88 q 343 86 354 88 q 315 79 328 85 l 313 79 q 294 97 300 79 q 288 139 288 118 l 288 581 q 289 624 289 599 q 282 672 289 651 q 253 689 276 689 l 214 686 l 88 689 m 214 917 q 158 894 181 917 q 136 839 136 872 q 158 783 136 806 q 214 761 181 761 q 269 783 247 761 q 292 839 292 806 q 269 894 292 872 q 214 917 247 917 z "},"j":{"ha":385,"x_min":-174,"x_max":271,"o":"m 57 694 q 24 681 38 694 q 10 649 10 667 q 22 614 10 625 q 54 604 32 604 q 97 607 72 604 q 125 613 118 610 l 128 613 q 151 599 146 613 q 157 550 157 583 l 157 0 q 124 -137 157 -94 q 3 -183 90 -183 l -14 -183 q -36 -179 -25 -183 q -62 -160 -47 -175 q -47 -140 -54 -157 q -42 -112 -42 -128 q -61 -69 -42 -85 q -104 -57 -79 -57 q -153 -76 -133 -61 q -174 -131 -174 -93 q -119 -232 -174 -201 q 8 -264 -67 -264 q 206 -187 146 -264 q 265 0 265 -114 l 265 553 q 268 594 265 563 l 268 604 q 269 622 268 614 q 271 649 271 644 q 264 685 271 674 q 242 694 256 694 l 57 694 m 193 918 q 138 896 160 918 q 115 840 115 874 q 139 786 115 808 q 193 764 161 764 q 249 786 226 764 q 271 840 271 808 q 249 896 271 874 q 193 918 226 918 z "},"k":{"ha":888,"x_min":28,"x_max":876,"o":"m 228 936 l 68 936 q 42 921 53 936 q 29 888 29 904 q 36 858 29 869 q 57 849 42 849 q 100 851 69 849 q 125 854 106 851 q 144 857 135 856 q 169 838 161 857 q 176 783 176 814 l 176 168 q 168 107 176 135 q 140 79 160 79 l 138 79 q 97 83 113 82 q 54 85 82 85 q 38 72 44 85 q 28 46 31 61 q 39 18 28 33 q 57 0 49 4 l 382 0 q 418 22 413 0 q 424 49 424 40 q 396 85 424 85 l 361 85 q 343 83 353 83 q 324 82 332 83 q 293 106 304 82 q 282 157 282 131 l 282 239 l 410 353 l 569 142 q 594 107 586 119 q 601 88 601 93 q 600 82 601 83 q 561 86 585 82 q 543 88 550 88 q 529 89 532 89 q 501 78 517 89 q 486 43 486 65 q 496 14 486 25 q 518 0 504 0 q 588 4 544 0 q 619 6 606 6 q 643 7 638 7 q 715 3 664 7 q 794 -3 761 -3 q 856 3 838 -3 q 876 33 876 7 q 875 46 876 43 q 865 75 875 61 q 839 88 856 88 q 797 86 808 88 q 771 82 782 85 q 732 111 760 82 q 683 165 701 140 l 489 421 l 654 575 q 678 596 661 582 q 703 606 688 606 q 724 604 708 606 q 744 603 733 604 q 776 601 761 601 q 817 604 792 601 q 833 642 833 607 q 814 681 833 669 q 764 692 792 692 l 678 683 q 556 688 631 683 q 435 692 481 692 q 403 679 418 692 q 389 651 389 667 q 396 613 389 624 q 418 603 401 603 q 464 604 450 603 q 501 610 489 607 q 529 593 529 610 q 521 575 529 583 l 282 353 l 282 871 q 275 921 282 903 q 228 936 267 936 z "},"l":{"ha":426,"x_min":28,"x_max":422,"o":"m 265 942 l 176 935 l 107 940 q 54 932 78 940 q 32 897 32 924 q 43 864 32 875 q 63 851 54 851 q 99 853 71 851 l 114 854 q 144 857 132 856 l 149 857 q 175 832 169 857 q 182 771 182 801 l 182 144 q 131 85 182 85 l 119 85 l 54 88 q 28 43 28 88 q 42 11 28 21 q 71 0 56 0 l 194 3 l 361 -1 q 408 7 394 -1 q 422 47 422 15 q 415 75 422 61 q 388 88 410 88 l 342 88 q 318 83 325 85 l 315 83 q 297 104 304 83 q 290 149 290 129 l 290 697 l 294 875 q 296 901 296 886 q 289 931 296 921 q 265 942 279 938 z "},"m":{"ha":1275,"x_min":29,"x_max":1285,"o":"m 890 708 q 765 686 815 708 q 667 608 711 663 q 582 682 631 658 q 476 706 531 706 q 363 681 417 706 q 265 608 308 656 l 265 618 q 267 633 265 626 q 263 671 267 657 q 242 686 256 686 l 100 689 q 86 690 96 690 q 54 682 69 690 q 33 643 33 672 q 43 614 33 628 q 63 600 51 600 q 104 601 89 600 q 146 606 128 604 q 174 568 168 606 q 179 513 179 533 l 179 144 q 171 99 179 122 q 147 76 163 76 l 144 76 l 68 85 q 44 75 50 85 q 29 46 35 63 q 39 11 29 25 q 68 -3 47 -3 l 211 0 l 364 -3 q 394 8 381 -3 q 407 46 407 19 q 389 74 407 65 q 350 82 371 82 l 307 79 q 290 100 299 79 q 282 136 282 124 l 282 464 q 340 571 282 525 q 465 617 399 617 q 561 576 517 617 q 606 478 606 536 l 606 149 q 599 103 606 131 q 578 78 590 78 q 574 79 578 78 q 549 85 561 82 q 507 88 521 88 q 479 76 493 88 q 467 49 467 67 q 479 8 467 15 q 504 0 490 3 l 808 0 q 833 13 824 0 q 843 35 843 22 q 836 72 843 56 q 803 88 828 88 q 778 85 794 88 l 774 85 q 753 82 765 83 q 740 79 743 79 q 719 111 726 79 q 711 176 711 144 l 711 482 q 757 576 711 533 q 868 621 804 621 q 983 581 931 621 q 1033 472 1033 542 l 1033 163 q 1031 103 1033 128 q 1013 82 1029 82 l 994 82 q 967 83 978 82 q 931 82 938 83 q 911 71 918 82 q 903 46 903 61 q 917 14 903 28 q 947 -3 929 -3 l 1244 -3 q 1276 14 1267 -3 q 1285 40 1285 26 q 1283 51 1285 47 q 1265 78 1282 68 q 1226 85 1247 85 q 1196 83 1206 85 l 1167 79 l 1164 79 q 1144 107 1149 79 q 1139 174 1139 133 l 1139 489 q 1067 647 1139 585 q 890 708 993 708 z "},"n":{"ha":888,"x_min":26,"x_max":893,"o":"m 382 -3 q 414 13 403 -3 q 424 49 424 26 q 415 72 424 58 q 399 85 406 85 q 346 83 361 85 q 307 79 319 81 q 286 103 293 79 q 279 146 279 128 l 279 413 q 332 563 279 499 q 471 625 385 625 q 594 583 543 625 q 646 475 646 540 l 646 154 l 646 131 q 639 90 646 101 q 618 79 632 79 q 574 83 604 81 q 529 85 558 85 q 511 74 522 85 q 499 49 501 61 l 499 42 q 508 14 499 25 q 540 -1 521 -1 l 854 1 q 881 14 868 1 q 893 39 893 26 q 888 71 893 58 q 863 85 882 85 q 815 83 829 85 q 779 79 796 82 q 756 97 761 79 q 749 154 749 115 l 749 456 q 675 647 749 582 q 493 711 603 711 q 372 685 424 711 q 268 608 318 657 q 265 664 268 628 q 239 692 261 692 l 154 683 q 126 688 143 683 q 108 689 119 689 l 103 689 q 54 685 69 686 q 31 644 31 678 q 42 608 31 615 q 75 601 53 601 q 115 604 90 601 q 146 608 138 607 l 149 608 q 169 583 164 608 q 176 526 176 553 l 176 157 q 169 107 176 138 q 149 79 161 79 q 108 88 124 85 q 88 89 101 89 q 68 88 74 89 q 33 63 40 83 q 28 36 31 51 q 26 31 26 32 q 60 0 26 0 l 382 -3 z "},"o":{"ha":774,"x_min":49,"x_max":697,"o":"m 369 718 q 136 607 224 718 q 49 347 49 494 q 135 92 49 201 q 369 -18 219 -18 q 618 86 538 -18 q 697 347 697 190 q 615 614 697 508 q 369 718 535 718 m 586 347 q 535 151 586 232 q 369 71 483 71 q 217 151 268 71 q 163 347 163 231 q 215 546 163 461 q 369 628 268 628 q 538 550 489 628 q 586 347 586 469 z "},"p":{"ha":849,"x_min":15,"x_max":786,"o":"m 496 714 q 367 690 425 714 q 271 610 310 665 l 271 651 q 261 681 271 671 q 233 689 251 689 l 68 692 q 28 642 28 692 q 35 614 28 628 q 54 600 40 600 q 110 603 85 600 q 139 608 131 606 q 161 594 156 608 q 165 546 165 581 l 165 -35 l 165 -61 q 158 -139 165 -108 q 125 -162 151 -162 l 119 -162 q 106 -160 114 -161 q 89 -157 94 -157 q 54 -154 67 -154 q 24 -169 35 -154 q 15 -193 15 -182 q 17 -201 15 -199 q 28 -233 17 -222 q 54 -244 39 -244 q 114 -243 71 -244 q 157 -242 154 -242 q 228 -239 194 -240 q 232 -239 231 -239 l 339 -247 q 397 -235 383 -247 q 411 -201 411 -225 q 403 -172 411 -185 q 364 -157 392 -158 q 335 -158 356 -157 q 326 -160 331 -160 q 306 -162 317 -161 q 301 -162 303 -162 l 299 -162 q 278 -136 282 -162 q 271 -79 272 -101 l 271 63 q 360 3 314 24 q 456 -19 404 -19 q 704 86 621 -19 q 786 346 786 192 q 713 607 786 497 q 496 714 639 714 m 489 624 q 628 549 585 624 q 671 360 671 472 q 625 151 671 238 q 461 67 579 67 q 322 136 371 67 q 274 300 274 206 q 329 560 274 496 q 489 624 385 624 z "},"q":{"ha":811,"x_min":51,"x_max":821,"o":"m 364 711 q 138 618 222 711 q 51 356 51 524 q 136 89 51 199 q 368 -21 221 -21 q 474 -1 422 -21 q 561 57 522 18 l 561 -122 q 547 -154 561 -144 q 515 -164 533 -164 q 497 -162 501 -164 q 489 -161 494 -162 l 486 -160 l 458 -157 q 426 -174 442 -157 q 414 -203 414 -189 q 415 -211 414 -208 q 428 -239 419 -231 q 456 -247 436 -247 q 542 -244 483 -247 l 546 -244 l 568 -243 q 619 -242 608 -242 q 699 -243 663 -242 q 779 -244 733 -244 q 819 -208 808 -244 q 821 -199 821 -206 q 817 -176 821 -189 q 794 -160 811 -160 q 753 -161 768 -160 q 708 -165 722 -164 q 681 -151 689 -165 q 672 -103 672 -137 q 668 118 671 -3 q 667 350 667 199 l 669 600 l 669 617 q 660 683 669 668 q 629 700 650 700 q 597 688 614 700 q 581 663 581 675 l 581 613 q 482 688 533 664 q 364 711 431 711 m 364 621 q 519 538 478 621 q 560 324 560 450 q 518 140 560 210 q 364 69 476 69 q 218 153 271 69 q 165 356 165 238 q 218 542 165 461 q 364 621 271 621 z "},"r":{"ha":657,"x_min":14,"x_max":663,"o":"m 444 717 q 338 694 381 717 q 253 613 292 671 l 253 625 q 254 642 253 635 q 250 676 254 663 q 233 689 246 689 l 49 689 q 24 675 33 689 q 14 640 14 661 q 26 614 14 625 q 49 603 38 603 q 94 604 76 603 q 136 606 113 606 q 158 596 153 606 q 163 560 163 586 l 163 528 l 163 144 q 157 99 163 114 q 132 82 151 82 l 129 82 q 115 85 122 83 q 90 88 99 86 q 57 89 75 89 q 26 76 38 89 q 14 40 14 63 q 26 11 14 22 q 54 0 40 0 l 256 6 l 372 0 q 408 14 400 7 q 418 54 418 19 q 406 81 418 71 q 376 89 392 89 q 332 88 344 89 q 307 83 322 86 l 299 82 l 296 82 q 274 97 281 82 q 268 138 268 110 l 268 350 q 311 569 268 514 q 432 625 353 625 q 526 599 500 625 q 553 529 553 572 l 550 501 l 521 504 q 490 492 506 504 q 476 451 476 478 q 532 385 476 385 q 622 417 586 385 q 663 507 656 447 q 599 657 663 597 q 444 717 535 717 z "},"s":{"ha":694,"x_min":65,"x_max":635,"o":"m 556 726 q 517 713 522 726 q 510 669 510 696 q 438 707 474 693 q 358 719 400 719 q 167 658 247 719 q 88 492 88 596 q 128 386 88 431 q 196 336 168 342 l 447 282 q 508 246 485 274 q 531 179 531 218 q 518 139 531 168 q 465 86 507 110 q 367 64 425 64 q 221 99 285 64 q 156 201 156 135 l 154 253 q 140 279 154 269 q 108 290 125 290 q 78 275 89 290 q 65 236 65 258 q 71 175 65 210 q 76 108 76 140 q 68 43 74 88 q 67 22 67 26 q 65 10 65 11 l 65 6 q 83 -29 69 -17 q 104 -37 92 -37 q 115 -36 111 -37 q 150 -29 133 -36 q 163 -6 163 -24 l 163 35 q 200 15 179 26 q 238 -4 221 4 q 353 -24 283 -24 q 556 31 476 -24 q 635 197 635 85 q 522 364 635 318 q 349 403 464 376 q 308 413 340 406 q 199 511 199 438 q 239 594 199 558 q 339 631 279 631 q 461 597 415 631 q 507 478 507 563 q 521 449 507 463 q 553 433 536 433 q 588 443 578 433 q 597 467 597 451 l 597 703 q 585 722 597 717 q 556 726 571 726 z "},"t":{"ha":540,"x_min":1,"x_max":524,"o":"m 125 865 l 125 722 q 119 699 125 703 q 100 694 114 694 l 46 694 q 14 682 25 694 q 1 647 1 668 q 15 611 1 625 q 51 594 28 594 l 94 594 q 118 586 113 594 q 122 564 122 578 l 122 149 q 185 35 122 79 q 325 -8 244 -8 q 472 47 421 -8 q 524 257 524 101 l 524 286 q 515 328 524 314 q 478 342 507 342 q 443 333 458 342 q 428 297 428 322 q 429 285 429 292 q 431 261 431 275 q 411 135 431 193 q 328 76 390 76 q 251 119 274 76 q 228 225 228 165 l 228 564 l 228 585 q 247 594 229 594 l 401 594 q 440 611 426 594 q 454 649 454 625 q 443 682 454 668 q 404 694 431 694 l 253 694 q 228 717 228 694 l 228 865 q 214 900 228 888 q 178 911 199 911 q 140 899 156 911 q 125 865 125 886 z "},"u":{"ha":849,"x_min":-1,"x_max":857,"o":"m 51 694 q 11 679 26 694 q -1 650 -1 667 q 0 638 -1 642 q 43 603 8 603 q 76 604 64 603 q 108 608 99 607 q 136 590 131 608 q 143 533 143 569 l 143 507 q 142 483 142 499 l 142 208 q 206 43 142 107 q 388 -22 271 -22 q 519 4 461 -22 q 615 79 581 29 l 615 35 q 657 0 615 0 l 826 0 q 857 51 857 0 q 846 79 857 68 q 818 89 836 89 q 785 88 794 89 q 768 83 778 86 q 763 82 763 82 l 757 82 q 717 128 724 82 q 708 365 708 178 l 715 653 l 715 676 q 697 690 714 690 l 515 692 q 493 679 501 692 q 483 647 483 665 q 493 617 483 628 q 518 603 501 603 l 583 603 q 601 574 596 599 q 606 515 606 549 l 606 372 q 575 149 606 224 q 414 69 544 69 q 286 124 331 69 q 242 328 242 176 l 242 672 q 231 688 242 679 q 210 694 219 694 q 186 693 203 694 q 179 692 183 692 q 172 690 175 692 q 149 689 156 689 q 118 690 143 689 q 96 692 107 692 q 63 694 75 693 q 51 694 53 694 z "},"v":{"ha":888,"x_min":0,"x_max":863,"o":"m 472 649 q 482 618 472 629 q 501 606 493 606 q 543 607 514 606 q 556 608 549 608 q 594 610 576 610 q 603 608 599 610 l 606 607 q 610 588 610 603 q 597 532 610 565 l 439 97 l 265 561 q 260 585 260 574 q 265 597 260 592 q 274 610 272 604 q 303 606 285 610 q 335 601 322 601 q 360 606 346 601 q 383 619 371 607 q 393 649 393 629 q 383 681 393 667 q 350 694 374 694 l 142 686 q 79 693 100 692 l 60 693 q 38 692 42 693 q 0 643 0 683 q 11 613 0 626 q 43 600 22 600 q 79 604 57 600 q 114 608 103 608 q 139 589 128 608 q 149 556 149 569 l 350 43 q 385 -4 363 13 q 435 -21 408 -21 q 518 43 493 -21 l 714 546 q 733 588 724 569 q 757 610 740 600 l 828 606 q 857 621 850 606 q 863 663 863 633 q 854 685 863 675 q 833 694 846 694 q 706 690 783 694 q 618 686 629 686 q 575 692 603 686 q 531 697 547 697 q 486 689 501 697 q 472 649 472 679 z "},"w":{"ha":1158,"x_min":3,"x_max":1140,"o":"m 475 567 l 367 79 l 263 499 q 257 535 263 514 q 251 569 251 556 q 260 594 251 585 q 288 610 265 603 q 318 608 297 610 q 328 607 324 607 q 357 603 351 603 q 396 611 382 603 q 411 649 411 618 q 399 679 411 671 q 339 692 383 688 l 139 683 q 111 686 131 685 q 79 689 90 689 q 61 690 69 689 q 35 692 40 692 q 13 679 21 692 q 3 646 3 668 q 13 611 3 622 q 46 599 24 599 q 60 600 56 599 l 76 606 l 114 606 q 131 589 125 606 q 139 564 138 572 l 274 63 q 308 4 285 22 q 363 -17 332 -17 q 424 13 397 -17 q 464 103 449 38 l 572 589 l 675 94 q 714 10 685 43 q 775 -21 740 -21 q 874 94 842 -21 l 968 453 q 1000 553 988 519 q 1033 606 1017 604 q 1069 604 1053 606 q 1107 603 1086 603 q 1135 615 1129 603 q 1140 649 1140 626 q 1129 678 1140 663 q 1103 692 1117 692 l 1019 686 l 879 686 l 776 692 q 746 678 760 692 q 732 643 732 664 q 738 614 732 624 q 765 603 744 603 q 815 606 782 603 l 824 606 q 843 607 835 607 q 871 608 865 608 q 888 596 882 600 q 893 575 893 590 q 879 499 893 553 l 776 79 l 672 567 q 632 664 657 635 q 571 696 604 696 q 515 661 542 696 q 475 567 490 628 z "},"x":{"ha":888,"x_min":11,"x_max":874,"o":"m 353 694 q 294 693 336 694 q 282 692 290 692 q 236 688 240 688 l 76 692 q 44 678 54 692 q 33 644 33 663 q 44 611 33 626 q 65 600 51 600 q 76 601 72 600 l 122 608 q 156 606 144 608 q 179 586 164 601 l 364 372 q 369 358 369 367 q 361 342 369 350 l 185 139 q 125 85 158 103 l 57 89 q 25 75 39 89 q 11 47 11 61 q 25 13 11 26 q 60 -3 38 -3 q 140 1 86 -3 q 221 6 194 6 l 325 -3 q 390 10 376 -3 q 403 49 403 21 q 390 75 403 61 q 360 88 376 88 q 340 86 356 88 q 329 85 335 85 q 318 83 324 85 q 299 82 303 82 q 274 88 283 82 q 275 93 275 90 q 276 97 276 96 q 282 106 279 103 l 426 268 q 439 276 435 276 q 453 268 444 276 l 594 106 q 599 100 597 103 q 601 94 600 97 q 604 88 603 90 q 585 76 604 76 q 546 81 574 76 q 504 85 519 85 q 486 72 493 85 q 478 39 478 58 q 486 13 478 24 q 513 0 494 0 l 686 4 l 803 -3 q 853 10 839 -3 q 868 42 868 22 q 861 76 868 60 q 831 89 856 89 q 792 88 806 89 q 772 86 782 86 q 751 85 756 85 q 742 90 747 85 q 724 106 731 99 l 524 342 q 517 361 517 349 q 524 379 517 372 l 667 546 q 746 608 700 586 q 771 607 751 608 l 781 606 l 790 604 q 815 603 811 603 q 856 613 838 603 q 874 643 874 622 q 868 674 874 657 q 825 692 863 692 l 793 692 q 763 690 785 692 l 754 689 l 696 689 l 526 692 q 493 679 504 692 q 483 646 483 668 q 497 611 483 621 q 532 600 511 600 q 561 604 543 600 q 589 608 581 608 q 578 586 589 597 l 464 456 q 443 446 456 446 q 426 456 432 446 l 318 586 l 307 610 q 333 606 326 606 q 356 604 339 604 q 401 618 392 604 q 410 660 410 633 q 392 683 410 671 q 353 694 372 694 z "},"y":{"ha":869,"x_min":-28,"x_max":857,"o":"m 336 697 q 240 692 297 697 q 149 686 183 686 l 132 689 q 103 693 113 692 l 100 693 q 67 696 78 696 q 53 694 60 694 q 13 681 25 693 q 0 646 0 668 q 13 615 0 626 q 39 604 26 604 q 93 607 60 604 q 121 608 110 608 q 147 585 136 608 q 154 567 151 575 q 160 550 158 554 l 358 40 q 367 -6 367 18 q 304 -131 367 -75 q 175 -187 239 -187 q 126 -181 147 -187 q 94 -154 104 -174 q 122 -135 106 -151 q 136 -100 136 -121 q 113 -51 136 -71 q 58 -33 90 -33 q -1 -60 24 -33 q -28 -131 -28 -86 q 38 -239 -28 -199 q 176 -279 103 -279 q 333 -228 265 -279 q 443 -106 401 -176 q 526 68 483 -36 l 717 543 q 733 582 724 564 q 760 610 743 600 l 822 606 l 842 606 q 857 647 857 613 q 844 685 857 675 q 794 694 831 694 q 749 690 776 694 q 703 686 722 686 q 596 690 657 686 q 529 694 536 694 q 497 681 511 694 q 483 650 483 667 q 482 639 482 646 q 486 621 482 629 q 510 606 493 606 q 565 607 551 606 q 586 608 575 608 q 607 610 597 608 q 619 593 619 610 q 618 579 619 583 q 610 556 614 567 l 439 94 l 282 564 q 274 593 274 581 q 285 610 274 607 l 343 608 q 386 619 372 608 q 399 646 399 631 q 336 697 399 697 z "},"z":{"ha":732,"x_min":46,"x_max":674,"o":"m 146 700 q 103 694 119 700 q 83 669 83 688 l 83 450 q 96 429 83 438 q 119 419 107 419 q 158 429 144 419 q 172 460 172 438 q 174 478 174 468 q 168 524 174 500 q 163 567 163 547 q 192 597 167 592 q 261 603 213 603 l 532 603 l 82 144 q 46 71 46 108 q 68 21 46 39 q 125 0 89 0 l 626 0 q 654 6 643 3 q 668 35 668 10 q 667 61 667 43 l 667 79 l 667 97 l 667 100 q 671 175 667 128 q 672 213 672 204 q 674 233 674 231 l 674 263 q 665 301 674 288 q 631 314 657 314 q 599 304 613 314 q 583 279 583 293 l 583 168 q 576 125 583 157 q 501 94 571 94 l 174 94 l 624 549 q 661 599 651 576 q 671 643 671 619 q 586 694 671 694 l 265 694 q 228 696 256 694 q 199 697 201 697 q 157 700 178 699 q 146 700 150 700 z "},"{":{"ha":461,"x_min":40,"x_max":415,"o":"m 142 831 l 142 521 q 118 438 142 468 q 40 390 94 407 q 142 261 142 372 l 142 -46 q 197 -136 142 -107 q 325 -167 253 -167 q 393 -161 372 -167 q 415 -131 415 -157 q 339 -94 415 -108 q 263 -43 263 -81 l 263 263 q 240 338 263 306 q 179 390 217 372 q 239 443 215 406 q 263 518 263 482 l 263 825 q 339 874 263 861 q 415 914 415 886 q 390 946 415 940 q 321 953 363 953 q 179 910 214 953 q 142 831 142 867 z "},"|":{"ha":375,"x_min":121,"x_max":235,"o":"m 121 908 l 121 -146 l 235 -146 l 235 908 l 121 908 z "},"}":{"ha":461,"x_min":26,"x_max":401,"o":"m 401 390 q 325 438 347 408 q 300 521 300 467 l 300 831 q 264 910 300 865 q 121 953 226 953 q 51 946 79 953 q 26 914 26 940 q 103 874 26 886 q 179 825 179 861 l 179 518 q 204 443 179 481 q 263 390 226 406 q 201 338 226 372 q 179 263 179 306 l 179 -43 q 103 -94 179 -81 q 26 -131 26 -108 q 50 -161 26 -157 q 117 -167 71 -167 q 244 -136 189 -167 q 300 -46 300 -107 l 300 261 q 401 390 300 372 z "},"~":{"ha":436,"x_min":1,"x_max":439,"o":"m 133 489 q 40 456 81 489 q 1 368 1 421 q 22 342 1 349 q 49 369 38 357 q 97 386 65 386 q 203 361 122 386 q 301 336 282 336 q 393 363 349 336 q 439 453 439 390 q 424 478 439 478 q 389 447 407 460 q 353 435 371 435 q 228 463 311 435 q 133 489 149 489 z "},"‚":{"ha":458,"x_min":144,"x_max":346,"o":"m 242 185 q 175 163 203 185 q 144 97 144 140 q 206 18 144 31 q 267 -1 267 6 q 240 -121 267 -76 q 182 -197 201 -171 q 196 -217 182 -217 q 299 -128 251 -217 q 346 53 346 -39 q 322 142 346 106 q 242 185 297 176 z "},"ƒ":{"ha":581,"x_min":-151,"x_max":590,"o":"m 165 501 l 165 -57 q 126 -162 165 -126 q 32 -200 88 -200 q -3 -194 10 -200 q -33 -176 -19 -190 q -22 -143 -22 -151 q -40 -100 -22 -112 q -85 -89 -60 -89 q -137 -104 -122 -89 q -151 -160 -151 -118 q -92 -251 -151 -221 q 38 -282 -32 -282 q 208 -222 143 -282 q 274 -57 274 -164 l 274 176 l 274 564 q 282 582 274 572 q 299 592 290 592 l 401 592 q 444 640 444 592 q 433 675 444 660 q 401 689 421 689 l 293 689 q 278 703 279 689 q 274 735 274 715 q 313 840 274 804 q 407 878 353 878 q 443 874 426 878 q 472 854 460 867 q 461 821 461 829 q 479 779 461 789 q 524 767 499 767 q 576 782 561 767 q 590 838 590 796 q 531 929 590 899 q 401 960 472 960 q 235 901 297 960 q 171 735 171 842 l 171 717 q 169 699 171 704 q 154 689 168 689 l 74 689 q 38 675 50 689 q 24 640 24 661 q 74 592 24 592 l 144 592 q 161 583 157 590 q 165 564 165 578 l 165 501 z "},"„":{"ha":750,"x_min":144,"x_max":596,"o":"m 596 53 q 571 142 596 107 q 492 185 546 176 q 424 163 450 185 q 394 97 394 140 q 456 17 394 29 q 517 -1 517 4 q 475 -143 517 -92 q 432 -197 432 -194 q 446 -217 432 -217 q 549 -126 500 -217 q 596 53 596 -37 m 346 53 q 321 142 346 107 q 242 185 296 176 q 174 163 200 185 q 144 97 144 140 q 206 17 144 29 q 267 -1 267 4 q 225 -143 267 -92 q 182 -197 182 -194 q 196 -217 182 -217 q 299 -126 250 -217 q 346 53 346 -37 z "},"…":{"ha":1246,"x_min":125,"x_max":1190,"o":"m 215 167 q 151 142 179 167 q 125 79 125 118 q 150 15 125 43 q 213 -11 175 -11 q 276 14 250 -11 q 303 76 303 39 q 278 140 303 114 q 215 167 254 167 m 649 167 q 585 142 613 167 q 558 79 558 118 q 583 15 558 43 q 646 -11 608 -11 q 710 14 683 -11 q 736 76 736 39 q 711 140 736 114 q 649 167 688 167 m 1103 167 q 1039 142 1067 167 q 1013 79 1013 118 q 1038 15 1013 43 q 1100 -11 1063 -11 q 1164 14 1138 -11 q 1190 76 1190 39 q 1165 140 1190 114 q 1103 167 1142 167 z "},"†":{"ha":888,"x_min":147,"x_max":739,"o":"m 444 950 q 401 928 424 950 q 379 875 379 906 q 393 781 379 831 q 418 681 406 729 q 383 688 401 683 q 303 703 326 699 q 200 714 236 714 q 165 699 183 714 q 147 651 147 682 q 163 611 147 629 q 201 594 178 594 q 315 606 256 594 l 375 619 q 418 629 406 626 q 392 549 408 603 l 390 543 q 376 450 376 497 l 379 415 l 432 -206 q 446 -233 432 -233 q 458 -206 458 -233 l 510 415 l 513 447 q 508 507 513 486 q 478 610 506 519 q 472 629 475 619 q 529 617 504 622 q 610 599 600 600 q 669 596 635 596 q 719 608 699 596 q 739 658 739 621 q 724 697 739 682 q 668 713 708 713 q 574 701 632 713 q 469 681 518 692 q 494 792 485 742 q 507 878 507 850 q 489 928 507 906 q 444 950 471 950 z "},"‡":{"ha":888,"x_min":149,"x_max":738,"o":"m 444 950 q 401 922 417 950 q 386 858 386 892 q 400 776 386 814 q 426 700 417 724 q 360 719 417 703 q 347 724 349 724 q 235 742 288 742 q 174 722 200 742 q 149 678 149 704 q 175 636 150 654 q 236 619 199 619 q 335 632 288 619 l 356 639 q 426 660 406 654 q 403 606 408 622 q 393 558 393 585 q 406 504 393 528 q 426 464 417 479 l 236 508 q 175 493 201 508 q 149 447 149 476 q 176 406 149 425 q 235 388 203 388 q 335 401 289 388 q 426 426 383 414 q 411 401 419 415 q 396 376 403 388 q 382 318 382 350 l 382 293 l 426 -201 q 446 -231 431 -231 q 464 -201 463 -231 l 507 293 l 507 322 q 488 381 506 350 q 478 397 486 382 q 461 426 464 421 q 564 401 504 415 q 660 388 614 388 q 717 401 697 388 q 738 447 738 414 q 713 492 738 475 q 653 507 686 507 q 547 492 601 507 q 510 479 533 488 q 461 464 475 468 q 488 510 478 488 q 496 558 496 531 q 488 606 496 585 q 461 660 478 631 q 519 646 476 656 q 593 628 582 629 q 646 622 611 622 q 713 638 685 622 q 738 686 738 653 q 708 728 738 714 q 643 742 681 742 q 547 728 593 742 q 461 700 481 706 q 469 721 465 713 q 492 785 486 767 q 501 860 501 815 q 489 924 501 897 q 444 950 476 950 z "},"ˆ":{"ha":483,"x_min":4,"x_max":479,"o":"m 472 817 l 258 968 q 243 976 249 976 q 228 968 239 976 l 17 817 q 4 799 4 807 q 15 786 4 790 q 29 782 22 782 q 35 783 33 782 q 97 808 60 793 q 143 826 119 817 q 228 857 171 838 q 242 863 235 860 q 253 858 243 863 q 333 828 293 843 q 435 790 422 794 l 444 788 q 457 783 456 783 q 479 803 479 783 q 472 817 479 810 z "},"‰":{"ha":1725,"x_min":43,"x_max":1664,"o":"m 863 953 q 854 947 858 953 q 851 943 853 946 q 849 939 850 940 l 271 14 q 267 0 267 4 q 279 -6 267 -6 l 328 -6 q 344 6 333 -6 l 925 939 q 919 953 925 953 l 863 953 m 285 947 q 110 858 176 947 q 43 643 43 769 q 106 422 43 500 q 285 346 168 346 q 451 422 388 346 q 514 643 514 500 q 458 867 514 786 q 285 947 403 947 m 285 882 q 397 815 363 882 q 432 643 432 749 q 390 482 432 553 q 285 411 347 411 q 164 479 207 411 q 119 643 119 547 q 167 808 119 735 q 285 882 213 882 m 922 590 q 746 503 811 590 q 681 286 681 414 q 743 65 681 143 q 922 -11 806 -11 q 1090 61 1028 -11 q 1151 286 1151 135 q 1094 506 1151 419 q 922 590 1039 590 m 922 525 q 1035 453 1000 525 q 1069 286 1069 382 q 1035 124 1069 192 q 922 54 999 54 q 801 122 844 54 q 757 286 757 190 q 804 451 757 378 q 922 525 850 525 m 1435 590 q 1258 503 1324 590 q 1193 286 1193 414 q 1256 65 1193 143 q 1435 -11 1318 -11 q 1603 61 1540 -11 q 1664 286 1664 135 q 1607 506 1664 419 q 1435 590 1551 590 m 1435 525 q 1547 453 1513 525 q 1582 286 1582 382 q 1547 124 1582 192 q 1435 54 1511 54 q 1314 122 1357 54 q 1269 286 1269 190 q 1317 451 1269 378 q 1435 525 1363 525 z "},"Š":{"ha":774,"x_min":49,"x_max":743,"o":"m 390 957 q 161 882 256 957 q 68 688 68 806 q 140 522 68 582 q 304 440 214 458 l 538 393 q 600 342 578 385 q 624 206 624 297 q 556 107 624 146 q 407 65 488 65 q 224 124 281 65 q 160 240 168 181 q 150 304 150 294 l 150 313 q 151 336 150 326 q 153 356 153 346 q 140 393 153 379 q 103 408 128 408 q 68 399 86 408 q 49 375 49 388 q 53 208 49 299 q 57 111 57 117 q 53 76 57 100 q 49 40 49 54 q 63 -14 49 -1 q 103 -26 78 -26 q 132 -15 114 -26 q 149 14 149 -6 l 146 71 q 264 -4 217 17 q 408 -24 310 -24 q 646 54 547 -24 q 743 263 743 131 q 683 424 743 356 q 538 510 622 493 l 333 549 q 229 596 268 561 q 190 692 190 629 q 249 815 190 768 q 381 864 308 864 q 529 829 463 864 q 597 729 597 794 q 596 690 597 704 q 592 646 594 676 q 603 581 592 603 q 656 558 613 558 q 692 581 683 558 q 700 643 700 601 q 699 661 700 647 q 697 671 697 665 l 696 679 q 694 700 694 696 q 699 797 694 738 q 703 897 703 858 q 689 933 703 919 q 651 947 675 947 q 624 935 635 947 q 613 903 613 921 l 613 874 q 510 938 565 915 q 390 957 456 957 m 628 1175 q 635 1189 635 1182 q 617 1210 635 1210 q 600 1206 611 1210 l 557 1189 l 493 1164 q 397 1129 446 1146 q 293 1169 376 1136 q 229 1194 260 1182 q 190 1208 199 1206 q 183 1210 189 1210 q 171 1207 179 1210 q 160 1193 160 1200 q 172 1175 160 1183 l 383 1024 q 399 1015 394 1015 q 414 1024 404 1015 l 628 1175 z "},"‹":{"ha":310,"x_min":25,"x_max":206,"o":"m 203 99 l 131 317 l 201 522 l 203 525 q 204 536 204 533 q 183 563 204 563 q 165 550 174 563 l 28 329 q 25 317 25 321 q 28 308 25 314 l 168 78 q 189 63 179 63 q 206 85 206 63 q 204 92 206 86 l 203 99 z "},"Œ":{"ha":1443,"x_min":47,"x_max":1372,"o":"m 1372 46 q 1365 129 1372 58 l 1365 133 q 1358 242 1358 206 q 1360 271 1358 251 q 1361 279 1361 275 l 1363 289 q 1364 314 1364 310 q 1350 365 1364 343 q 1313 388 1336 388 q 1278 376 1293 388 q 1263 350 1263 365 l 1265 258 l 1265 208 l 1265 192 q 1250 125 1265 153 q 1185 97 1235 97 l 889 88 q 858 110 868 88 q 847 163 847 135 l 847 356 q 858 414 847 392 q 904 435 869 435 l 989 435 q 1031 425 1015 435 q 1046 407 1046 414 l 1053 258 q 1067 236 1053 244 q 1094 228 1082 228 q 1140 250 1135 228 q 1146 304 1146 271 q 1135 393 1138 360 q 1131 460 1131 438 q 1136 539 1131 476 q 1146 668 1142 624 q 1135 707 1146 688 q 1099 725 1122 725 q 1063 701 1075 725 q 1049 649 1049 679 l 1054 567 q 1031 538 1054 553 q 981 524 1008 524 l 892 524 q 847 572 847 524 l 847 754 q 874 818 847 804 q 964 833 900 833 l 1176 828 q 1244 797 1231 828 q 1257 717 1257 767 l 1254 575 q 1269 546 1254 554 q 1304 538 1285 538 q 1346 560 1336 538 q 1356 617 1356 581 l 1350 683 q 1357 781 1350 715 q 1364 879 1364 846 q 1343 918 1364 906 q 1299 931 1322 931 q 1158 926 1286 931 q 907 917 993 921 q 761 925 874 917 q 601 932 636 932 q 458 957 539 957 q 154 814 260 957 q 47 464 47 669 q 151 113 47 253 q 446 -28 256 -28 q 600 -1 531 -28 l 608 -1 q 654 0 617 -1 l 700 1 q 883 11 822 7 q 1158 1 975 7 q 1307 -6 1293 -3 l 1313 -6 q 1346 6 1321 -6 q 1372 46 1372 19 m 729 469 q 660 189 729 307 q 446 72 592 72 q 243 185 313 72 q 172 449 172 296 q 242 744 172 621 q 456 865 311 865 q 665 749 601 865 q 729 469 729 633 z "},"‘":{"ha":458,"x_min":75,"x_max":276,"o":"m 276 658 q 215 739 276 726 q 154 757 154 751 q 197 900 154 849 l 218 926 q 239 953 239 951 q 225 972 239 972 q 122 882 171 972 q 75 703 75 793 q 100 615 75 651 q 179 571 125 579 q 249 593 221 571 q 276 658 276 617 z "},"’":{"ha":458,"x_min":118,"x_max":319,"o":"m 319 842 q 294 931 319 896 q 215 974 269 965 q 147 951 174 974 q 118 886 118 929 q 179 806 118 818 q 240 788 240 793 q 199 646 240 699 q 156 592 156 594 q 169 572 156 572 q 272 663 224 572 q 319 842 319 751 z "},"“":{"ha":639,"x_min":122,"x_max":576,"o":"m 576 658 q 515 739 576 726 q 454 757 454 751 q 497 900 454 849 l 518 926 q 539 953 539 951 q 525 972 539 972 q 422 882 471 972 q 375 703 375 793 q 400 615 375 651 q 479 571 425 579 q 549 593 521 571 q 576 658 576 617 m 324 658 q 263 739 324 726 q 201 757 201 751 q 244 900 201 849 l 265 926 q 286 953 286 951 q 272 972 286 972 q 169 882 218 972 q 122 703 122 793 q 147 615 122 651 q 226 571 172 579 q 296 593 268 571 q 324 658 324 617 z "},"”":{"ha":694,"x_min":140,"x_max":594,"o":"m 594 825 q 569 914 594 879 q 490 957 544 949 q 422 935 449 957 q 393 869 393 913 q 454 789 393 801 q 515 771 515 776 q 474 629 515 682 q 431 575 431 578 q 444 556 431 556 q 547 646 499 556 q 594 825 594 735 m 342 825 q 317 914 342 879 q 238 957 292 949 q 169 935 196 957 q 140 869 140 913 q 201 789 140 801 q 263 771 263 776 q 221 629 263 682 q 178 575 178 578 q 192 556 178 556 q 294 646 246 556 q 342 825 342 735 z "},"•":{"ha":271,"x_min":44,"x_max":231,"o":"m 138 508 q 72 482 99 508 q 44 415 44 454 q 72 350 44 378 q 138 324 99 324 q 204 350 178 324 q 231 415 231 376 q 204 482 231 456 q 138 508 178 508 z "},"–":{"ha":694,"x_min":57,"x_max":629,"o":"m 114 418 q 72 404 86 418 q 57 368 57 389 q 72 335 57 350 q 114 319 88 319 l 575 319 q 615 335 600 319 q 629 369 629 349 q 575 418 629 418 l 114 418 z "},"—":{"ha":1079,"x_min":58,"x_max":1017,"o":"m 114 418 q 74 404 88 418 q 58 367 58 389 q 72 333 58 347 q 114 319 86 319 l 965 319 q 1000 331 982 319 q 1017 367 1017 342 q 1003 403 1017 389 q 965 418 988 418 l 114 418 z "},"˜":{"ha":436,"x_min":1,"x_max":439,"o":"m 439 918 q 435 936 439 931 q 424 943 428 943 q 400 924 415 936 q 389 913 396 919 q 353 900 372 900 q 232 928 315 900 q 133 954 153 954 q 40 921 78 954 q 1 833 1 886 q 22 807 1 814 l 53 838 q 97 851 71 851 q 200 826 125 851 q 301 801 275 801 q 393 829 344 801 q 439 918 439 857 z "},"™":{"ha":1097,"x_min":11,"x_max":1075,"o":"m 1075 636 q 1063 657 1074 657 l 1015 656 q 993 671 1000 656 q 986 707 986 688 l 986 988 q 992 1019 986 1007 q 1007 1035 999 1035 l 1063 1035 q 1071 1043 1069 1035 q 1072 1051 1072 1047 q 1074 1060 1072 1056 q 1036 1079 1074 1079 q 1018 1078 1028 1079 q 976 1076 1008 1076 q 936 1078 950 1076 q 921 1079 932 1078 q 904 1081 910 1079 l 901 1081 q 888 1072 894 1081 q 878 1051 879 1058 l 769 676 l 671 1028 q 658 1064 664 1051 q 638 1079 650 1079 l 561 1076 l 494 1081 q 464 1057 464 1081 q 468 1043 464 1051 q 478 1035 472 1035 l 524 1036 q 553 985 553 1036 l 553 707 q 550 671 553 688 q 529 657 546 657 l 478 657 q 467 649 469 657 q 465 635 465 642 q 479 613 465 613 q 503 611 489 611 l 563 619 l 669 611 q 693 633 682 613 q 674 658 693 658 q 656 657 665 658 q 636 656 646 656 l 633 656 q 614 668 621 656 q 608 707 608 681 l 608 1032 l 611 1028 l 729 633 q 768 603 738 603 q 807 633 799 603 l 926 1028 q 932 1031 926 1031 l 932 714 q 925 669 929 688 q 908 658 921 658 l 867 658 q 851 650 858 658 q 846 636 846 644 l 846 633 q 858 613 846 615 q 879 611 865 611 q 917 615 888 611 l 925 617 q 963 618 953 618 l 1036 613 q 1065 618 1056 613 q 1075 636 1075 624 m 417 910 l 413 967 l 417 1060 q 406 1078 417 1074 q 378 1082 393 1082 l 211 1075 l 56 1079 q 39 1078 51 1079 q 31 1076 38 1078 q 13 1058 13 1072 q 15 1015 13 1046 l 15 1011 q 17 965 17 994 q 13 933 15 954 q 13 929 13 933 q 11 924 11 925 q 13 919 11 924 q 13 914 13 915 l 13 901 q 35 879 18 879 l 38 879 q 60 888 54 879 q 64 913 64 896 l 64 936 l 63 1013 q 74 1031 63 1024 q 97 1036 83 1036 l 146 1036 q 175 1025 164 1036 q 185 988 185 1015 l 185 706 q 179 669 185 682 q 154 653 174 653 q 139 657 143 656 l 107 657 q 99 650 100 654 l 94 638 q 133 611 94 611 l 143 613 q 174 617 163 615 q 179 618 175 617 q 185 618 183 618 q 192 617 188 618 q 196 617 194 617 l 211 617 l 315 613 q 328 622 322 613 q 332 636 332 631 q 331 644 331 640 q 329 651 329 650 q 319 657 328 657 q 299 656 315 656 q 274 654 289 654 l 271 654 q 249 669 256 654 q 242 707 242 686 l 242 986 q 253 1026 244 1015 q 286 1038 260 1038 l 335 1038 q 357 1032 347 1038 q 367 1011 367 1026 q 365 978 365 1001 l 365 935 q 371 890 365 896 q 390 882 378 882 q 417 910 417 882 z "},"š":{"ha":694,"x_min":65,"x_max":635,"o":"m 556 726 q 517 713 522 726 q 510 669 510 696 q 438 707 474 693 q 358 719 400 719 q 167 658 247 719 q 88 492 88 596 q 128 386 88 431 q 196 336 168 342 l 447 282 q 508 246 485 274 q 531 179 531 218 q 518 139 531 168 q 465 86 507 110 q 367 64 425 64 q 221 99 285 64 q 156 201 156 135 l 154 253 q 140 279 154 269 q 108 290 125 290 q 78 275 89 290 q 65 236 65 258 q 71 175 65 210 q 76 108 76 140 q 68 43 74 88 q 67 22 67 26 q 65 10 65 11 l 65 6 q 83 -29 69 -17 q 104 -37 92 -37 q 115 -36 111 -37 q 150 -29 133 -36 q 163 -6 163 -24 l 163 35 q 200 15 179 26 q 238 -4 221 4 q 353 -24 283 -24 q 556 31 476 -24 q 635 197 635 85 q 522 364 635 318 q 349 403 464 376 q 308 413 340 406 q 199 511 199 438 q 239 594 199 558 q 339 631 279 631 q 461 597 415 631 q 507 478 507 563 q 521 449 507 463 q 553 433 536 433 q 588 443 578 433 q 597 467 597 451 l 597 703 q 585 722 597 717 q 556 726 571 726 m 590 958 q 597 972 597 965 q 579 993 597 993 q 563 989 574 993 l 519 972 l 456 947 q 360 913 408 929 q 256 953 339 919 q 192 978 222 965 q 153 992 161 989 q 146 993 151 993 q 133 990 142 993 q 122 976 122 983 q 135 958 122 967 l 346 807 q 361 799 357 799 q 376 807 367 799 l 590 958 z "},"›":{"ha":310,"x_min":72,"x_max":253,"o":"m 250 308 q 253 318 253 314 q 251 326 253 322 l 250 329 l 113 550 q 94 563 104 563 q 74 538 74 563 q 75 528 74 535 q 76 522 75 526 l 147 317 l 75 99 l 74 92 q 72 85 72 86 q 89 63 72 63 q 110 78 99 63 l 250 308 z "},"œ":{"ha":1274,"x_min":49,"x_max":1221,"o":"m 644 569 q 536 679 606 639 q 369 718 468 718 q 135 607 221 718 q 49 347 49 496 q 135 90 49 200 q 369 -18 221 -18 q 535 18 467 -18 q 640 118 601 54 q 744 18 681 54 q 899 -19 810 -19 q 1114 44 1024 -19 q 1204 222 1204 107 q 1186 249 1197 243 q 1140 256 1172 256 q 1082 161 1131 256 q 917 65 1035 65 q 760 136 818 65 q 700 304 700 204 l 700 328 l 1172 328 q 1210 335 1200 328 q 1218 358 1218 342 l 1221 413 q 1136 625 1221 540 q 925 711 1050 711 q 760 674 829 711 q 644 569 688 636 m 586 347 q 535 151 586 232 q 369 71 483 71 q 217 151 268 71 q 163 347 163 231 q 215 546 163 461 q 369 628 268 628 q 539 550 490 628 q 586 347 586 472 m 1110 424 l 711 424 q 771 557 729 486 q 919 624 811 624 q 1071 557 1040 624 q 1110 424 1101 493 z "},"Ÿ":{"ha":1042,"x_min":-6,"x_max":1043,"o":"m 629 936 q 589 924 604 936 q 574 885 574 911 q 585 857 574 875 q 610 840 596 840 l 726 846 q 749 832 749 846 q 747 824 749 829 l 746 821 q 742 814 746 818 q 740 811 740 813 l 526 447 l 313 811 q 307 828 307 818 q 333 844 307 844 l 419 843 q 451 857 439 843 q 464 890 464 872 q 403 932 464 932 l 256 919 q 154 924 224 919 q 53 928 86 928 q 13 919 24 928 q -6 876 1 911 l -6 874 q 1 853 -6 867 q 22 839 7 839 l 122 840 q 149 831 139 840 q 168 803 158 818 l 461 342 l 461 182 q 446 103 461 126 q 401 79 429 79 q 356 83 381 82 q 310 85 339 85 q 290 72 297 85 q 283 44 283 56 q 361 -6 283 -6 l 381 -4 q 449 1 419 -1 q 511 7 503 7 q 615 1 556 7 q 700 -6 688 -6 q 744 4 729 -6 q 760 43 760 15 q 753 72 760 56 q 732 85 747 85 l 640 79 q 594 110 611 79 q 578 185 578 139 l 578 350 l 854 782 q 894 838 879 822 q 924 847 903 847 q 939 846 933 847 q 946 843 940 846 q 958 840 954 842 q 983 838 972 838 q 1008 842 999 838 q 1032 850 1017 843 q 1043 886 1043 858 q 1033 921 1043 911 q 993 932 1022 932 q 911 926 957 932 q 883 924 896 925 q 851 919 854 919 q 742 928 817 919 q 629 936 667 936 m 379 1231 q 310 1203 338 1231 q 281 1133 281 1174 q 310 1065 281 1093 q 379 1038 340 1038 q 449 1065 421 1038 q 476 1133 476 1093 q 449 1203 476 1174 q 379 1231 419 1231 m 672 1229 q 606 1201 633 1229 q 576 1133 576 1172 q 606 1067 576 1094 q 672 1038 633 1038 q 740 1065 713 1038 q 768 1133 768 1093 q 740 1201 768 1174 q 672 1229 713 1229 z "},"¡":{"ha":464,"x_min":135,"x_max":310,"o":"m 310 610 q 285 672 310 647 q 222 697 260 697 q 160 672 185 697 q 135 610 135 647 q 160 547 135 572 q 222 522 185 522 q 285 547 260 522 q 310 610 310 572 m 282 -206 l 282 394 q 265 446 282 428 q 226 464 249 464 q 188 446 201 464 q 171 393 171 428 l 171 -207 q 188 -258 171 -240 q 226 -278 204 -278 q 267 -258 250 -278 q 282 -206 282 -239 z "},"¢":{"ha":689,"x_min":86,"x_max":610,"o":"m 483 771 l 444 649 q 306 617 363 649 q 171 535 257 590 q 110 429 133 492 q 86 308 86 367 q 129 131 86 211 q 256 6 171 49 l 214 -131 l 268 -131 l 310 -8 q 343 -10 319 -8 q 360 -11 346 -10 q 376 -12 374 -12 q 410 -14 400 -14 q 539 6 478 -14 q 610 71 596 25 l 600 92 q 461 56 531 56 q 396 63 431 56 q 333 82 360 69 l 333 92 l 478 564 q 542 525 519 547 q 563 464 563 503 q 558 435 563 451 l 597 435 l 610 608 q 556 638 583 628 q 499 649 526 649 l 532 771 l 483 771 m 381 579 q 393 578 383 579 q 401 576 397 576 q 424 572 414 575 l 290 119 q 229 201 253 119 q 206 350 206 285 q 249 522 206 467 q 381 579 290 579 z "},"£":{"ha":1158,"x_min":46,"x_max":1058,"o":"m 615 968 q 407 900 488 968 q 325 699 325 831 q 332 639 325 669 q 353 575 339 608 l 193 575 q 164 561 174 575 q 153 528 153 546 q 167 500 153 508 q 196 492 179 492 l 399 492 q 460 376 438 429 q 482 269 482 324 q 478 228 482 249 q 351 279 408 261 q 229 299 286 299 q 104 251 160 299 q 46 133 46 204 q 108 19 46 64 q 247 -26 171 -26 q 397 6 322 -26 q 524 88 472 38 q 651 14 579 49 q 828 -24 725 -24 q 992 49 924 -24 q 1058 214 1058 119 q 997 364 1058 311 q 849 415 938 415 q 717 371 772 415 q 663 242 663 325 q 678 217 663 225 q 719 208 693 208 q 746 222 732 208 q 760 258 760 235 q 851 322 760 322 q 928 290 894 322 q 960 206 960 257 q 922 115 960 151 q 824 78 883 78 q 696 103 757 78 q 567 176 638 126 q 583 279 583 229 q 568 382 583 328 q 524 492 556 426 l 765 492 q 796 503 785 492 q 806 531 806 513 q 796 563 806 551 q 765 575 786 575 l 478 575 l 469 594 q 447 646 456 625 q 431 708 431 682 q 488 835 431 790 q 618 876 544 876 q 719 854 669 876 q 771 792 771 832 q 754 783 758 785 q 738 774 742 775 q 724 729 724 764 q 743 683 724 706 q 794 663 763 663 q 853 694 832 663 q 874 767 874 726 q 796 914 874 857 q 615 968 717 968 m 231 203 q 338 188 281 203 q 435 142 390 171 q 360 85 399 99 q 265 69 318 69 q 188 86 219 69 q 156 140 156 101 q 179 186 156 167 q 231 203 203 203 z "},"¤":{"ha":833,"x_min":26,"x_max":739,"o":"m 26 172 l 92 107 l 207 222 q 381 171 289 171 q 556 224 463 171 l 671 107 l 736 172 l 617 290 q 665 463 665 372 q 654 547 665 506 q 618 633 644 586 l 739 754 l 674 818 l 554 699 q 379 751 464 751 q 206 701 283 751 l 90 817 l 26 751 l 140 638 q 101 544 111 582 q 90 458 90 503 q 101 375 90 415 q 140 285 111 342 l 26 172 m 546 461 q 499 346 546 393 q 382 297 450 297 q 265 346 314 297 q 217 461 217 394 q 265 578 217 529 q 381 625 313 625 q 499 578 451 625 q 546 461 546 531 z "},"¥":{"ha":1042,"x_min":-7,"x_max":1043,"o":"m 578 332 l 683 332 q 758 378 758 332 q 739 414 758 399 q 683 429 719 429 l 628 429 l 854 782 q 875 815 863 794 q 906 843 889 836 l 1004 840 q 1033 854 1024 844 q 1043 890 1043 864 q 1031 924 1038 915 q 994 932 1022 932 q 936 926 982 932 q 851 919 876 919 q 756 928 839 919 q 629 936 671 936 q 582 921 589 936 q 574 886 575 904 q 572 881 572 885 q 583 858 572 874 q 610 840 597 840 l 726 846 q 749 832 749 846 q 740 811 749 826 l 526 447 l 313 811 q 307 829 307 817 q 308 840 307 833 l 310 843 l 403 839 q 446 854 426 839 q 464 890 464 868 q 450 919 464 906 q 421 935 435 935 l 256 919 q 176 924 251 919 q 50 928 100 928 q -7 878 -7 928 q -1 851 -7 863 q 22 839 6 839 l 139 839 l 406 429 l 376 429 q 321 415 339 429 q 301 381 301 400 q 321 346 301 361 q 376 332 339 332 l 461 332 l 461 260 l 376 260 q 319 246 338 260 q 299 211 299 232 q 376 163 299 163 l 460 160 q 450 115 456 142 q 401 79 439 79 l 396 79 q 379 81 390 79 l 372 82 q 335 85 347 85 l 325 85 q 308 83 314 85 q 292 72 297 81 q 283 49 283 63 q 303 3 283 11 q 361 -6 322 -6 q 440 -1 401 -6 q 519 7 478 1 q 593 1 532 7 q 700 -6 667 -6 q 743 6 724 -6 q 760 42 760 17 q 756 75 760 65 q 732 85 750 85 l 728 85 q 694 82 714 83 q 674 81 683 82 q 640 79 647 79 q 593 111 604 99 q 579 163 579 124 l 683 163 q 739 178 719 163 q 757 213 757 192 q 739 247 757 233 q 683 260 721 260 l 578 260 l 578 332 z "},"¦":{"ha":242,"x_min":72,"x_max":172,"o":"m 72 425 l 72 -6 l 172 -6 l 172 425 l 72 425 m 172 492 l 172 928 q 110 927 147 928 q 72 925 72 926 l 72 492 l 172 492 z "},"§":{"ha":888,"x_min":161,"x_max":736,"o":"m 472 957 q 294 907 368 957 q 221 754 221 854 q 293 606 221 669 q 207 508 239 558 q 175 406 175 457 q 281 257 175 321 q 479 153 346 222 q 586 18 586 90 q 546 -61 586 -33 q 450 -89 503 -89 q 364 -79 389 -89 q 279 -28 333 -69 l 282 -17 q 322 15 310 0 q 338 57 338 35 q 311 114 333 92 q 256 136 289 136 q 190 100 218 136 q 161 22 161 63 q 253 -124 161 -68 q 449 -181 346 -181 q 640 -121 576 -181 q 703 33 703 -62 q 618 201 703 129 q 704 299 672 250 q 736 401 736 350 q 724 463 736 436 q 675 510 708 490 l 442 649 q 371 700 399 672 q 340 761 340 726 q 381 838 340 806 q 471 868 419 868 q 553 860 515 868 q 618 825 593 849 q 583 799 592 808 q 572 761 572 785 q 593 717 572 733 q 640 699 611 699 q 697 725 674 699 q 721 785 721 751 q 643 908 721 860 q 472 957 565 957 m 361 558 q 535 471 457 513 q 621 393 621 422 q 607 313 621 340 q 550 242 593 285 q 468 282 514 260 q 386 321 422 303 q 293 435 293 372 q 314 496 293 463 q 361 558 329 522 z "},"¨":{"ha":407,"x_min":1,"x_max":404,"o":"m 82 951 q 25 928 49 951 q 1 871 1 904 q 25 814 1 838 q 82 792 47 792 q 139 815 115 792 q 163 871 163 839 q 139 928 163 904 q 82 951 115 951 m 325 950 q 269 926 293 950 q 246 871 246 903 q 269 815 246 839 q 325 792 293 792 q 381 815 357 792 q 404 871 404 839 q 381 926 404 903 q 325 950 357 950 z "},"©":{"ha":1008,"x_min":54,"x_max":960,"o":"m 960 560 q 828 881 960 747 q 507 1013 694 1013 q 188 881 319 1013 q 54 560 54 747 q 188 240 54 372 q 507 108 322 108 q 828 240 696 108 q 960 560 960 372 m 935 560 q 810 257 935 381 q 507 133 685 133 q 204 258 329 133 q 79 560 79 383 q 204 863 79 738 q 507 988 329 988 q 810 863 685 988 q 935 560 935 738 m 739 474 q 733 504 739 494 q 707 513 728 513 q 676 488 676 513 q 638 376 676 419 q 525 331 599 331 q 390 396 431 331 q 349 558 349 461 q 389 736 349 663 q 522 808 428 808 q 640 754 619 808 q 663 644 661 701 q 672 619 664 631 q 693 610 678 610 q 719 619 715 610 q 722 654 722 631 l 721 688 q 719 724 719 699 l 719 761 q 721 801 719 779 q 722 844 722 824 q 715 858 722 851 q 694 864 708 864 q 672 843 672 864 l 674 796 q 521 865 611 865 q 338 778 403 865 q 271 568 271 690 q 335 360 271 444 q 519 275 399 275 q 683 331 628 275 q 739 474 739 385 z "},"ª":{"ha":589,"x_min":67,"x_max":503,"o":"m 258 936 q 153 908 197 936 q 107 825 107 879 q 122 788 107 799 q 156 778 136 778 q 181 785 164 778 q 193 800 193 792 l 193 829 q 185 840 193 835 q 178 849 178 847 q 208 876 189 868 q 254 885 229 885 q 315 867 297 885 q 335 819 335 847 q 272 757 335 772 q 149 731 189 738 q 82 631 82 704 q 122 544 82 576 q 213 511 163 511 q 288 526 250 511 q 342 571 322 542 q 368 531 350 549 q 424 515 383 515 q 479 536 458 515 q 500 590 500 556 l 500 638 q 493 671 500 660 q 474 681 488 681 q 451 654 451 681 l 451 615 q 446 576 451 589 q 424 564 440 564 q 406 574 414 564 q 396 599 396 582 l 396 796 q 369 892 396 847 q 258 936 342 936 m 335 732 l 335 674 q 306 596 335 624 q 219 569 278 569 q 164 588 183 569 q 143 633 143 607 q 226 694 143 682 q 335 732 310 707 m 140 460 q 88 451 107 460 q 67 428 67 442 q 85 407 67 415 q 140 397 103 397 l 432 397 q 485 407 465 397 q 503 428 503 417 q 486 451 503 442 q 432 460 468 460 l 140 460 z "},"«":{"ha":464,"x_min":28,"x_max":379,"o":"m 165 606 l 28 385 l 28 364 l 168 133 q 193 119 176 119 q 207 135 207 119 q 203 154 207 142 l 131 372 l 201 578 q 203 585 203 579 q 199 604 203 594 q 182 619 192 619 q 165 606 174 619 m 336 606 l 199 385 q 196 375 196 379 q 197 368 196 372 q 199 364 199 365 l 336 133 q 363 118 347 118 q 379 136 379 118 q 375 154 379 144 l 301 372 l 372 578 q 374 588 374 581 q 372 603 374 592 l 371 606 q 354 621 364 621 q 336 606 347 621 z "},"¬":{"ha":633,"x_min":21,"x_max":554,"o":"m 21 597 l 21 517 l 456 517 l 456 319 l 554 319 l 554 596 l 21 597 z "},"®":{"ha":1008,"x_min":54,"x_max":960,"o":"m 960 560 q 828 881 960 747 q 507 1013 694 1013 q 188 881 319 1013 q 54 560 54 747 q 188 240 54 372 q 507 108 322 108 q 828 240 696 108 q 960 560 960 372 m 935 560 q 810 257 935 381 q 507 133 685 133 q 204 258 329 133 q 79 560 79 383 q 204 863 79 738 q 507 988 329 988 q 810 863 685 988 q 935 560 935 738 m 815 321 q 799 347 815 347 l 728 349 q 707 364 714 349 q 701 396 701 376 l 701 454 q 678 547 701 524 q 604 579 657 568 q 694 621 658 589 q 729 714 729 651 q 679 819 729 785 q 543 856 628 856 l 372 846 q 326 850 358 846 q 282 854 296 854 q 249 849 260 854 q 235 824 235 843 q 239 807 235 818 q 249 799 243 799 l 251 799 l 307 801 q 335 785 329 801 q 342 738 342 767 l 342 404 q 338 363 342 382 q 307 343 331 343 l 251 346 q 242 338 246 346 q 236 325 236 328 q 244 300 236 307 q 267 294 250 294 l 285 294 l 356 299 q 386 297 361 299 l 417 296 q 492 292 461 292 q 514 301 506 292 q 521 324 521 311 q 503 346 517 346 q 486 347 494 346 q 465 346 475 347 q 447 344 456 344 q 419 361 428 344 q 411 407 411 378 l 411 519 q 422 549 411 544 q 463 553 433 553 q 483 554 467 554 l 519 554 l 544 554 q 561 551 558 554 q 614 525 596 551 q 632 461 632 499 l 632 390 q 664 310 632 329 q 753 290 696 290 l 769 290 q 803 297 789 290 q 815 321 815 304 m 661 711 q 514 607 661 607 l 435 607 q 411 619 411 607 l 411 751 q 439 793 411 782 q 508 804 468 804 l 535 804 q 661 711 661 804 z "},"¯":{"ha":610,"x_min":0,"x_max":607,"o":"m 607 910 l 607 974 l 0 974 l 0 910 l 607 910 z "},"°":{"ha":217,"x_min":-1,"x_max":218,"o":"m 218 876 q 186 954 218 922 q 108 986 154 986 q 31 954 63 986 q -1 876 -1 922 q 32 800 -1 832 q 108 768 64 768 q 186 800 154 768 q 218 876 218 832 m 165 876 q 149 836 165 853 q 108 819 132 819 q 68 836 85 819 q 51 876 51 853 q 68 917 51 900 q 108 933 85 933 q 149 917 132 933 q 165 876 165 900 z "},"±":{"ha":603,"x_min":28,"x_max":569,"o":"m 261 139 l 189 139 q 149 125 161 139 q 135 89 135 111 q 150 56 135 71 q 189 40 165 40 l 406 40 q 446 54 432 40 q 458 89 458 69 q 444 125 458 111 q 406 139 431 139 l 339 139 l 339 375 l 569 375 l 569 453 l 339 453 l 339 681 l 261 681 l 261 453 l 28 453 l 28 375 l 261 375 l 261 139 z "},"²":{"ha":888,"x_min":42,"x_max":494,"o":"m 494 600 q 475 657 494 629 q 428 683 457 683 q 390 671 406 683 q 375 635 375 658 q 388 615 375 626 q 410 606 397 606 l 413 606 q 440 618 428 606 q 442 606 442 614 q 429 567 442 586 q 390 544 415 544 q 297 590 356 544 q 193 635 238 635 q 107 596 149 635 q 203 699 107 661 l 378 761 q 472 904 472 810 q 415 1024 472 978 q 275 1068 356 1068 q 129 1025 194 1068 q 61 915 61 982 q 124 839 61 839 q 163 856 149 839 q 176 897 176 869 q 164 915 176 906 q 157 919 157 919 q 136 931 144 928 q 179 989 136 967 q 271 1013 225 1013 q 363 983 324 1013 q 403 901 403 951 q 313 797 403 838 q 263 775 279 782 q 135 721 179 739 q 42 569 42 665 q 58 514 42 542 q 100 482 74 489 q 132 492 118 482 q 146 518 146 501 q 129 539 146 539 l 113 539 q 135 565 119 558 q 171 572 151 572 q 275 526 204 572 q 385 479 343 479 q 464 517 433 479 q 494 600 494 551 z "},"³":{"ha":888,"x_min":40,"x_max":488,"o":"m 488 694 q 436 813 488 769 q 308 857 383 857 l 457 1004 q 474 1024 469 1017 q 479 1042 479 1031 q 465 1064 479 1056 q 415 1071 449 1071 l 104 1071 q 71 1050 71 1071 l 71 915 q 96 882 71 882 q 124 913 124 882 l 124 932 l 124 960 q 128 989 124 979 q 143 1003 129 999 q 156 1006 147 1004 q 163 1008 161 1008 l 374 1008 l 208 838 q 193 814 193 822 q 194 808 193 810 q 217 794 200 794 q 251 799 221 794 q 263 800 257 799 q 299 801 288 801 q 392 772 365 801 q 419 693 419 743 q 375 594 419 638 q 260 553 332 553 q 157 583 204 553 q 108 654 108 613 q 111 656 110 654 q 115 661 114 658 q 149 664 135 661 q 163 678 157 665 q 167 704 167 689 q 150 736 167 726 q 121 747 131 747 q 64 724 88 747 q 40 653 40 699 q 104 540 40 582 q 250 499 169 499 q 424 554 360 499 q 488 694 488 608 z "},"´":{"ha":285,"x_min":3,"x_max":285,"o":"m 251 851 q 278 871 268 857 q 285 901 285 885 q 268 951 285 929 q 225 972 250 972 q 181 953 203 972 l 10 803 q 3 789 3 796 q 19 771 3 771 q 32 772 24 771 l 36 774 l 251 851 z "},"µ":{"ha":849,"x_min":-1,"x_max":857,"o":"m 142 483 l 140 -192 q 156 -251 140 -229 q 190 -274 169 -274 q 225 -251 211 -274 q 239 -192 239 -229 l 239 17 q 388 -22 299 -22 q 518 6 454 -22 q 615 79 581 33 l 615 35 q 657 0 615 0 l 826 0 q 857 51 857 0 q 846 79 857 68 q 818 89 835 89 q 792 86 810 89 l 788 86 q 763 82 769 85 l 754 82 q 713 136 715 82 q 708 365 708 197 l 715 653 q 714 682 715 675 q 697 690 713 690 l 515 692 q 492 679 500 692 q 483 647 483 665 q 493 617 483 628 q 518 603 501 603 l 583 603 q 601 576 597 599 q 606 515 606 554 l 606 372 q 574 149 606 229 q 414 69 543 69 q 286 122 331 69 q 242 328 242 175 l 242 672 q 232 686 242 676 q 210 694 222 694 q 185 693 201 694 q 178 692 181 692 l 169 690 q 149 689 154 689 q 114 690 140 689 l 100 692 l 86 693 q 51 694 60 694 q 11 679 26 694 q -1 649 -1 667 q 0 638 -1 642 q 43 603 8 603 q 58 604 50 604 q 74 606 71 606 q 101 607 83 606 q 108 608 104 608 q 136 590 131 608 q 143 535 143 569 q 142 508 142 525 l 142 483 z "},"¶":{"ha":854,"x_min":71,"x_max":735,"o":"m 342 -157 l 439 -157 l 439 850 l 565 850 l 565 -157 l 663 -157 l 663 850 l 735 850 l 735 926 l 383 926 q 157 871 242 926 q 71 682 71 814 q 147 504 71 564 q 342 443 224 443 l 342 -157 z "},"·":{"ha":296,"x_min":94,"x_max":217,"o":"m 154 550 q 113 532 129 550 q 94 488 94 514 q 114 446 94 463 q 158 429 133 429 q 200 447 183 429 q 217 490 217 467 q 199 533 217 515 q 154 550 181 550 z "},"¸":{"ha":347,"x_min":4,"x_max":347,"o":"m 122 0 q 96 -68 108 -40 q 83 -97 90 -82 q 74 -119 78 -110 q 72 -126 72 -121 q 83 -146 72 -135 q 113 -160 97 -160 q 154 -147 125 -160 q 199 -136 183 -136 q 235 -153 221 -136 q 249 -190 249 -171 q 224 -236 249 -226 q 163 -249 199 -249 q 108 -235 142 -249 q 40 -206 85 -225 q 15 -214 26 -206 q 4 -235 4 -222 q 57 -289 4 -265 q 172 -312 111 -312 q 292 -276 235 -312 q 347 -185 347 -242 q 304 -99 347 -125 q 196 -72 261 -72 l 154 -76 l 185 0 l 122 0 z "},"¹":{"ha":888,"x_min":42,"x_max":379,"o":"m 379 536 q 369 557 379 551 q 333 564 358 564 l 274 561 q 251 583 258 567 q 244 618 244 600 l 244 946 q 246 960 246 950 l 246 981 q 239 1050 246 1026 q 219 1071 231 1071 l 83 1071 q 60 1063 67 1071 q 51 1040 51 1053 q 69 1015 51 1015 l 147 1015 q 172 1000 168 1015 q 175 944 175 978 l 175 649 q 172 596 175 615 q 154 564 171 581 q 124 560 144 560 q 107 561 115 561 q 89 563 92 563 l 63 563 q 49 554 56 563 q 42 536 42 543 q 57 513 42 515 q 92 508 72 508 q 96 508 92 508 q 124 511 106 510 q 139 513 131 511 q 163 514 158 514 q 167 514 164 514 q 229 511 200 513 q 350 507 294 507 q 374 513 369 510 q 379 536 379 517 z "},"º":{"ha":531,"x_min":47,"x_max":464,"o":"m 257 936 q 111 872 165 936 q 56 724 56 808 q 110 576 56 639 q 257 514 164 514 q 414 574 363 514 q 464 724 464 635 q 413 876 464 817 q 257 936 361 936 m 393 724 q 361 611 393 658 q 257 564 331 564 q 161 611 194 564 q 128 724 128 656 q 160 838 128 789 q 257 883 193 883 q 363 839 331 883 q 393 724 393 796 m 115 453 q 67 443 85 453 q 47 419 47 432 q 65 396 47 406 q 115 388 82 388 l 389 388 q 438 397 419 388 q 456 419 456 407 q 440 443 456 432 q 389 453 422 453 l 115 453 z "},"»":{"ha":464,"x_min":89,"x_max":440,"o":"m 440 364 l 440 385 l 303 606 q 286 619 294 619 q 271 604 278 619 q 265 583 265 593 q 267 578 265 579 l 338 372 l 265 154 q 261 135 261 142 q 275 119 261 119 q 300 133 292 119 l 440 364 m 269 364 q 272 375 272 367 q 269 385 272 379 l 132 606 q 114 621 121 621 q 97 606 104 621 l 97 603 q 94 588 94 592 q 96 578 94 581 l 167 372 l 93 154 q 89 136 89 144 q 106 118 89 118 q 132 133 121 118 l 269 364 z "},"¼":{"ha":888,"x_min":28,"x_max":872,"o":"m 615 692 l 201 376 q 178 331 178 357 q 190 300 178 313 q 221 286 200 286 q 256 299 238 286 l 667 613 q 700 671 700 638 q 690 700 700 689 q 663 711 679 711 q 615 692 642 711 m 64 1065 q 36 1039 36 1065 q 51 1019 36 1019 l 117 1019 q 135 1007 129 1019 q 139 975 139 993 l 139 961 l 139 714 l 139 694 q 138 665 139 671 q 122 643 136 657 q 99 640 114 640 q 74 642 86 640 q 46 643 61 643 q 35 638 40 643 q 28 619 28 631 q 39 601 28 606 q 71 596 49 596 q 92 597 76 596 l 100 599 l 108 600 q 129 601 125 601 q 176 600 139 601 q 199 599 192 599 l 203 599 q 286 596 258 596 q 304 600 299 596 q 310 619 310 604 q 271 643 310 643 l 221 642 q 197 689 197 654 l 197 963 l 197 975 q 199 994 197 986 q 194 1044 199 1022 q 176 1065 189 1065 l 64 1065 m 663 417 l 489 189 q 479 164 479 175 q 513 140 479 140 l 717 140 l 717 99 q 713 63 717 78 q 694 43 706 44 l 644 43 q 621 24 621 43 l 621 18 q 638 1 621 4 q 663 -3 653 -3 q 706 1 678 -1 q 753 3 718 3 q 797 0 763 3 l 806 0 q 846 -4 838 -4 q 864 4 858 -4 q 869 21 869 10 q 846 43 869 43 l 794 43 q 779 61 782 46 q 775 99 775 76 l 775 140 l 850 140 q 872 165 872 140 q 850 189 872 189 l 775 189 l 775 426 q 742 474 775 474 q 663 417 707 474 m 722 413 l 717 189 l 550 189 l 722 413 z "},"½":{"ha":888,"x_min":28,"x_max":869,"o":"m 688 488 q 564 453 619 488 q 508 363 508 418 q 561 299 508 299 q 604 346 604 299 q 593 361 604 354 q 582 368 589 364 q 571 375 575 372 q 608 422 571 401 q 683 442 644 442 q 761 418 726 442 q 793 349 793 394 q 643 235 793 293 q 493 72 493 176 q 507 26 493 46 q 542 0 519 4 q 568 8 558 0 q 579 32 579 15 q 578 38 578 35 q 576 43 578 40 q 565 49 575 49 l 551 49 q 571 69 558 64 q 600 75 582 75 q 689 36 633 75 q 778 -3 744 -3 q 843 28 817 -3 q 869 97 869 58 q 854 144 869 121 q 814 169 838 168 q 769 129 769 169 q 781 111 769 119 q 799 103 789 103 l 801 103 q 824 113 813 103 q 825 101 825 108 q 815 71 825 85 q 782 51 803 51 q 707 89 753 51 q 618 126 661 126 q 546 96 576 126 q 699 204 546 156 q 851 353 851 253 q 804 451 851 414 q 688 488 756 488 m 64 1069 q 36 1043 36 1069 q 51 1024 36 1024 l 117 1024 q 135 1011 129 1024 q 139 979 139 997 l 139 965 l 139 718 l 139 699 q 138 669 139 675 q 122 647 136 661 q 99 644 114 644 q 74 646 86 644 q 46 647 61 647 q 35 642 40 647 q 28 624 28 635 q 39 606 28 610 q 71 600 49 600 q 92 601 76 600 l 100 603 l 108 604 q 129 606 125 606 q 176 604 139 606 q 199 603 192 603 l 203 603 q 286 600 258 600 q 304 604 299 600 q 310 624 310 608 q 271 647 310 647 l 221 646 q 197 693 197 658 l 197 967 l 197 979 q 199 999 197 990 q 194 1049 199 1026 q 176 1069 189 1069 l 64 1069 m 560 692 l 146 376 q 122 331 122 357 q 135 300 122 313 q 165 286 144 286 q 200 299 182 286 l 611 613 q 644 671 644 638 q 635 700 644 689 q 607 711 624 711 q 560 692 586 711 z "},"¾":{"ha":888,"x_min":19,"x_max":864,"o":"m 332 1065 l 72 1063 q 46 1046 46 1063 l 46 933 l 46 928 q 65 906 46 908 q 89 932 89 906 l 89 949 q 88 965 88 956 q 92 990 88 978 q 104 1006 94 1004 q 117 1010 110 1007 l 121 1011 l 297 1011 l 160 871 q 147 850 147 858 q 149 846 147 847 q 167 835 151 835 l 235 840 q 311 815 289 840 q 335 750 335 790 q 299 668 335 704 q 203 633 264 633 q 119 658 160 633 q 76 715 79 682 l 82 721 q 108 724 97 721 q 121 736 117 726 q 125 760 125 747 q 113 782 125 772 q 88 793 99 793 q 39 775 57 793 q 19 714 19 756 q 74 621 19 657 q 194 586 125 586 q 340 632 286 586 q 393 751 393 678 q 351 849 393 811 q 243 885 307 885 l 367 1007 q 382 1026 378 1021 q 385 1042 385 1035 q 371 1061 385 1056 q 332 1065 357 1065 m 588 692 l 174 376 q 150 331 150 357 q 163 300 150 313 q 193 286 172 286 q 228 299 210 286 l 639 613 q 672 671 672 638 q 663 700 672 689 q 635 711 651 711 q 588 692 614 711 m 654 421 l 481 193 q 471 168 471 179 q 504 144 471 144 l 708 144 l 708 103 q 704 67 708 82 q 686 47 697 49 l 636 47 q 613 28 613 47 l 613 22 q 629 6 613 8 q 654 1 644 1 q 697 6 669 3 q 744 7 710 7 q 789 4 754 7 l 797 4 q 838 0 829 0 q 856 8 850 0 q 861 25 861 14 q 838 47 861 47 l 786 47 q 771 65 774 50 q 767 103 767 81 l 767 144 l 842 144 q 864 169 864 144 q 842 193 864 193 l 767 193 l 767 431 q 733 478 767 478 q 654 421 699 478 m 714 417 l 708 193 l 542 193 l 714 417 z "},"¿":{"ha":811,"x_min":51,"x_max":744,"o":"m 532 603 q 506 665 532 642 q 443 690 479 690 q 381 665 406 690 q 354 603 354 639 q 381 540 354 567 q 443 514 407 514 q 506 540 479 514 q 532 603 532 567 m 744 -24 q 710 85 744 42 q 610 128 675 128 q 531 100 565 128 q 497 33 497 74 q 515 -7 497 11 q 553 -26 532 -26 q 583 -19 567 -26 q 603 -3 596 -14 q 607 29 607 8 q 636 -1 631 6 q 643 -31 643 -12 q 558 -157 635 -115 q 388 -199 482 -199 q 236 -153 303 -199 q 168 -33 168 -110 q 254 101 168 39 q 369 178 294 126 l 415 208 q 515 376 506 282 l 515 385 q 503 426 515 408 q 456 450 486 450 q 413 431 424 450 q 403 376 403 413 q 315 256 403 308 q 219 199 285 238 q 142 153 165 167 q 51 -25 51 82 q 156 -214 51 -142 q 385 -287 258 -287 q 632 -217 519 -287 q 744 -24 744 -146 z "},"À":{"ha":1097,"x_min":19,"x_max":1074,"o":"m 535 933 q 482 917 506 933 q 451 874 460 900 l 174 133 q 154 93 164 107 q 125 79 144 79 q 110 81 122 79 q 93 82 100 81 l 57 82 q 31 68 40 82 q 19 35 19 53 q 38 3 19 15 q 76 -10 57 -10 q 122 -6 92 -10 q 188 3 154 -3 l 321 3 q 354 -1 333 3 q 389 -6 375 -6 l 418 -6 q 463 -1 449 -6 q 478 17 478 3 l 478 42 q 457 79 478 79 l 335 85 q 308 99 318 85 q 297 132 297 114 q 301 151 297 143 l 343 261 q 364 301 350 281 q 392 319 374 319 l 682 319 q 692 313 685 319 q 701 292 696 307 l 703 288 l 763 122 q 765 110 765 114 q 751 90 765 96 q 708 79 732 79 l 633 85 q 603 76 618 85 q 589 42 589 67 l 589 36 q 600 7 589 18 q 643 -7 613 -7 q 693 -6 660 -7 q 708 -4 703 -4 q 768 0 746 -3 l 939 0 l 983 -6 q 1018 -4 1006 -6 q 1050 -3 1040 -4 q 1068 7 1063 -3 q 1074 31 1074 14 q 1065 67 1074 50 q 1042 82 1054 82 l 942 82 q 903 115 919 82 q 871 188 886 147 l 622 874 q 585 922 603 913 q 535 933 565 933 m 532 814 l 654 435 q 640 415 654 415 l 424 415 q 410 421 415 415 q 406 429 406 425 q 407 435 406 433 l 532 814 m 349 1081 l 564 1003 l 568 1001 q 581 1000 576 1000 q 597 1018 597 1000 q 590 1032 597 1025 l 419 1182 q 375 1201 397 1201 q 333 1181 350 1201 q 315 1131 315 1158 q 324 1101 315 1114 q 349 1081 331 1088 z "},"Á":{"ha":1097,"x_min":19,"x_max":1074,"o":"m 535 933 q 482 917 506 933 q 451 874 460 900 l 174 133 q 154 93 164 107 q 125 79 144 79 q 110 81 122 79 q 93 82 100 81 l 57 82 q 31 68 40 82 q 19 35 19 53 q 38 3 19 15 q 76 -10 57 -10 q 122 -6 92 -10 q 188 3 154 -3 l 321 3 q 354 -1 333 3 q 389 -6 375 -6 l 418 -6 q 463 -1 449 -6 q 478 17 478 3 l 478 42 q 457 79 478 79 l 335 85 q 308 99 318 85 q 297 132 297 114 q 301 151 297 143 l 343 261 q 364 301 350 281 q 392 319 374 319 l 682 319 q 692 313 685 319 q 701 292 696 307 l 703 288 l 763 122 q 765 110 765 114 q 751 90 765 96 q 708 79 732 79 l 633 85 q 603 76 618 85 q 589 42 589 67 l 589 36 q 600 7 589 18 q 643 -7 613 -7 q 693 -6 660 -7 q 708 -4 703 -4 q 768 0 746 -3 l 939 0 l 983 -6 q 1018 -4 1006 -6 q 1050 -3 1040 -4 q 1068 7 1063 -3 q 1074 31 1074 14 q 1065 67 1074 50 q 1042 82 1054 82 l 942 82 q 903 115 919 82 q 871 188 886 147 l 622 874 q 585 922 603 913 q 535 933 565 933 m 532 814 l 654 435 q 640 415 654 415 l 424 415 q 410 421 415 415 q 406 429 406 425 q 407 435 406 433 l 532 814 m 726 1082 q 753 1101 743 1088 q 760 1132 760 1115 q 743 1182 760 1160 q 700 1203 725 1203 q 656 1183 678 1203 l 485 1033 q 478 1019 478 1026 q 494 1001 478 1001 q 507 1003 499 1001 l 511 1004 l 726 1082 z "},"Â":{"ha":1097,"x_min":19,"x_max":1074,"o":"m 535 933 q 482 917 506 933 q 451 874 460 900 l 174 133 q 154 93 164 107 q 125 79 144 79 q 110 81 122 79 q 93 82 100 81 l 57 82 q 31 68 40 82 q 19 35 19 53 q 38 3 19 15 q 76 -10 57 -10 q 122 -6 92 -10 q 188 3 154 -3 l 321 3 q 354 -1 333 3 q 389 -6 375 -6 l 418 -6 q 463 -1 449 -6 q 478 17 478 3 l 478 42 q 457 79 478 79 l 335 85 q 308 99 318 85 q 297 132 297 114 q 301 151 297 143 l 343 261 q 364 301 350 281 q 392 319 374 319 l 682 319 q 692 313 685 319 q 701 292 696 307 l 703 288 l 763 122 q 765 110 765 114 q 751 90 765 96 q 708 79 732 79 l 633 85 q 603 76 618 85 q 589 42 589 67 l 589 36 q 600 7 589 18 q 643 -7 613 -7 q 693 -6 660 -7 q 708 -4 703 -4 q 768 0 746 -3 l 939 0 l 983 -6 q 1018 -4 1006 -6 q 1050 -3 1040 -4 q 1068 7 1063 -3 q 1074 31 1074 14 q 1065 67 1074 50 q 1042 82 1054 82 l 942 82 q 903 115 919 82 q 871 188 886 147 l 622 874 q 585 922 603 913 q 535 933 565 933 m 532 814 l 654 435 q 640 415 654 415 l 424 415 q 410 421 415 415 q 406 429 406 425 q 407 435 406 433 l 532 814 m 763 1035 l 549 1186 q 533 1194 539 1194 q 518 1186 529 1194 l 307 1035 q 294 1017 294 1025 q 306 1004 294 1008 q 319 1000 313 1000 q 325 1001 324 1000 q 388 1026 350 1011 q 433 1044 410 1035 q 518 1075 461 1056 q 532 1081 525 1078 q 543 1076 533 1081 q 624 1046 583 1061 q 725 1008 713 1013 l 735 1006 q 747 1001 746 1001 q 769 1021 769 1001 q 763 1035 769 1028 z "},"Ã":{"ha":1097,"x_min":19,"x_max":1074,"o":"m 535 933 q 482 917 506 933 q 451 874 460 900 l 174 133 q 154 93 164 107 q 125 79 144 79 q 110 81 122 79 q 93 82 100 81 l 57 82 q 31 68 40 82 q 19 35 19 53 q 38 3 19 15 q 76 -10 57 -10 q 122 -6 92 -10 q 188 3 154 -3 l 321 3 q 354 -1 333 3 q 389 -6 375 -6 l 418 -6 q 463 -1 449 -6 q 478 17 478 3 l 478 42 q 457 79 478 79 l 335 85 q 308 99 318 85 q 297 132 297 114 q 301 151 297 143 l 343 261 q 364 301 350 281 q 392 319 374 319 l 682 319 q 692 313 685 319 q 701 292 696 307 l 703 288 l 763 122 q 765 110 765 114 q 751 90 765 96 q 708 79 732 79 l 633 85 q 603 76 618 85 q 589 42 589 67 l 589 36 q 600 7 589 18 q 643 -7 613 -7 q 693 -6 660 -7 q 708 -4 703 -4 q 768 0 746 -3 l 939 0 l 983 -6 q 1018 -4 1006 -6 q 1050 -3 1040 -4 q 1068 7 1063 -3 q 1074 31 1074 14 q 1065 67 1074 50 q 1042 82 1054 82 l 942 82 q 903 115 919 82 q 871 188 886 147 l 622 874 q 585 922 603 913 q 535 933 565 933 m 532 814 l 654 435 q 640 415 654 415 l 424 415 q 410 421 415 415 q 406 429 406 425 q 407 435 406 433 l 532 814 m 764 1114 q 760 1132 764 1126 q 749 1139 753 1139 q 725 1119 740 1132 q 714 1108 721 1115 q 678 1096 697 1096 q 557 1124 640 1096 q 458 1150 478 1150 q 365 1117 403 1150 q 326 1029 326 1082 q 347 1003 326 1010 l 378 1033 q 422 1047 396 1047 q 525 1022 450 1047 q 626 997 600 997 q 718 1025 669 997 q 764 1114 764 1053 z "},"Ä":{"ha":1097,"x_min":19,"x_max":1074,"o":"m 535 933 q 482 917 506 933 q 451 874 460 900 l 174 133 q 154 93 164 107 q 125 79 144 79 q 110 81 122 79 q 93 82 100 81 l 57 82 q 31 68 40 82 q 19 35 19 53 q 38 3 19 15 q 76 -10 57 -10 q 122 -6 92 -10 q 188 3 154 -3 l 321 3 q 354 -1 333 3 q 389 -6 375 -6 l 418 -6 q 463 -1 449 -6 q 478 17 478 3 l 478 42 q 457 79 478 79 l 335 85 q 308 99 318 85 q 297 132 297 114 q 301 151 297 143 l 343 261 q 364 301 350 281 q 392 319 374 319 l 682 319 q 692 313 685 319 q 701 292 696 307 l 703 288 l 763 122 q 765 110 765 114 q 751 90 765 96 q 708 79 732 79 l 633 85 q 603 76 618 85 q 589 42 589 67 l 589 36 q 600 7 589 18 q 643 -7 613 -7 q 693 -6 660 -7 q 708 -4 703 -4 q 768 0 746 -3 l 939 0 l 983 -6 q 1018 -4 1006 -6 q 1050 -3 1040 -4 q 1068 7 1063 -3 q 1074 31 1074 14 q 1065 67 1074 50 q 1042 82 1054 82 l 942 82 q 903 115 919 82 q 871 188 886 147 l 622 874 q 585 922 603 913 q 535 933 565 933 m 532 814 l 654 435 q 640 415 654 415 l 424 415 q 410 421 415 415 q 406 429 406 425 q 407 435 406 433 l 532 814 m 406 1164 q 349 1140 372 1164 q 325 1083 325 1117 q 349 1026 325 1050 q 406 1004 371 1004 q 463 1028 439 1004 q 486 1083 486 1051 q 463 1140 486 1117 q 406 1164 439 1164 m 649 1163 q 593 1139 617 1163 q 569 1083 569 1115 q 593 1028 569 1051 q 649 1004 617 1004 q 704 1028 681 1004 q 728 1083 728 1051 q 704 1139 728 1115 q 649 1163 681 1163 z "},"Å":{"ha":1097,"x_min":19,"x_max":1074,"o":"m 535 933 q 482 917 506 933 q 451 874 460 900 l 174 133 q 154 93 164 107 q 125 79 144 79 q 110 81 122 79 q 93 82 100 81 l 57 82 q 31 68 40 82 q 19 35 19 53 q 38 3 19 15 q 76 -10 57 -10 q 122 -6 92 -10 q 188 3 154 -3 l 321 3 q 354 -1 333 3 q 389 -6 375 -6 l 418 -6 q 463 -1 449 -6 q 478 17 478 3 l 478 42 q 457 79 478 79 l 335 85 q 308 99 318 85 q 297 132 297 114 q 301 151 297 143 l 343 261 q 364 301 350 281 q 392 319 374 319 l 682 319 q 692 313 685 319 q 701 292 696 307 l 703 288 l 763 122 q 765 110 765 114 q 751 90 765 96 q 708 79 732 79 l 633 85 q 603 76 618 85 q 589 42 589 67 l 589 36 q 600 7 589 18 q 643 -7 613 -7 q 693 -6 660 -7 q 708 -4 703 -4 q 768 0 746 -3 l 939 0 l 983 -6 q 1018 -4 1006 -6 q 1050 -3 1040 -4 q 1068 7 1063 -3 q 1074 31 1074 14 q 1065 67 1074 50 q 1042 82 1054 82 l 942 82 q 903 115 919 82 q 871 188 886 147 l 622 874 q 585 922 603 913 q 535 933 565 933 m 532 814 l 654 435 q 640 415 654 415 l 424 415 q 410 421 415 415 q 406 429 406 425 q 407 435 406 433 l 532 814 m 638 1113 q 606 1190 638 1158 q 528 1222 574 1222 q 450 1190 482 1222 q 418 1113 418 1158 q 451 1036 418 1068 q 528 1004 483 1004 q 606 1036 574 1004 q 638 1113 638 1068 m 585 1113 q 568 1072 585 1089 q 528 1056 551 1056 q 488 1072 504 1056 q 471 1113 471 1089 q 488 1153 471 1136 q 528 1169 504 1169 q 568 1153 551 1169 q 585 1113 585 1136 z "},"Æ":{"ha":1429,"x_min":-28,"x_max":1386,"o":"m 814 919 q 794 932 803 931 q 761 933 788 933 q 610 756 743 933 q 354 407 503 614 q 188 174 279 301 q 158 133 172 153 q 129 94 144 110 q 93 79 111 79 q 78 81 90 79 q 61 82 68 81 l 26 82 q -4 68 10 82 q -26 35 -21 51 q -28 24 -28 31 q -18 3 -28 11 q 18 -10 -6 -10 l 25 -10 q 46 -8 31 -10 q 63 -7 61 -7 q 132 3 106 -1 l 265 3 q 299 -1 281 3 q 332 -6 318 -6 l 360 -6 q 410 1 393 -6 q 432 29 424 7 q 439 65 439 54 q 425 79 439 79 q 386 81 407 81 q 346 82 364 81 q 304 85 307 82 q 275 108 275 85 q 292 151 275 129 l 367 261 q 404 307 390 294 q 432 319 419 319 l 722 319 q 733 288 733 319 l 743 122 l 743 93 q 686 79 717 79 q 650 83 669 82 q 596 85 635 85 q 576 71 582 85 q 568 43 568 57 q 588 3 568 11 q 644 -6 607 -6 q 783 4 689 -1 q 897 8 857 8 q 1172 -1 989 4 q 1321 -8 1307 -6 l 1326 -8 q 1360 3 1335 -8 q 1386 43 1386 17 q 1379 126 1386 56 l 1379 131 q 1372 239 1372 203 q 1374 268 1372 249 q 1375 276 1375 272 l 1376 286 q 1378 311 1378 307 q 1364 363 1378 340 q 1326 385 1350 385 q 1292 374 1307 385 q 1276 347 1276 363 l 1279 256 l 1279 206 l 1279 189 q 1264 122 1279 150 q 1199 94 1249 94 l 903 85 q 872 107 882 85 q 861 160 861 132 l 861 379 q 918 432 861 432 l 1003 432 q 1044 422 1029 432 q 1060 404 1060 411 l 1067 256 q 1081 233 1067 242 q 1108 225 1096 225 q 1154 247 1149 225 q 1160 301 1160 268 q 1149 390 1151 357 q 1144 457 1144 435 q 1150 536 1144 474 q 1160 665 1156 621 q 1149 704 1160 685 q 1113 722 1136 722 q 1076 699 1089 722 q 1063 646 1063 676 l 1068 564 q 1044 535 1068 550 q 994 521 1022 521 l 906 521 q 875 531 886 521 q 861 561 861 539 l 861 751 q 888 815 861 801 q 978 831 914 831 l 1190 825 q 1258 794 1244 825 q 1271 714 1271 764 l 1268 572 q 1283 543 1268 551 q 1318 535 1299 535 q 1360 557 1350 535 q 1369 614 1369 578 l 1364 681 q 1371 778 1364 713 q 1378 876 1378 843 q 1357 915 1378 903 q 1313 928 1336 928 q 1172 924 1300 928 q 921 914 1007 918 q 913 914 919 914 q 874 917 892 915 l 846 918 q 814 919 822 919 m 729 435 q 710 415 729 415 l 493 415 q 481 422 485 415 q 479 428 479 424 q 482 435 479 429 l 731 764 l 729 435 z "},"Ç":{"ha":888,"x_min":47,"x_max":826,"o":"m 464 957 q 158 811 269 957 q 47 461 47 664 q 154 115 47 258 q 461 -28 260 -28 q 733 64 640 -28 q 826 304 826 156 q 818 353 826 336 q 774 369 808 369 q 733 356 743 369 q 722 328 722 340 q 642 125 722 183 q 471 67 561 67 q 247 176 315 67 q 178 446 178 288 q 243 742 178 619 q 467 863 308 863 q 639 794 578 863 q 700 604 700 725 l 700 592 q 701 588 700 592 q 703 575 701 583 q 715 546 706 561 q 750 532 724 532 q 792 546 782 532 q 800 586 800 561 l 800 606 l 797 660 q 796 718 797 692 q 794 783 794 744 q 797 851 794 801 l 797 856 q 799 889 799 867 q 800 922 799 911 q 789 946 800 935 q 754 956 778 956 q 729 944 744 956 q 715 919 715 935 l 719 840 q 464 957 611 957 m 414 -22 l 461 -22 l 438 -81 l 469 -78 q 550 -99 515 -78 q 583 -164 583 -119 q 543 -235 583 -207 q 451 -262 500 -262 q 364 -244 401 -262 q 324 -203 324 -225 q 351 -181 324 -181 q 378 -192 364 -185 q 404 -203 392 -199 q 444 -214 433 -214 q 492 -204 474 -214 q 510 -168 510 -196 q 499 -139 510 -153 q 471 -126 489 -126 q 436 -135 460 -126 q 406 -144 415 -144 q 385 -135 396 -144 q 375 -121 375 -129 q 376 -114 375 -117 l 414 -22 z "},"È":{"ha":888,"x_min":26,"x_max":844,"o":"m 361 88 q 331 108 342 88 q 319 163 319 131 l 319 382 q 376 435 319 435 l 461 435 q 503 426 489 435 q 518 407 518 415 l 525 258 q 540 238 525 246 q 567 228 554 228 q 608 247 597 228 q 618 304 618 265 q 608 400 614 338 q 603 460 603 444 q 607 546 603 486 q 618 668 610 590 q 607 707 618 688 q 571 725 594 725 q 535 701 547 725 q 521 649 521 679 l 526 567 q 499 535 526 546 q 453 524 469 524 l 364 524 q 332 533 343 524 q 319 564 319 542 l 319 754 q 344 819 319 806 q 436 833 368 833 l 649 828 q 715 796 700 828 q 729 717 729 764 l 726 575 q 742 546 726 554 q 776 538 757 538 q 818 560 808 538 q 828 617 828 581 l 822 683 q 829 779 822 714 q 836 879 836 844 q 814 918 836 904 q 771 931 792 931 q 592 926 728 931 q 496 922 554 925 q 379 917 400 918 q 226 925 329 917 q 106 933 125 933 q 46 925 65 933 q 26 878 26 914 q 33 854 26 871 q 51 840 39 840 l 144 843 q 194 817 185 843 q 206 740 206 788 l 206 185 q 193 110 206 139 q 150 82 181 82 l 144 82 q 100 86 131 83 q 54 88 85 88 q 35 75 42 88 q 26 46 26 61 q 46 7 26 18 q 103 -3 64 -3 q 240 7 150 1 q 356 11 314 11 q 631 1 449 7 q 779 -6 765 -3 l 783 -6 q 818 6 793 -6 q 844 46 844 18 q 838 140 844 74 q 831 242 831 207 q 832 269 831 249 l 833 285 q 836 310 835 301 q 836 314 836 314 q 824 364 836 342 q 785 388 808 388 q 750 378 764 388 q 735 350 735 367 l 738 258 q 739 247 739 256 q 740 236 739 243 q 742 213 742 226 q 724 132 742 167 q 657 97 706 97 l 361 88 m 290 1085 l 506 1007 l 510 1006 q 522 1004 518 1004 q 539 1022 539 1004 q 532 1036 539 1029 l 361 1186 q 317 1206 339 1206 q 275 1185 292 1206 q 257 1135 257 1163 q 265 1106 257 1118 q 290 1085 272 1092 z "},"É":{"ha":888,"x_min":26,"x_max":844,"o":"m 361 88 q 331 108 342 88 q 319 163 319 131 l 319 382 q 376 435 319 435 l 461 435 q 503 426 489 435 q 518 407 518 415 l 525 258 q 540 238 525 246 q 567 228 554 228 q 608 247 597 228 q 618 304 618 265 q 608 400 614 338 q 603 460 603 444 q 607 546 603 486 q 618 668 610 590 q 607 707 618 688 q 571 725 594 725 q 535 701 547 725 q 521 649 521 679 l 526 567 q 499 535 526 546 q 453 524 469 524 l 364 524 q 332 533 343 524 q 319 564 319 542 l 319 754 q 344 819 319 806 q 436 833 368 833 l 649 828 q 715 796 700 828 q 729 717 729 764 l 726 575 q 742 546 726 554 q 776 538 757 538 q 818 560 808 538 q 828 617 828 581 l 822 683 q 829 779 822 714 q 836 879 836 844 q 814 918 836 904 q 771 931 792 931 q 592 926 728 931 q 496 922 554 925 q 379 917 400 918 q 226 925 329 917 q 106 933 125 933 q 46 925 65 933 q 26 878 26 914 q 33 854 26 871 q 51 840 39 840 l 144 843 q 194 817 185 843 q 206 740 206 788 l 206 185 q 193 110 206 139 q 150 82 181 82 l 144 82 q 100 86 131 83 q 54 88 85 88 q 35 75 42 88 q 26 46 26 61 q 46 7 26 18 q 103 -3 64 -3 q 240 7 150 1 q 356 11 314 11 q 631 1 449 7 q 779 -6 765 -3 l 783 -6 q 818 6 793 -6 q 844 46 844 18 q 838 140 844 74 q 831 242 831 207 q 832 269 831 249 l 833 285 q 836 310 835 301 q 836 314 836 314 q 824 364 836 342 q 785 388 808 388 q 750 378 764 388 q 735 350 735 367 l 738 258 q 739 247 739 256 q 740 236 739 243 q 742 213 742 226 q 724 132 742 167 q 657 97 706 97 l 361 88 m 560 1085 q 586 1104 576 1090 q 593 1135 593 1118 q 576 1185 593 1163 q 533 1206 558 1206 q 489 1186 511 1206 l 318 1036 q 311 1022 311 1029 q 328 1004 311 1004 q 340 1006 332 1004 l 344 1007 l 560 1085 z "},"Ê":{"ha":888,"x_min":26,"x_max":844,"o":"m 361 88 q 331 108 342 88 q 319 163 319 131 l 319 382 q 376 435 319 435 l 461 435 q 503 426 489 435 q 518 407 518 415 l 525 258 q 540 238 525 246 q 567 228 554 228 q 608 247 597 228 q 618 304 618 265 q 608 400 614 338 q 603 460 603 444 q 607 546 603 486 q 618 668 610 590 q 607 707 618 688 q 571 725 594 725 q 535 701 547 725 q 521 649 521 679 l 526 567 q 499 535 526 546 q 453 524 469 524 l 364 524 q 332 533 343 524 q 319 564 319 542 l 319 754 q 344 819 319 806 q 436 833 368 833 l 649 828 q 715 796 700 828 q 729 717 729 764 l 726 575 q 742 546 726 554 q 776 538 757 538 q 818 560 808 538 q 828 617 828 581 l 822 683 q 829 779 822 714 q 836 879 836 844 q 814 918 836 904 q 771 931 792 931 q 592 926 728 931 q 496 922 554 925 q 379 917 400 918 q 226 925 329 917 q 106 933 125 933 q 46 925 65 933 q 26 878 26 914 q 33 854 26 871 q 51 840 39 840 l 144 843 q 194 817 185 843 q 206 740 206 788 l 206 185 q 193 110 206 139 q 150 82 181 82 l 144 82 q 100 86 131 83 q 54 88 85 88 q 35 75 42 88 q 26 46 26 61 q 46 7 26 18 q 103 -3 64 -3 q 240 7 150 1 q 356 11 314 11 q 631 1 449 7 q 779 -6 765 -3 l 783 -6 q 818 6 793 -6 q 844 46 844 18 q 838 140 844 74 q 831 242 831 207 q 832 269 831 249 l 833 285 q 836 310 835 301 q 836 314 836 314 q 824 364 836 342 q 785 388 808 388 q 750 378 764 388 q 735 350 735 367 l 738 258 q 739 247 739 256 q 740 236 739 243 q 742 213 742 226 q 724 132 742 167 q 657 97 706 97 l 361 88 m 683 1042 l 469 1193 q 454 1201 460 1201 q 439 1193 450 1201 l 228 1042 q 215 1024 215 1032 q 226 1011 215 1015 q 240 1007 233 1007 q 246 1008 244 1007 q 308 1033 271 1018 q 354 1051 331 1042 q 439 1082 382 1063 q 453 1088 446 1085 q 464 1083 454 1088 q 544 1053 504 1068 q 646 1015 633 1019 l 656 1013 q 668 1008 667 1008 q 690 1028 690 1008 q 683 1042 690 1035 z "},"Ë":{"ha":888,"x_min":26,"x_max":844,"o":"m 361 88 q 331 108 342 88 q 319 163 319 131 l 319 382 q 376 435 319 435 l 461 435 q 503 426 489 435 q 518 407 518 415 l 525 258 q 540 238 525 246 q 567 228 554 228 q 608 247 597 228 q 618 304 618 265 q 608 400 614 338 q 603 460 603 444 q 607 546 603 486 q 618 668 610 590 q 607 707 618 688 q 571 725 594 725 q 535 701 547 725 q 521 649 521 679 l 526 567 q 499 535 526 546 q 453 524 469 524 l 364 524 q 332 533 343 524 q 319 564 319 542 l 319 754 q 344 819 319 806 q 436 833 368 833 l 649 828 q 715 796 700 828 q 729 717 729 764 l 726 575 q 742 546 726 554 q 776 538 757 538 q 818 560 808 538 q 828 617 828 581 l 822 683 q 829 779 822 714 q 836 879 836 844 q 814 918 836 904 q 771 931 792 931 q 592 926 728 931 q 496 922 554 925 q 379 917 400 918 q 226 925 329 917 q 106 933 125 933 q 46 925 65 933 q 26 878 26 914 q 33 854 26 871 q 51 840 39 840 l 144 843 q 194 817 185 843 q 206 740 206 788 l 206 185 q 193 110 206 139 q 150 82 181 82 l 144 82 q 100 86 131 83 q 54 88 85 88 q 35 75 42 88 q 26 46 26 61 q 46 7 26 18 q 103 -3 64 -3 q 240 7 150 1 q 356 11 314 11 q 631 1 449 7 q 779 -6 765 -3 l 783 -6 q 818 6 793 -6 q 844 46 844 18 q 838 140 844 74 q 831 242 831 207 q 832 269 831 249 l 833 285 q 836 310 835 301 q 836 314 836 314 q 824 364 836 342 q 785 388 808 388 q 750 378 764 388 q 735 350 735 367 l 738 258 q 739 247 739 256 q 740 236 739 243 q 742 213 742 226 q 724 132 742 167 q 657 97 706 97 l 361 88 m 351 1167 q 294 1143 318 1167 q 271 1086 271 1119 q 294 1029 271 1053 q 351 1007 317 1007 q 408 1031 385 1007 q 432 1086 432 1054 q 408 1143 432 1119 q 351 1167 385 1167 m 594 1165 q 539 1142 563 1165 q 515 1086 515 1118 q 539 1031 515 1054 q 594 1007 563 1007 q 650 1031 626 1007 q 674 1086 674 1054 q 650 1142 674 1118 q 594 1165 626 1165 z "},"Ì":{"ha":540,"x_min":25,"x_max":501,"o":"m 85 933 q 42 915 57 929 q 25 879 25 901 q 31 853 25 864 q 51 840 38 840 q 114 842 94 840 q 144 843 133 843 q 196 801 188 843 q 201 764 197 788 q 206 740 204 749 l 206 182 q 192 103 197 118 q 160 82 186 82 l 51 82 q 33 69 40 82 q 26 42 26 56 q 46 1 26 8 q 103 -6 67 -6 l 247 3 q 356 -1 283 3 q 467 -6 429 -6 q 493 6 486 -6 q 499 36 499 15 q 493 69 499 58 q 472 82 488 82 l 382 79 q 331 107 342 79 q 319 182 319 136 l 319 740 q 332 815 319 786 q 382 843 343 843 l 472 840 q 492 851 485 840 q 501 879 500 865 l 501 888 q 483 918 501 908 q 421 931 461 931 q 322 921 385 926 q 247 917 271 917 q 183 922 228 917 q 136 928 168 924 q 85 933 103 931 m 71 1089 l 286 1011 l 290 1010 q 303 1008 299 1008 q 319 1026 319 1008 q 313 1040 319 1033 l 142 1190 q 97 1210 119 1210 q 56 1189 72 1210 q 38 1139 38 1167 q 46 1110 38 1122 q 71 1089 53 1096 z "},"Í":{"ha":540,"x_min":25,"x_max":501,"o":"m 85 933 q 42 915 57 929 q 25 879 25 901 q 31 853 25 864 q 51 840 38 840 q 114 842 94 840 q 144 843 133 843 q 196 801 188 843 q 201 764 197 788 q 206 740 204 749 l 206 182 q 192 103 197 118 q 160 82 186 82 l 51 82 q 33 69 40 82 q 26 42 26 56 q 46 1 26 8 q 103 -6 67 -6 l 247 3 q 356 -1 283 3 q 467 -6 429 -6 q 493 6 486 -6 q 499 36 499 15 q 493 69 499 58 q 472 82 488 82 l 382 79 q 331 107 342 79 q 319 182 319 136 l 319 740 q 332 815 319 786 q 382 843 343 843 l 472 840 q 492 851 485 840 q 501 879 500 865 l 501 888 q 483 918 501 908 q 421 931 461 931 q 322 921 385 926 q 247 917 271 917 q 183 922 228 917 q 136 928 168 924 q 85 933 103 931 m 411 1079 q 438 1099 428 1085 q 444 1129 444 1113 q 428 1179 444 1157 q 385 1200 410 1200 q 340 1181 363 1200 l 169 1031 q 163 1017 163 1024 q 179 999 163 999 q 192 1000 183 999 l 196 1001 l 411 1079 z "},"Î":{"ha":540,"x_min":15,"x_max":501,"o":"m 85 933 q 42 915 57 929 q 25 879 25 901 q 31 853 25 864 q 51 840 38 840 q 114 842 94 840 q 144 843 133 843 q 196 801 188 843 q 201 764 197 788 q 206 740 204 749 l 206 182 q 192 103 197 118 q 160 82 186 82 l 51 82 q 33 69 40 82 q 26 42 26 56 q 46 1 26 8 q 103 -6 67 -6 l 247 3 q 356 -1 283 3 q 467 -6 429 -6 q 493 6 486 -6 q 499 36 499 15 q 493 69 499 58 q 472 82 488 82 l 382 79 q 331 107 342 79 q 319 182 319 136 l 319 740 q 332 815 319 786 q 382 843 343 843 l 472 840 q 492 851 485 840 q 501 879 500 865 l 501 888 q 483 918 501 908 q 421 931 461 931 q 322 921 385 926 q 247 917 271 917 q 183 922 228 917 q 136 928 168 924 q 85 933 103 931 m 483 1046 l 269 1197 q 254 1206 260 1206 q 239 1197 250 1206 l 28 1046 q 15 1028 15 1036 q 26 1015 15 1019 q 40 1011 33 1011 q 46 1013 44 1011 q 108 1038 71 1022 q 154 1056 131 1046 q 239 1086 182 1067 q 253 1092 246 1089 q 264 1088 254 1092 q 344 1057 304 1072 q 446 1019 433 1024 l 456 1017 q 468 1013 467 1013 q 490 1032 490 1013 q 483 1046 490 1039 z "},"Ï":{"ha":540,"x_min":25,"x_max":501,"o":"m 85 933 q 42 915 57 929 q 25 879 25 901 q 31 853 25 864 q 51 840 38 840 q 114 842 94 840 q 144 843 133 843 q 196 801 188 843 q 201 764 197 788 q 206 740 204 749 l 206 182 q 192 103 197 118 q 160 82 186 82 l 51 82 q 33 69 40 82 q 26 42 26 56 q 46 1 26 8 q 103 -6 67 -6 l 247 3 q 356 -1 283 3 q 467 -6 429 -6 q 493 6 486 -6 q 499 36 499 15 q 493 69 499 58 q 472 82 488 82 l 382 79 q 331 107 342 79 q 319 182 319 136 l 319 740 q 332 815 319 786 q 382 843 343 843 l 472 840 q 492 851 485 840 q 501 879 500 865 l 501 888 q 483 918 501 908 q 421 931 461 931 q 322 921 385 926 q 247 917 271 917 q 183 922 228 917 q 136 928 168 924 q 85 933 103 931 m 138 1169 q 81 1146 104 1169 q 57 1089 57 1122 q 81 1032 57 1056 q 138 1010 103 1010 q 194 1033 171 1010 q 218 1089 218 1057 q 194 1146 218 1122 q 138 1169 171 1169 m 381 1168 q 325 1144 349 1168 q 301 1089 301 1121 q 325 1033 301 1057 q 381 1010 349 1010 q 436 1033 413 1010 q 460 1089 460 1057 q 436 1144 460 1121 q 381 1168 413 1168 z "},"Ð":{"ha":1004,"x_min":25,"x_max":957,"o":"m 203 438 l 203 182 q 189 110 203 139 q 144 79 175 79 q 110 83 131 82 q 51 85 94 85 q 31 72 38 85 q 25 44 25 60 q 42 7 25 18 q 103 -6 58 -6 q 232 3 172 1 l 350 3 q 369 0 351 3 q 396 -3 389 -3 q 444 -6 429 -6 q 694 29 582 -6 q 882 164 808 63 q 957 463 957 267 q 843 800 957 672 q 510 928 728 928 q 404 922 476 928 q 288 917 331 917 q 192 924 269 917 l 185 924 q 71 931 99 931 q 35 917 44 931 q 25 879 25 903 q 32 853 25 867 q 51 840 39 840 l 144 840 q 193 814 183 840 q 203 740 203 789 l 203 536 l 88 536 q 57 522 67 536 q 46 486 46 507 q 88 438 46 438 l 203 438 m 322 536 l 322 754 q 344 818 322 801 q 467 833 367 833 q 754 736 674 833 q 836 468 836 638 q 751 183 836 285 q 496 82 667 82 q 429 88 468 82 q 360 96 383 92 q 329 119 336 97 q 322 168 322 140 l 322 438 l 433 438 q 465 453 454 438 q 475 488 475 467 q 433 536 475 536 l 322 536 z "},"Ñ":{"ha":1042,"x_min":25,"x_max":1008,"o":"m 85 933 q 43 917 60 933 q 25 879 25 899 q 32 849 25 863 q 51 836 39 836 q 114 838 103 836 q 144 840 125 838 q 203 738 203 840 l 203 179 q 192 103 203 136 q 153 74 182 74 l 144 74 q 143 74 144 74 q 107 78 135 74 q 54 82 72 82 q 35 69 43 82 q 26 40 26 57 q 47 0 26 11 q 103 -11 67 -11 q 142 -6 121 -8 q 175 0 172 0 q 225 6 207 6 q 338 -1 261 6 q 442 -8 414 -8 q 478 6 464 -8 q 492 40 492 18 q 483 69 492 56 q 451 82 474 82 q 429 81 447 82 l 407 79 q 386 78 390 78 q 374 76 375 76 l 369 76 q 325 96 340 76 q 310 146 310 115 l 310 828 l 643 71 q 696 -1 661 25 q 761 -26 728 -26 q 828 8 801 -26 q 854 106 854 43 l 854 738 q 868 808 854 782 q 896 836 881 836 q 931 835 913 836 q 968 833 949 833 q 999 843 989 833 q 1008 882 1008 853 q 994 921 1008 915 q 950 926 982 926 q 872 922 931 926 q 785 917 821 917 q 690 921 719 917 q 649 928 664 922 q 592 918 611 928 q 569 876 569 908 q 583 850 569 860 q 614 838 596 838 l 689 840 q 739 794 726 840 q 751 696 751 747 l 751 683 l 751 89 l 407 865 q 369 922 385 911 q 331 932 356 932 q 317 931 317 931 q 267 926 285 928 l 238 925 q 213 924 218 924 q 118 929 139 924 q 85 933 93 933 m 713 1133 q 708 1151 713 1146 q 697 1158 701 1158 q 674 1139 689 1151 q 663 1128 669 1135 q 626 1115 646 1115 q 506 1143 589 1115 q 407 1169 426 1169 q 314 1136 351 1169 q 275 1049 275 1101 q 296 1022 275 1029 l 326 1053 q 371 1067 344 1067 q 474 1042 399 1067 q 575 1017 549 1017 q 667 1044 618 1017 q 713 1133 713 1072 z "},"Ò":{"ha":888,"x_min":47,"x_max":854,"o":"m 458 957 q 154 813 261 957 q 47 464 47 668 q 151 114 47 256 q 446 -28 256 -28 q 756 117 656 -28 q 854 464 854 261 q 753 819 854 683 q 458 957 651 957 m 456 865 q 665 750 600 865 q 729 469 729 636 q 660 190 729 310 q 446 72 589 72 q 243 185 314 72 q 172 449 172 297 q 242 744 172 622 q 456 865 311 865 m 282 1099 l 497 1021 l 501 1019 q 514 1018 510 1018 q 531 1036 531 1018 q 524 1050 531 1043 l 353 1200 q 308 1219 331 1219 q 267 1199 283 1219 q 249 1149 249 1176 q 257 1119 249 1132 q 282 1099 264 1106 z "},"Ó":{"ha":888,"x_min":47,"x_max":854,"o":"m 458 957 q 154 813 261 957 q 47 464 47 668 q 151 114 47 256 q 446 -28 256 -28 q 756 117 656 -28 q 854 464 854 261 q 753 819 854 683 q 458 957 651 957 m 456 865 q 665 750 600 865 q 729 469 729 636 q 660 190 729 310 q 446 72 589 72 q 243 185 314 72 q 172 449 172 297 q 242 744 172 622 q 456 865 311 865 m 589 1093 q 615 1113 606 1099 q 622 1143 622 1126 q 606 1193 622 1171 q 563 1214 588 1214 q 518 1194 540 1214 l 347 1044 q 340 1031 340 1038 q 357 1013 340 1013 q 369 1014 361 1013 l 374 1015 l 589 1093 z "},"Ô":{"ha":888,"x_min":47,"x_max":854,"o":"m 458 957 q 154 813 261 957 q 47 464 47 668 q 151 114 47 256 q 446 -28 256 -28 q 756 117 656 -28 q 854 464 854 261 q 753 819 854 683 q 458 957 651 957 m 456 865 q 665 750 600 865 q 729 469 729 636 q 660 190 729 310 q 446 72 589 72 q 243 185 314 72 q 172 449 172 297 q 242 744 172 622 q 456 865 311 865 m 675 1039 l 461 1190 q 446 1199 451 1199 q 431 1190 442 1199 l 219 1039 q 207 1021 207 1029 q 218 1008 207 1013 q 232 1004 225 1004 q 238 1006 236 1004 q 300 1031 263 1015 q 346 1049 322 1039 q 431 1079 374 1060 q 444 1085 438 1082 q 456 1081 446 1085 q 536 1050 496 1065 q 638 1013 625 1017 l 647 1010 q 660 1006 658 1006 q 682 1025 682 1006 q 675 1039 682 1032 z "},"Õ":{"ha":888,"x_min":47,"x_max":854,"o":"m 458 957 q 154 813 261 957 q 47 464 47 668 q 151 114 47 256 q 446 -28 256 -28 q 756 117 656 -28 q 854 464 854 261 q 753 819 854 683 q 458 957 651 957 m 456 865 q 665 750 600 865 q 729 469 729 636 q 660 190 729 310 q 446 72 589 72 q 243 185 314 72 q 172 449 172 297 q 242 744 172 622 q 456 865 311 865 m 672 1132 q 668 1150 672 1144 q 657 1157 661 1157 q 633 1138 649 1150 q 622 1126 629 1133 q 586 1114 606 1114 q 465 1142 549 1114 q 367 1168 386 1168 q 274 1135 311 1168 q 235 1047 235 1100 q 256 1021 235 1028 l 286 1051 q 331 1065 304 1065 q 433 1040 358 1065 q 535 1015 508 1015 q 626 1043 578 1015 q 672 1132 672 1071 z "},"Ö":{"ha":888,"x_min":47,"x_max":854,"o":"m 458 957 q 154 813 261 957 q 47 464 47 668 q 151 114 47 256 q 446 -28 256 -28 q 756 117 656 -28 q 854 464 854 261 q 753 819 854 683 q 458 957 651 957 m 456 865 q 665 750 600 865 q 729 469 729 636 q 660 190 729 310 q 446 72 589 72 q 243 185 314 72 q 172 449 172 297 q 242 744 172 622 q 456 865 311 865 m 332 1168 q 275 1144 299 1168 q 251 1088 251 1121 q 275 1031 251 1054 q 332 1008 297 1008 q 389 1032 365 1008 q 413 1088 413 1056 q 389 1144 413 1121 q 332 1168 365 1168 m 575 1167 q 519 1143 543 1167 q 496 1088 496 1119 q 519 1032 496 1056 q 575 1008 543 1008 q 631 1032 607 1008 q 654 1088 654 1056 q 631 1143 654 1119 q 575 1167 607 1167 z "},"×":{"ha":694,"x_min":56,"x_max":631,"o":"m 258 464 l 56 261 l 140 176 l 343 379 l 546 176 l 631 261 l 428 464 l 631 667 l 546 750 l 343 549 l 140 750 l 56 665 l 258 464 z "},"Ø":{"ha":888,"x_min":47,"x_max":854,"o":"m 156 108 l 90 1 q 89 -3 90 0 q 83 -19 86 -12 q 96 -29 83 -28 l 151 -39 q 161 -40 156 -40 q 176 -35 171 -40 q 182 -25 179 -32 l 183 -24 l 224 42 q 325 -10 268 10 q 446 -28 378 -28 q 757 115 660 -28 q 854 464 854 258 q 819 689 854 589 q 717 857 783 792 l 772 947 l 785 972 q 765 986 785 982 l 726 993 q 713 994 724 994 q 683 974 694 994 l 644 911 q 458 957 564 957 q 154 814 260 957 q 47 464 47 669 q 156 108 47 249 m 658 760 q 713 629 696 703 q 729 469 729 553 q 660 189 729 307 q 446 72 592 72 q 356 90 393 72 q 282 138 311 108 l 658 760 m 222 218 q 185 326 196 271 q 172 449 172 383 q 242 744 172 621 q 456 865 311 865 q 532 854 494 865 q 593 826 563 846 l 222 218 z "},"Ù":{"ha":1004,"x_min":14,"x_max":972,"o":"m 65 936 q 28 921 43 936 q 14 889 14 907 q 28 857 14 871 q 60 843 42 843 l 122 846 q 151 826 140 846 q 163 757 163 807 l 163 288 q 233 58 163 140 q 490 -25 303 -25 q 749 60 668 -25 q 831 288 831 146 q 829 467 831 375 q 826 588 828 526 q 826 621 826 611 q 828 710 826 681 q 831 757 828 749 q 840 811 831 781 q 876 843 851 843 q 907 842 892 843 q 933 840 922 840 q 965 856 957 840 q 972 890 972 872 q 956 926 972 917 q 914 935 939 935 q 835 931 896 935 q 765 926 772 926 l 613 933 q 554 926 572 933 q 536 883 536 921 q 544 853 536 864 q 564 840 551 840 q 619 842 593 840 q 669 843 646 843 q 701 818 689 843 q 714 757 714 792 l 714 247 q 653 119 714 168 q 499 71 592 71 q 344 114 400 71 q 279 247 290 157 l 279 757 q 294 811 279 776 q 322 843 310 843 l 426 840 q 457 856 442 840 q 469 886 469 871 q 453 924 469 914 q 408 935 435 935 q 308 931 378 935 q 221 925 247 925 l 65 936 m 289 1081 l 504 1003 l 508 1001 q 521 1000 517 1000 q 538 1018 538 1000 q 531 1032 538 1025 l 360 1182 q 315 1201 338 1201 q 274 1181 290 1201 q 256 1131 256 1158 q 264 1101 256 1114 q 289 1081 271 1088 z "},"Ú":{"ha":1004,"x_min":14,"x_max":972,"o":"m 65 936 q 28 921 43 936 q 14 889 14 907 q 28 857 14 871 q 60 843 42 843 l 122 846 q 151 826 140 846 q 163 757 163 807 l 163 288 q 233 58 163 140 q 490 -25 303 -25 q 749 60 668 -25 q 831 288 831 146 q 829 467 831 375 q 826 588 828 526 q 826 621 826 611 q 828 710 826 681 q 831 757 828 749 q 840 811 831 781 q 876 843 851 843 q 907 842 892 843 q 933 840 922 840 q 965 856 957 840 q 972 890 972 872 q 956 926 972 917 q 914 935 939 935 q 835 931 896 935 q 765 926 772 926 l 613 933 q 554 926 572 933 q 536 883 536 921 q 544 853 536 864 q 564 840 551 840 q 619 842 593 840 q 669 843 646 843 q 701 818 689 843 q 714 757 714 792 l 714 247 q 653 119 714 168 q 499 71 592 71 q 344 114 400 71 q 279 247 290 157 l 279 757 q 294 811 279 776 q 322 843 310 843 l 426 840 q 457 856 442 840 q 469 886 469 871 q 453 924 469 914 q 408 935 435 935 q 308 931 378 935 q 221 925 247 925 l 65 936 m 693 1072 q 719 1092 710 1078 q 726 1122 726 1106 q 710 1172 726 1150 q 667 1193 692 1193 q 622 1174 644 1193 l 451 1024 q 444 1010 444 1017 q 461 992 444 992 q 474 993 465 992 l 478 994 l 693 1072 z "},"Û":{"ha":1004,"x_min":14,"x_max":972,"o":"m 65 936 q 28 921 43 936 q 14 889 14 907 q 28 857 14 871 q 60 843 42 843 l 122 846 q 151 826 140 846 q 163 757 163 807 l 163 288 q 233 58 163 140 q 490 -25 303 -25 q 749 60 668 -25 q 831 288 831 146 q 829 467 831 375 q 826 588 828 526 q 826 621 826 611 q 828 710 826 681 q 831 757 828 749 q 840 811 831 781 q 876 843 851 843 q 907 842 892 843 q 933 840 922 840 q 965 856 957 840 q 972 890 972 872 q 956 926 972 917 q 914 935 939 935 q 835 931 896 935 q 765 926 772 926 l 613 933 q 554 926 572 933 q 536 883 536 921 q 544 853 536 864 q 564 840 551 840 q 619 842 593 840 q 669 843 646 843 q 701 818 689 843 q 714 757 714 792 l 714 247 q 653 119 714 168 q 499 71 592 71 q 344 114 400 71 q 279 247 290 157 l 279 757 q 294 811 279 776 q 322 843 310 843 l 426 840 q 457 856 442 840 q 469 886 469 871 q 453 924 469 914 q 408 935 435 935 q 308 931 378 935 q 221 925 247 925 l 65 936 m 743 1035 l 529 1186 q 514 1194 519 1194 q 499 1186 510 1194 l 288 1035 q 275 1017 275 1025 q 286 1004 275 1008 q 300 1000 293 1000 q 306 1001 304 1000 q 368 1026 331 1011 q 414 1044 390 1035 q 499 1075 442 1056 q 513 1081 506 1078 q 524 1076 514 1081 q 604 1046 564 1061 q 706 1008 693 1013 l 715 1006 q 728 1001 726 1001 q 750 1021 750 1001 q 743 1035 750 1028 z "},"Ü":{"ha":1004,"x_min":14,"x_max":972,"o":"m 65 936 q 28 921 43 936 q 14 889 14 907 q 28 857 14 871 q 60 843 42 843 l 122 846 q 151 826 140 846 q 163 757 163 807 l 163 288 q 233 58 163 140 q 490 -25 303 -25 q 749 60 668 -25 q 831 288 831 146 q 829 467 831 375 q 826 588 828 526 q 826 621 826 611 q 828 710 826 681 q 831 757 828 749 q 840 811 831 781 q 876 843 851 843 q 907 842 892 843 q 933 840 922 840 q 965 856 957 840 q 972 890 972 872 q 956 926 972 917 q 914 935 939 935 q 835 931 896 935 q 765 926 772 926 l 613 933 q 554 926 572 933 q 536 883 536 921 q 544 853 536 864 q 564 840 551 840 q 619 842 593 840 q 669 843 646 843 q 701 818 689 843 q 714 757 714 792 l 714 247 q 653 119 714 168 q 499 71 592 71 q 344 114 400 71 q 279 247 290 157 l 279 757 q 294 811 279 776 q 322 843 310 843 l 426 840 q 457 856 442 840 q 469 886 469 871 q 453 924 469 914 q 408 935 435 935 q 308 931 378 935 q 221 925 247 925 l 65 936 m 381 1168 q 324 1144 347 1168 q 300 1088 300 1121 q 324 1031 300 1054 q 381 1008 346 1008 q 438 1032 414 1008 q 461 1088 461 1056 q 438 1144 461 1121 q 381 1168 414 1168 m 624 1167 q 568 1143 592 1167 q 544 1088 544 1119 q 568 1032 544 1056 q 624 1008 592 1008 q 679 1032 656 1008 q 703 1088 703 1056 q 679 1143 703 1119 q 624 1167 656 1167 z "},"Ý":{"ha":1042,"x_min":-6,"x_max":1043,"o":"m 629 936 q 589 924 604 936 q 574 885 574 911 q 585 857 574 875 q 610 840 596 840 l 726 846 q 749 832 749 846 q 747 824 749 829 l 746 821 q 742 814 746 818 q 740 811 740 813 l 526 447 l 313 811 q 307 828 307 818 q 333 844 307 844 l 419 843 q 451 857 439 843 q 464 890 464 872 q 403 932 464 932 l 256 919 q 154 924 224 919 q 53 928 86 928 q 13 919 24 928 q -6 876 1 911 l -6 874 q 1 853 -6 867 q 22 839 7 839 l 122 840 q 149 831 139 840 q 168 803 158 818 l 461 342 l 461 182 q 446 103 461 126 q 401 79 429 79 q 356 83 381 82 q 310 85 339 85 q 290 72 297 85 q 283 44 283 56 q 361 -6 283 -6 l 381 -4 q 449 1 419 -1 q 511 7 503 7 q 615 1 556 7 q 700 -6 688 -6 q 744 4 729 -6 q 760 43 760 15 q 753 72 760 56 q 732 85 747 85 l 640 79 q 594 110 611 79 q 578 185 578 139 l 578 350 l 854 782 q 894 838 879 822 q 924 847 903 847 q 939 846 933 847 q 946 843 940 846 q 958 840 954 842 q 983 838 972 838 q 1008 842 999 838 q 1032 850 1017 843 q 1043 886 1043 858 q 1033 921 1043 911 q 993 932 1022 932 q 911 926 957 932 q 883 924 896 925 q 851 919 854 919 q 742 928 817 919 q 629 936 667 936 m 717 1076 q 743 1096 733 1082 q 750 1126 750 1110 q 733 1176 750 1154 q 690 1197 715 1197 q 646 1178 668 1197 l 475 1028 q 468 1014 468 1021 q 485 996 468 996 q 497 997 489 996 l 501 999 l 717 1076 z "},"Þ":{"ha":849,"x_min":17,"x_max":786,"o":"m 786 346 q 713 607 786 500 q 496 714 638 714 q 368 690 426 714 q 271 610 310 665 l 271 1040 q 233 1078 271 1078 l 68 1081 q 36 1069 44 1081 q 28 1031 28 1057 q 35 1003 28 1017 q 54 989 40 989 q 100 992 72 989 q 121 994 106 992 q 139 997 131 996 q 161 982 154 997 q 165 935 165 965 l 165 -35 l 165 -58 q 160 -126 165 -92 q 124 -162 153 -162 l 119 -162 q 104 -160 113 -161 q 89 -157 96 -158 q 60 -154 69 -154 q 22 -171 29 -154 l 21 -174 q 17 -196 17 -187 l 17 -201 q 25 -231 17 -218 q 54 -244 33 -244 q 65 -244 57 -244 q 132 -242 90 -243 q 174 -240 156 -242 q 232 -239 221 -239 l 339 -247 q 393 -239 375 -247 q 411 -201 411 -231 q 403 -171 411 -183 q 364 -157 393 -158 q 360 -157 364 -157 q 335 -160 351 -158 q 318 -161 325 -161 q 306 -162 308 -162 l 301 -162 l 299 -162 q 276 -135 281 -162 q 271 -83 274 -117 l 271 -79 l 271 63 q 360 1 319 19 q 456 -19 404 -19 q 704 86 624 -19 q 786 346 786 193 m 671 360 q 626 151 671 236 q 461 67 581 67 q 321 135 367 67 q 274 300 274 203 q 331 560 274 494 q 489 624 386 624 q 628 549 585 624 q 671 360 671 472 z "},"ß":{"ha":888,"x_min":14,"x_max":819,"o":"m 464 965 q 232 843 300 965 q 197 763 217 807 q 163 681 178 717 l 68 683 q 46 671 54 683 q 36 643 36 657 q 35 631 35 639 q 46 607 35 614 q 74 597 60 597 q 110 599 94 597 q 142 600 125 600 q 160 569 154 588 q 168 535 167 546 l 168 165 l 168 139 q 164 100 168 115 q 142 85 157 85 l 40 85 q 21 72 28 85 q 14 40 14 58 q 51 4 14 7 q 131 0 89 0 q 240 6 213 0 q 271 82 271 11 l 271 613 q 317 797 271 729 q 471 865 363 865 q 554 844 517 865 q 590 789 590 824 q 504 657 590 742 q 418 550 418 571 q 565 400 418 488 q 711 224 711 313 q 667 121 711 157 q 557 83 624 83 q 460 125 485 83 q 433 268 433 164 q 422 301 433 286 q 393 315 410 315 q 353 293 368 314 q 339 256 339 278 q 340 244 339 249 q 342 218 340 239 q 343 200 343 210 q 346 171 344 181 q 346 167 346 167 q 344 100 346 149 l 343 83 q 339 25 339 33 q 356 -3 339 13 q 386 -18 371 -18 q 424 1 417 -18 q 429 38 429 18 l 449 29 q 500 7 479 15 q 569 -10 536 -10 q 749 50 679 -10 q 819 228 819 108 q 733 404 819 326 q 546 553 671 453 q 625 629 546 574 q 703 774 703 686 q 631 911 703 856 q 464 965 558 965 z "},"à":{"ha":811,"x_min":49,"x_max":800,"o":"m 364 714 q 175 665 257 714 q 93 521 93 615 q 121 458 93 478 q 181 440 147 440 q 224 453 201 440 q 247 478 247 464 l 247 529 q 233 547 247 538 q 219 564 219 557 q 274 611 236 596 q 358 625 310 625 q 468 594 433 625 q 503 513 503 564 q 390 404 503 428 q 167 358 267 378 q 49 186 49 315 q 119 38 49 94 q 283 -19 189 -19 q 417 7 358 -19 q 515 85 475 31 q 561 14 535 38 q 663 -11 589 -11 q 763 24 726 -11 q 800 117 800 60 l 800 199 q 788 256 800 238 q 753 272 774 272 q 711 228 711 272 l 711 160 q 701 94 711 115 q 663 71 690 71 q 629 88 644 71 q 613 131 613 103 l 613 472 q 565 636 613 560 q 364 714 517 714 m 501 361 l 501 261 q 450 128 501 174 q 296 81 399 81 q 196 113 232 81 q 158 192 158 144 q 308 297 158 275 q 501 361 458 321 m 192 865 l 407 788 l 411 786 q 424 785 419 785 q 440 803 440 785 q 433 817 440 810 l 263 967 q 218 986 240 986 q 176 965 193 986 q 158 915 158 943 q 167 886 158 899 q 192 865 174 872 z "},"á":{"ha":811,"x_min":49,"x_max":800,"o":"m 364 714 q 175 665 257 714 q 93 521 93 615 q 121 458 93 478 q 181 440 147 440 q 224 453 201 440 q 247 478 247 464 l 247 529 q 233 547 247 538 q 219 564 219 557 q 274 611 236 596 q 358 625 310 625 q 468 594 433 625 q 503 513 503 564 q 390 404 503 428 q 167 358 267 378 q 49 186 49 315 q 119 38 49 94 q 283 -19 189 -19 q 417 7 358 -19 q 515 85 475 31 q 561 14 535 38 q 663 -11 589 -11 q 763 24 726 -11 q 800 117 800 60 l 800 199 q 788 256 800 238 q 753 272 774 272 q 711 228 711 272 l 711 160 q 701 94 711 115 q 663 71 690 71 q 629 88 644 71 q 613 131 613 103 l 613 472 q 565 636 613 560 q 364 714 517 714 m 501 361 l 501 261 q 450 128 501 174 q 296 81 399 81 q 196 113 232 81 q 158 192 158 144 q 308 297 158 275 q 501 361 458 321 m 535 871 q 561 890 551 876 q 568 921 568 904 q 551 971 568 949 q 508 992 533 992 q 464 972 486 992 l 293 822 q 286 808 286 815 q 303 790 286 790 q 315 792 307 790 l 319 793 l 535 871 z "},"â":{"ha":811,"x_min":49,"x_max":800,"o":"m 364 714 q 175 665 257 714 q 93 521 93 615 q 121 458 93 478 q 181 440 147 440 q 224 453 201 440 q 247 478 247 464 l 247 529 q 233 547 247 538 q 219 564 219 557 q 274 611 236 596 q 358 625 310 625 q 468 594 433 625 q 503 513 503 564 q 390 404 503 428 q 167 358 267 378 q 49 186 49 315 q 119 38 49 94 q 283 -19 189 -19 q 417 7 358 -19 q 515 85 475 31 q 561 14 535 38 q 663 -11 589 -11 q 763 24 726 -11 q 800 117 800 60 l 800 199 q 788 256 800 238 q 753 272 774 272 q 711 228 711 272 l 711 160 q 701 94 711 115 q 663 71 690 71 q 629 88 644 71 q 613 131 613 103 l 613 472 q 565 636 613 560 q 364 714 517 714 m 501 361 l 501 261 q 450 128 501 174 q 296 81 399 81 q 196 113 232 81 q 158 192 158 144 q 308 297 158 275 q 501 361 458 321 m 596 807 l 382 958 q 367 967 372 967 q 351 958 363 967 l 140 807 q 128 789 128 797 q 139 776 128 781 q 153 772 146 772 q 158 774 157 772 q 221 799 183 783 q 267 817 243 807 q 351 847 294 828 q 365 853 358 850 q 376 849 367 853 q 457 818 417 833 q 558 781 546 785 l 568 778 q 581 774 579 774 q 603 793 603 774 q 596 807 603 800 z "},"ã":{"ha":811,"x_min":49,"x_max":800,"o":"m 364 714 q 175 665 257 714 q 93 521 93 615 q 121 458 93 478 q 181 440 147 440 q 224 453 201 440 q 247 478 247 464 l 247 529 q 233 547 247 538 q 219 564 219 557 q 274 611 236 596 q 358 625 310 625 q 468 594 433 625 q 503 513 503 564 q 390 404 503 428 q 167 358 267 378 q 49 186 49 315 q 119 38 49 94 q 283 -19 189 -19 q 417 7 358 -19 q 515 85 475 31 q 561 14 535 38 q 663 -11 589 -11 q 763 24 726 -11 q 800 117 800 60 l 800 199 q 788 256 800 238 q 753 272 774 272 q 711 228 711 272 l 711 160 q 701 94 711 115 q 663 71 690 71 q 629 88 644 71 q 613 131 613 103 l 613 472 q 565 636 613 560 q 364 714 517 714 m 501 361 l 501 261 q 450 128 501 174 q 296 81 399 81 q 196 113 232 81 q 158 192 158 144 q 308 297 158 275 q 501 361 458 321 m 571 911 q 567 929 571 924 q 556 936 560 936 q 532 917 547 929 q 521 906 528 913 q 485 893 504 893 q 364 921 447 893 q 265 947 285 947 q 172 914 210 947 q 133 826 133 879 q 154 800 133 807 l 185 831 q 229 844 203 844 q 332 819 257 844 q 433 794 407 794 q 525 822 476 794 q 571 911 571 850 z "},"ä":{"ha":811,"x_min":49,"x_max":800,"o":"m 364 714 q 175 665 257 714 q 93 521 93 615 q 121 458 93 478 q 181 440 147 440 q 224 453 201 440 q 247 478 247 464 l 247 529 q 233 547 247 538 q 219 564 219 557 q 274 611 236 596 q 358 625 310 625 q 468 594 433 625 q 503 513 503 564 q 390 404 503 428 q 167 358 267 378 q 49 186 49 315 q 119 38 49 94 q 283 -19 189 -19 q 417 7 358 -19 q 515 85 475 31 q 561 14 535 38 q 663 -11 589 -11 q 763 24 726 -11 q 800 117 800 60 l 800 199 q 788 256 800 238 q 753 272 774 272 q 711 228 711 272 l 711 160 q 701 94 711 115 q 663 71 690 71 q 629 88 644 71 q 613 131 613 103 l 613 472 q 565 636 613 560 q 364 714 517 714 m 501 361 l 501 261 q 450 128 501 174 q 296 81 399 81 q 196 113 232 81 q 158 192 158 144 q 308 297 158 275 q 501 361 458 321 m 236 949 q 179 925 203 949 q 156 868 156 901 q 179 811 156 835 q 236 789 201 789 q 293 813 269 789 q 317 868 317 836 q 293 925 317 901 q 236 949 269 949 m 479 947 q 424 924 447 947 q 400 868 400 900 q 424 813 400 836 q 479 789 447 789 q 535 813 511 789 q 558 868 558 836 q 535 924 558 900 q 479 947 511 947 z "},"å":{"ha":811,"x_min":49,"x_max":800,"o":"m 364 714 q 175 665 257 714 q 93 521 93 615 q 121 458 93 478 q 181 440 147 440 q 224 453 201 440 q 247 478 247 464 l 247 529 q 233 547 247 538 q 219 564 219 557 q 274 611 236 596 q 358 625 310 625 q 468 594 433 625 q 503 513 503 564 q 390 404 503 428 q 167 358 267 378 q 49 186 49 315 q 119 38 49 94 q 283 -19 189 -19 q 417 7 358 -19 q 515 85 475 31 q 561 14 535 38 q 663 -11 589 -11 q 763 24 726 -11 q 800 117 800 60 l 800 199 q 788 256 800 238 q 753 272 774 272 q 711 228 711 272 l 711 160 q 701 94 711 115 q 663 71 690 71 q 629 88 644 71 q 613 131 613 103 l 613 472 q 565 636 613 560 q 364 714 517 714 m 501 361 l 501 261 q 450 128 501 174 q 296 81 399 81 q 196 113 232 81 q 158 192 158 144 q 308 297 158 275 q 501 361 458 321 m 461 899 q 429 976 461 944 q 351 1008 397 1008 q 274 976 306 1008 q 242 899 242 944 q 275 822 242 854 q 351 790 307 790 q 429 822 397 790 q 461 899 461 854 m 408 899 q 392 858 408 875 q 351 842 375 842 q 311 858 328 842 q 294 899 294 875 q 311 939 294 922 q 351 956 328 956 q 392 939 375 956 q 408 899 408 922 z "},"æ":{"ha":1172,"x_min":49,"x_max":1128,"o":"m 589 610 q 506 686 561 657 q 364 714 449 714 q 175 664 257 714 q 93 521 93 614 q 122 458 93 478 q 181 440 149 440 q 225 453 203 440 q 247 478 247 463 l 247 529 q 233 547 247 538 q 219 564 219 557 q 274 613 239 600 q 358 625 310 625 q 467 594 432 625 q 503 513 503 563 q 389 403 503 425 q 165 357 265 376 q 49 186 49 314 q 119 38 49 94 q 283 -19 189 -19 q 443 13 356 -19 q 564 92 529 44 q 597 57 575 67 q 689 0 638 18 q 806 -19 740 -19 q 1021 44 931 -19 q 1111 222 1111 107 q 1093 249 1104 243 q 1047 256 1079 256 q 989 161 1038 256 q 824 65 942 65 q 667 136 725 65 q 607 304 607 204 l 607 328 l 1079 328 q 1117 335 1107 328 q 1125 358 1125 342 l 1128 413 q 1043 625 1128 540 q 832 711 957 711 q 693 685 751 711 q 589 610 633 658 m 501 261 q 449 128 501 176 q 296 81 397 81 q 194 113 231 81 q 158 192 158 144 q 308 297 158 275 q 501 361 458 321 l 501 261 m 1017 424 l 618 424 q 678 557 636 486 q 826 624 718 624 q 978 557 947 624 q 1017 424 1008 493 z "},"ç":{"ha":694,"x_min":50,"x_max":651,"o":"m 382 714 q 143 610 238 714 q 50 342 50 504 q 140 76 50 178 q 372 -25 229 -25 q 569 51 489 -25 q 651 242 651 128 q 635 268 651 258 q 600 278 619 278 q 568 267 583 278 q 553 243 553 254 q 497 124 553 179 q 368 65 442 65 q 219 144 276 65 q 163 346 163 225 q 222 544 163 468 q 372 621 282 621 q 471 596 428 621 q 526 518 514 569 q 479 501 500 518 q 458 454 458 483 q 479 404 458 428 q 528 382 500 382 q 613 415 588 382 q 638 493 638 449 q 563 656 638 597 q 382 714 486 714 m 315 -17 l 364 -17 l 340 -75 l 374 -72 q 457 -92 421 -72 q 492 -157 492 -112 q 449 -228 492 -201 q 354 -254 406 -254 q 264 -236 304 -254 q 222 -194 222 -218 q 233 -178 222 -185 q 251 -172 243 -172 q 269 -181 263 -176 q 304 -194 292 -190 q 347 -206 333 -206 q 396 -196 378 -206 q 415 -161 415 -187 q 404 -132 415 -147 q 375 -119 392 -119 q 340 -128 364 -119 q 308 -137 319 -137 q 286 -128 297 -137 q 276 -114 276 -122 q 278 -107 276 -110 l 315 -17 z "},"è":{"ha":732,"x_min":47,"x_max":683,"o":"m 388 711 q 135 597 222 711 q 47 321 47 483 q 128 79 47 176 q 361 -19 210 -19 q 576 43 485 -19 q 667 222 667 106 q 650 249 660 243 q 603 256 636 256 q 546 161 594 256 q 379 65 499 65 q 222 136 281 65 q 163 304 163 204 l 163 328 l 635 328 q 674 335 664 328 q 681 358 681 342 l 683 413 q 600 625 683 538 q 388 711 514 711 m 382 624 q 531 557 500 624 q 572 424 563 490 l 174 424 q 232 557 193 490 q 382 624 272 624 m 206 872 l 421 794 l 425 793 q 438 792 433 792 q 454 810 454 792 q 447 824 454 817 l 276 974 q 232 993 254 993 q 190 972 207 993 q 172 922 172 950 q 181 893 172 906 q 206 872 188 879 z "},"é":{"ha":732,"x_min":47,"x_max":683,"o":"m 388 711 q 135 597 222 711 q 47 321 47 483 q 128 79 47 176 q 361 -19 210 -19 q 576 43 485 -19 q 667 222 667 106 q 650 249 660 243 q 603 256 636 256 q 546 161 594 256 q 379 65 499 65 q 222 136 281 65 q 163 304 163 204 l 163 328 l 635 328 q 674 335 664 328 q 681 358 681 342 l 683 413 q 600 625 683 538 q 388 711 514 711 m 382 624 q 531 557 500 624 q 572 424 563 490 l 174 424 q 232 557 193 490 q 382 624 272 624 m 533 871 q 560 890 550 876 q 567 921 567 904 q 550 971 567 949 q 507 992 532 992 q 463 972 485 992 l 292 822 q 285 808 285 815 q 301 790 285 790 q 314 792 306 790 l 318 793 l 533 871 z "},"ê":{"ha":732,"x_min":47,"x_max":683,"o":"m 388 711 q 135 597 222 711 q 47 321 47 483 q 128 79 47 176 q 361 -19 210 -19 q 576 43 485 -19 q 667 222 667 106 q 650 249 660 243 q 603 256 636 256 q 546 161 594 256 q 379 65 499 65 q 222 136 281 65 q 163 304 163 204 l 163 328 l 635 328 q 674 335 664 328 q 681 358 681 342 l 683 413 q 600 625 683 538 q 388 711 514 711 m 382 624 q 531 557 500 624 q 572 424 563 490 l 174 424 q 232 557 193 490 q 382 624 272 624 m 604 825 l 390 976 q 375 985 381 985 q 360 976 371 985 l 149 825 q 136 807 136 815 q 147 794 136 799 q 161 790 154 790 q 167 792 165 790 q 229 817 192 801 q 275 835 251 825 q 360 865 303 846 q 374 871 367 868 q 385 867 375 871 q 465 836 425 851 q 567 799 554 803 l 576 796 q 589 792 588 792 q 611 811 611 792 q 604 825 611 818 z "},"ë":{"ha":732,"x_min":47,"x_max":683,"o":"m 388 711 q 135 597 222 711 q 47 321 47 483 q 128 79 47 176 q 361 -19 210 -19 q 576 43 485 -19 q 667 222 667 106 q 650 249 660 243 q 603 256 636 256 q 546 161 594 256 q 379 65 499 65 q 222 136 281 65 q 163 304 163 204 l 163 328 l 635 328 q 674 335 664 328 q 681 358 681 342 l 683 413 q 600 625 683 538 q 388 711 514 711 m 382 624 q 531 557 500 624 q 572 424 563 490 l 174 424 q 232 557 193 490 q 382 624 272 624 m 267 965 q 210 942 233 965 q 186 885 186 918 q 210 828 186 851 q 267 806 232 806 q 324 829 300 806 q 347 885 347 853 q 324 942 347 918 q 267 965 300 965 m 510 964 q 454 940 478 964 q 431 885 431 917 q 454 829 431 853 q 510 806 478 806 q 565 829 542 806 q 589 885 589 853 q 565 940 589 917 q 510 964 542 964 z "},"ì":{"ha":426,"x_min":7,"x_max":424,"o":"m 88 689 q 32 642 32 689 q 42 617 32 628 q 60 603 50 603 l 151 606 q 174 586 165 606 q 182 526 182 568 l 182 149 q 174 104 182 125 q 151 82 165 82 q 108 86 124 85 q 68 88 93 88 q 39 78 44 88 q 29 49 35 72 l 28 44 q 35 17 28 33 q 57 0 42 0 q 117 1 85 0 q 165 4 138 3 q 214 6 193 4 q 294 1 240 6 q 382 -3 349 -3 q 410 13 394 -3 q 424 51 424 26 q 413 76 424 65 q 385 88 401 88 q 343 86 354 88 q 315 79 328 85 l 313 79 q 294 97 300 79 q 288 139 288 118 l 288 581 q 289 624 289 599 q 282 672 289 651 q 253 689 276 689 l 214 686 l 88 689 m 40 865 l 256 788 l 260 786 q 272 785 268 785 q 289 803 289 785 q 282 817 289 810 l 111 967 q 67 986 89 986 q 25 965 42 986 q 7 915 7 943 q 15 886 7 899 q 40 865 22 872 z "},"í":{"ha":426,"x_min":28,"x_max":424,"o":"m 88 689 q 32 642 32 689 q 42 617 32 628 q 60 603 50 603 l 151 606 q 174 586 165 606 q 182 526 182 568 l 182 149 q 174 104 182 125 q 151 82 165 82 q 108 86 124 85 q 68 88 93 88 q 39 78 44 88 q 29 49 35 72 l 28 44 q 35 17 28 33 q 57 0 42 0 q 117 1 85 0 q 165 4 138 3 q 214 6 193 4 q 294 1 240 6 q 382 -3 349 -3 q 410 13 394 -3 q 424 51 424 26 q 413 76 424 65 q 385 88 401 88 q 343 86 354 88 q 315 79 328 85 l 313 79 q 294 97 300 79 q 288 139 288 118 l 288 581 q 289 624 289 599 q 282 672 289 651 q 253 689 276 689 l 214 686 l 88 689 m 367 844 q 393 864 383 850 q 400 894 400 878 q 383 944 400 922 q 340 965 365 965 q 296 946 318 965 l 125 796 q 118 782 118 789 q 135 764 118 764 q 147 765 139 764 l 151 767 l 367 844 z "},"î":{"ha":426,"x_min":-21,"x_max":454,"o":"m 88 689 q 32 642 32 689 q 42 617 32 628 q 60 603 50 603 l 151 606 q 174 586 165 606 q 182 526 182 568 l 182 149 q 174 104 182 125 q 151 82 165 82 q 108 86 124 85 q 68 88 93 88 q 39 78 44 88 q 29 49 35 72 l 28 44 q 35 17 28 33 q 57 0 42 0 q 117 1 85 0 q 165 4 138 3 q 214 6 193 4 q 294 1 240 6 q 382 -3 349 -3 q 410 13 394 -3 q 424 51 424 26 q 413 76 424 65 q 385 88 401 88 q 343 86 354 88 q 315 79 328 85 l 313 79 q 294 97 300 79 q 288 139 288 118 l 288 581 q 289 624 289 599 q 282 672 289 651 q 253 689 276 689 l 214 686 l 88 689 m 447 814 l 233 965 q 218 974 224 974 q 203 965 214 974 l -8 814 q -21 796 -21 804 q -10 783 -21 788 q 4 779 -3 779 q 10 781 8 779 q 72 806 35 790 q 118 824 94 814 q 203 854 146 835 q 217 860 210 857 q 228 856 218 860 q 308 825 268 840 q 410 788 397 792 l 419 785 q 432 781 431 781 q 454 800 454 781 q 447 814 454 807 z "},"ï":{"ha":426,"x_min":15,"x_max":424,"o":"m 88 689 q 32 642 32 689 q 42 617 32 628 q 60 603 50 603 l 151 606 q 174 586 165 606 q 182 526 182 568 l 182 149 q 174 104 182 125 q 151 82 165 82 q 108 86 124 85 q 68 88 93 88 q 39 78 44 88 q 29 49 35 72 l 28 44 q 35 17 28 33 q 57 0 42 0 q 117 1 85 0 q 165 4 138 3 q 214 6 193 4 q 294 1 240 6 q 382 -3 349 -3 q 410 13 394 -3 q 424 51 424 26 q 413 76 424 65 q 385 88 401 88 q 343 86 354 88 q 315 79 328 85 l 313 79 q 294 97 300 79 q 288 139 288 118 l 288 581 q 289 624 289 599 q 282 672 289 651 q 253 689 276 689 l 214 686 l 88 689 m 96 939 q 39 915 63 939 q 15 858 15 892 q 39 801 15 825 q 96 779 61 779 q 153 803 129 779 q 176 858 176 826 q 153 915 176 892 q 96 939 129 939 m 339 938 q 283 914 307 938 q 260 858 260 890 q 283 803 260 826 q 339 779 307 779 q 394 803 371 779 q 418 858 418 826 q 394 914 418 890 q 339 938 371 938 z "},"ð":{"ha":888,"x_min":72,"x_max":813,"o":"m 528 933 q 403 953 465 953 q 214 900 304 953 q 124 757 124 846 q 150 690 124 719 q 214 660 175 660 q 267 685 242 660 q 286 724 286 704 l 286 731 q 246 786 286 774 q 310 844 269 826 q 401 861 350 861 q 435 860 425 861 q 463 856 443 858 l 418 803 q 403 765 403 785 q 418 732 403 744 q 451 718 432 718 q 493 739 476 718 l 556 814 q 661 669 625 763 q 696 475 696 578 q 581 588 654 550 q 418 625 508 625 q 175 543 278 625 q 72 315 72 461 q 171 75 72 174 q 432 -24 269 -24 q 718 104 624 -24 q 813 414 813 232 q 763 700 813 578 q 618 888 713 822 l 632 906 q 646 940 646 919 q 632 975 646 961 q 597 989 618 989 q 557 968 574 989 l 528 933 m 671 306 q 611 136 671 201 q 432 69 551 69 q 257 138 317 69 q 196 306 196 207 q 264 467 196 408 q 431 525 333 525 q 601 471 533 525 q 671 306 671 414 z "},"ñ":{"ha":888,"x_min":26,"x_max":893,"o":"m 382 -3 q 414 13 403 -3 q 424 49 424 26 q 415 72 424 58 q 399 85 406 85 q 346 83 361 85 q 307 79 319 81 q 286 103 293 79 q 279 146 279 128 l 279 413 q 332 563 279 499 q 471 625 385 625 q 594 583 543 625 q 646 475 646 540 l 646 154 l 646 131 q 639 90 646 101 q 618 79 632 79 q 574 83 604 81 q 529 85 558 85 q 511 74 522 85 q 499 49 501 61 l 499 42 q 508 14 499 25 q 540 -1 521 -1 l 854 1 q 881 14 868 1 q 893 39 893 26 q 888 71 893 58 q 863 85 882 85 q 815 83 829 85 q 779 79 796 82 q 756 97 761 79 q 749 154 749 115 l 749 456 q 675 647 749 582 q 493 711 603 711 q 372 685 424 711 q 268 608 318 657 q 265 664 268 628 q 239 692 261 692 l 154 683 q 126 688 143 683 q 108 689 119 689 l 103 689 q 54 685 69 686 q 31 644 31 678 q 42 608 31 615 q 75 601 53 601 q 115 604 90 601 q 146 608 138 607 l 149 608 q 169 583 164 608 q 176 526 176 553 l 176 157 q 169 107 176 138 q 149 79 161 79 q 108 88 124 85 q 88 89 101 89 q 68 88 74 89 q 33 63 40 83 q 28 36 31 51 q 26 31 26 32 q 60 0 26 0 l 382 -3 m 667 913 q 663 931 667 925 q 651 938 656 938 q 628 918 643 931 q 617 907 624 914 q 581 894 600 894 q 460 922 543 894 q 361 949 381 949 q 268 915 306 949 q 229 828 229 881 q 250 801 229 808 l 281 832 q 325 846 299 846 q 428 821 353 846 q 529 796 503 796 q 621 824 572 796 q 667 913 667 851 z "},"ò":{"ha":774,"x_min":49,"x_max":697,"o":"m 369 718 q 136 607 224 718 q 49 347 49 494 q 135 92 49 201 q 369 -18 219 -18 q 618 86 538 -18 q 697 347 697 190 q 615 614 697 508 q 369 718 535 718 m 586 347 q 535 151 586 232 q 369 71 483 71 q 217 151 268 71 q 163 347 163 231 q 215 546 163 461 q 369 628 268 628 q 538 550 489 628 q 586 347 586 469 m 200 872 l 415 794 l 419 793 q 432 792 428 792 q 449 810 449 792 q 442 824 449 817 l 271 974 q 226 993 249 993 q 185 972 201 993 q 167 922 167 950 q 175 893 167 906 q 200 872 182 879 z "},"ó":{"ha":774,"x_min":49,"x_max":697,"o":"m 369 718 q 136 607 224 718 q 49 347 49 494 q 135 92 49 201 q 369 -18 219 -18 q 618 86 538 -18 q 697 347 697 190 q 615 614 697 508 q 369 718 535 718 m 586 347 q 535 151 586 232 q 369 71 483 71 q 217 151 268 71 q 163 347 163 231 q 215 546 163 461 q 369 628 268 628 q 538 550 489 628 q 586 347 586 469 m 538 869 q 564 889 554 875 q 571 919 571 903 q 554 969 571 947 q 511 990 536 990 q 467 971 489 990 l 296 821 q 289 807 289 814 q 306 789 289 789 q 318 790 310 789 l 322 792 l 538 869 z "},"ô":{"ha":774,"x_min":49,"x_max":697,"o":"m 369 718 q 136 607 224 718 q 49 347 49 494 q 135 92 49 201 q 369 -18 219 -18 q 618 86 538 -18 q 697 347 697 190 q 615 614 697 508 q 369 718 535 718 m 586 347 q 535 151 586 232 q 369 71 483 71 q 217 151 268 71 q 163 347 163 231 q 215 546 163 461 q 369 628 268 628 q 538 550 489 628 q 586 347 586 469 m 592 819 l 378 971 q 363 979 368 979 q 347 971 358 979 l 136 819 q 124 801 124 810 q 135 789 124 793 q 149 785 142 785 q 154 786 153 785 q 217 811 179 796 q 263 829 239 819 q 347 860 290 840 q 361 865 354 863 q 372 861 363 865 q 453 831 413 846 q 554 793 542 797 l 564 790 q 576 786 575 786 q 599 806 599 786 q 592 819 599 813 z "},"õ":{"ha":774,"x_min":49,"x_max":697,"o":"m 369 718 q 136 607 224 718 q 49 347 49 494 q 135 92 49 201 q 369 -18 219 -18 q 618 86 538 -18 q 697 347 697 190 q 615 614 697 508 q 369 718 535 718 m 586 347 q 535 151 586 232 q 369 71 483 71 q 217 151 268 71 q 163 347 163 231 q 215 546 163 461 q 369 628 268 628 q 538 550 489 628 q 586 347 586 469 m 590 917 q 586 935 590 929 q 575 942 579 942 q 551 922 567 935 q 540 911 547 918 q 504 899 524 899 q 383 926 467 899 q 285 953 304 953 q 192 919 229 953 q 153 832 153 885 q 174 806 153 813 l 204 836 q 249 850 222 850 q 351 825 276 850 q 453 800 426 800 q 544 828 496 800 q 590 917 590 856 z "},"ö":{"ha":774,"x_min":49,"x_max":697,"o":"m 369 718 q 136 607 224 718 q 49 347 49 494 q 135 92 49 201 q 369 -18 219 -18 q 618 86 538 -18 q 697 347 697 190 q 615 614 697 508 q 369 718 535 718 m 586 347 q 535 151 586 232 q 369 71 483 71 q 217 151 268 71 q 163 347 163 231 q 215 546 163 461 q 369 628 268 628 q 538 550 489 628 q 586 347 586 469 m 251 951 q 194 928 218 951 q 171 871 171 904 q 194 814 171 838 q 251 792 217 792 q 308 815 285 792 q 332 871 332 839 q 308 928 332 904 q 251 951 285 951 m 494 950 q 439 926 463 950 q 415 871 415 903 q 439 815 415 839 q 494 792 463 792 q 550 815 526 792 q 574 871 574 839 q 550 926 574 903 q 494 950 526 950 z "},"÷":{"ha":763,"x_min":60,"x_max":703,"o":"m 382 219 q 326 197 349 219 q 303 140 303 174 q 326 83 303 106 q 382 61 349 61 q 439 85 415 61 q 460 140 460 108 q 439 199 460 176 q 382 219 417 219 m 703 375 l 60 375 l 60 281 l 703 281 l 703 375 m 382 593 q 326 571 349 593 q 303 514 303 547 q 326 457 303 481 q 382 435 349 435 q 439 458 415 435 q 460 514 460 482 q 438 569 460 547 q 382 593 414 593 z "},"ø":{"ha":774,"x_min":49,"x_max":697,"o":"m 97 146 l 74 121 q 53 79 53 99 q 67 51 53 61 q 100 40 81 40 q 161 63 131 40 q 254 3 206 21 q 369 -18 307 -18 q 619 86 540 -18 q 697 347 697 192 q 642 574 697 481 l 649 581 q 672 613 667 599 q 678 639 678 624 q 636 676 678 676 q 574 653 606 676 q 485 701 533 685 q 369 718 435 718 q 135 607 221 718 q 49 347 49 496 q 97 146 49 236 m 564 490 q 586 347 586 428 q 535 151 586 232 q 369 71 483 71 q 290 88 324 71 q 231 133 258 101 l 564 490 m 178 232 q 163 347 163 290 q 215 546 163 461 q 369 628 268 628 q 447 617 410 628 q 506 583 483 604 l 178 232 z "},"ù":{"ha":849,"x_min":-1,"x_max":857,"o":"m 51 694 q 11 679 26 694 q -1 650 -1 667 q 0 638 -1 642 q 43 603 8 603 q 76 604 64 603 q 108 608 99 607 q 136 590 131 608 q 143 533 143 569 l 143 507 q 142 483 142 499 l 142 208 q 206 43 142 107 q 388 -22 271 -22 q 519 4 461 -22 q 615 79 581 29 l 615 35 q 657 0 615 0 l 826 0 q 857 51 857 0 q 846 79 857 68 q 818 89 836 89 q 785 88 794 89 q 768 83 778 86 q 763 82 763 82 l 757 82 q 717 128 724 82 q 708 365 708 178 l 715 653 l 715 676 q 697 690 714 690 l 515 692 q 493 679 501 692 q 483 647 483 665 q 493 617 483 628 q 518 603 501 603 l 583 603 q 601 574 596 599 q 606 515 606 549 l 606 372 q 575 149 606 224 q 414 69 544 69 q 286 124 331 69 q 242 328 242 176 l 242 672 q 231 688 242 679 q 210 694 219 694 q 186 693 203 694 q 179 692 183 692 q 172 690 175 692 q 149 689 156 689 q 118 690 143 689 q 96 692 107 692 q 63 694 75 693 q 51 694 53 694 m 206 878 l 421 800 l 425 799 q 438 797 433 797 q 454 815 454 797 q 447 829 454 822 l 276 979 q 232 999 254 999 q 190 978 207 999 q 172 928 172 956 q 181 899 172 911 q 206 878 188 885 z "},"ú":{"ha":849,"x_min":-1,"x_max":857,"o":"m 51 694 q 11 679 26 694 q -1 650 -1 667 q 0 638 -1 642 q 43 603 8 603 q 76 604 64 603 q 108 608 99 607 q 136 590 131 608 q 143 533 143 569 l 143 507 q 142 483 142 499 l 142 208 q 206 43 142 107 q 388 -22 271 -22 q 519 4 461 -22 q 615 79 581 29 l 615 35 q 657 0 615 0 l 826 0 q 857 51 857 0 q 846 79 857 68 q 818 89 836 89 q 785 88 794 89 q 768 83 778 86 q 763 82 763 82 l 757 82 q 717 128 724 82 q 708 365 708 178 l 715 653 l 715 676 q 697 690 714 690 l 515 692 q 493 679 501 692 q 483 647 483 665 q 493 617 483 628 q 518 603 501 603 l 583 603 q 601 574 596 599 q 606 515 606 549 l 606 372 q 575 149 606 224 q 414 69 544 69 q 286 124 331 69 q 242 328 242 176 l 242 672 q 231 688 242 679 q 210 694 219 694 q 186 693 203 694 q 179 692 183 692 q 172 690 175 692 q 149 689 156 689 q 118 690 143 689 q 96 692 107 692 q 63 694 75 693 q 51 694 53 694 m 554 874 q 581 893 571 879 q 588 924 588 907 q 571 974 588 951 q 528 994 553 994 q 483 975 506 994 l 313 825 q 306 811 306 818 q 322 793 306 793 q 335 794 326 793 l 339 796 l 554 874 z "},"û":{"ha":849,"x_min":-1,"x_max":857,"o":"m 51 694 q 11 679 26 694 q -1 650 -1 667 q 0 638 -1 642 q 43 603 8 603 q 76 604 64 603 q 108 608 99 607 q 136 590 131 608 q 143 533 143 569 l 143 507 q 142 483 142 499 l 142 208 q 206 43 142 107 q 388 -22 271 -22 q 519 4 461 -22 q 615 79 581 29 l 615 35 q 657 0 615 0 l 826 0 q 857 51 857 0 q 846 79 857 68 q 818 89 836 89 q 785 88 794 89 q 768 83 778 86 q 763 82 763 82 l 757 82 q 717 128 724 82 q 708 365 708 178 l 715 653 l 715 676 q 697 690 714 690 l 515 692 q 493 679 501 692 q 483 647 483 665 q 493 617 483 628 q 518 603 501 603 l 583 603 q 601 574 596 599 q 606 515 606 549 l 606 372 q 575 149 606 224 q 414 69 544 69 q 286 124 331 69 q 242 328 242 176 l 242 672 q 231 688 242 679 q 210 694 219 694 q 186 693 203 694 q 179 692 183 692 q 172 690 175 692 q 149 689 156 689 q 118 690 143 689 q 96 692 107 692 q 63 694 75 693 q 51 694 53 694 m 625 821 l 411 972 q 396 981 401 981 q 381 972 392 981 l 169 821 q 157 803 157 811 q 168 790 157 794 q 182 786 175 786 q 188 788 186 786 q 250 813 213 797 q 296 831 272 821 q 381 861 324 842 q 394 867 388 864 q 406 863 396 867 q 486 832 446 847 q 588 794 575 799 l 597 792 q 610 788 608 788 q 632 807 632 788 q 625 821 632 814 z "},"ü":{"ha":849,"x_min":-1,"x_max":857,"o":"m 51 694 q 11 679 26 694 q -1 650 -1 667 q 0 638 -1 642 q 43 603 8 603 q 76 604 64 603 q 108 608 99 607 q 136 590 131 608 q 143 533 143 569 l 143 507 q 142 483 142 499 l 142 208 q 206 43 142 107 q 388 -22 271 -22 q 519 4 461 -22 q 615 79 581 29 l 615 35 q 657 0 615 0 l 826 0 q 857 51 857 0 q 846 79 857 68 q 818 89 836 89 q 785 88 794 89 q 768 83 778 86 q 763 82 763 82 l 757 82 q 717 128 724 82 q 708 365 708 178 l 715 653 l 715 676 q 697 690 714 690 l 515 692 q 493 679 501 692 q 483 647 483 665 q 493 617 483 628 q 518 603 501 603 l 583 603 q 601 574 596 599 q 606 515 606 549 l 606 372 q 575 149 606 224 q 414 69 544 69 q 286 124 331 69 q 242 328 242 176 l 242 672 q 231 688 242 679 q 210 694 219 694 q 186 693 203 694 q 179 692 183 692 q 172 690 175 692 q 149 689 156 689 q 118 690 143 689 q 96 692 107 692 q 63 694 75 693 q 51 694 53 694 m 271 954 q 214 931 238 954 q 190 874 190 907 q 214 817 190 840 q 271 794 236 794 q 328 818 304 794 q 351 874 351 842 q 328 931 351 907 q 271 954 304 954 m 514 953 q 458 929 482 953 q 435 874 435 906 q 458 818 435 842 q 514 794 482 794 q 569 818 546 794 q 593 874 593 842 q 569 929 593 906 q 514 953 546 953 z "},"ý":{"ha":869,"x_min":-28,"x_max":857,"o":"m 336 697 q 240 692 297 697 q 149 686 183 686 l 132 689 q 103 693 113 692 l 100 693 q 67 696 78 696 q 53 694 60 694 q 13 681 25 693 q 0 646 0 668 q 13 615 0 626 q 39 604 26 604 q 93 607 60 604 q 121 608 110 608 q 147 585 136 608 q 154 567 151 575 q 160 550 158 554 l 358 40 q 367 -6 367 18 q 304 -131 367 -75 q 175 -187 239 -187 q 126 -181 147 -187 q 94 -154 104 -174 q 122 -135 106 -151 q 136 -100 136 -121 q 113 -51 136 -71 q 58 -33 90 -33 q -1 -60 24 -33 q -28 -131 -28 -86 q 38 -239 -28 -199 q 176 -279 103 -279 q 333 -228 265 -279 q 443 -106 401 -176 q 526 68 483 -36 l 717 543 q 733 582 724 564 q 760 610 743 600 l 822 606 l 842 606 q 857 647 857 613 q 844 685 857 675 q 794 694 831 694 q 749 690 776 694 q 703 686 722 686 q 596 690 657 686 q 529 694 536 694 q 497 681 511 694 q 483 650 483 667 q 482 639 482 646 q 486 621 482 629 q 510 606 493 606 q 565 607 551 606 q 586 608 575 608 q 607 610 597 608 q 619 593 619 610 q 618 579 619 583 q 610 556 614 567 l 439 94 l 282 564 q 274 593 274 581 q 285 610 274 607 l 343 608 q 386 619 372 608 q 399 646 399 631 q 336 697 399 697 m 643 871 q 669 890 660 876 q 676 921 676 904 q 660 971 676 949 q 617 992 642 992 q 572 972 594 992 l 401 822 q 394 808 394 815 q 411 790 394 790 q 424 792 415 790 l 428 793 l 643 871 z "},"þ":{"ha":849,"x_min":17,"x_max":786,"o":"m 22 968 q 30 928 22 943 q 61 913 38 913 l 165 913 l 165 192 l 165 169 q 160 106 165 139 q 124 71 153 71 l 119 71 q 104 74 113 72 q 89 76 96 75 q 60 79 69 79 q 22 63 29 79 q 17 39 17 49 q 17 35 17 38 q 25 7 17 18 q 54 -7 33 -7 q 65 -7 57 -7 q 132 -4 90 -6 q 174 -3 156 -4 q 232 -1 221 -1 l 339 -10 q 393 -1 375 -10 q 411 35 411 7 q 403 63 411 53 q 364 76 393 75 q 360 76 364 76 q 335 74 351 75 q 318 72 325 72 q 306 71 308 71 l 301 71 l 299 71 q 276 97 281 71 q 271 144 274 110 l 271 150 l 271 285 q 360 226 322 242 q 456 207 400 207 q 704 307 625 207 q 786 553 786 408 q 713 800 786 699 q 496 901 638 901 q 368 879 422 901 q 271 803 310 857 l 271 975 q 261 1012 271 1003 q 239 1021 251 1021 l 67 1021 q 58 1019 64 1021 q 43 1013 51 1018 q 28 997 35 1008 q 22 968 22 986 m 671 567 q 626 368 671 449 q 461 289 582 289 q 321 353 367 289 q 274 510 274 417 q 331 756 274 694 q 489 817 388 817 q 628 744 585 817 q 671 567 671 672 z "},"ÿ":{"ha":869,"x_min":-28,"x_max":857,"o":"m 336 697 q 240 692 297 697 q 149 686 183 686 l 132 689 q 103 693 113 692 l 100 693 q 67 696 78 696 q 53 694 60 694 q 13 681 25 693 q 0 646 0 668 q 13 615 0 626 q 39 604 26 604 q 93 607 60 604 q 121 608 110 608 q 147 585 136 608 q 154 567 151 575 q 160 550 158 554 l 358 40 q 367 -6 367 18 q 304 -131 367 -75 q 175 -187 239 -187 q 126 -181 147 -187 q 94 -154 104 -174 q 122 -135 106 -151 q 136 -100 136 -121 q 113 -51 136 -71 q 58 -33 90 -33 q -1 -60 24 -33 q -28 -131 -28 -86 q 38 -239 -28 -199 q 176 -279 103 -279 q 333 -228 265 -279 q 443 -106 401 -176 q 526 68 483 -36 l 717 543 q 733 582 724 564 q 760 610 743 600 l 822 606 l 842 606 q 857 647 857 613 q 844 685 857 675 q 794 694 831 694 q 749 690 776 694 q 703 686 722 686 q 596 690 657 686 q 529 694 536 694 q 497 681 511 694 q 483 650 483 667 q 482 639 482 646 q 486 621 482 629 q 510 606 493 606 q 565 607 551 606 q 586 608 575 608 q 607 610 597 608 q 619 593 619 610 q 618 579 619 583 q 610 556 614 567 l 439 94 l 282 564 q 274 593 274 581 q 285 610 274 607 l 343 608 q 386 619 372 608 q 399 646 399 631 q 336 697 399 697 m 324 956 q 267 932 290 956 q 243 875 243 908 q 267 818 243 842 q 324 796 289 796 q 381 819 357 796 q 404 875 404 843 q 381 932 404 908 q 324 956 357 956 m 567 954 q 511 931 535 954 q 488 875 488 907 q 511 819 488 843 q 567 796 535 796 q 622 819 599 796 q 646 875 646 843 q 622 931 646 907 q 567 954 599 954 z "}}}
